<?xml version="1.0" encoding="utf-8" standalone="no"?>
<!DOCTYPE svg PUBLIC "-//W3C//DTD SVG 1.0//EN" "http://www.w3.org/TR/2001/REC-SVG-20010904/DTD/svg10.dtd"[]>
<!-- Generated by Microsoft Visio 11.0, SVG Export, v1.0 Consolidating stacks - final=GUID-20587937-A3E8-4390-858F-8064A7206A79=3=en=High.svg Page-1 -->
<svg xmlns="http://www.w3.org/2000/svg" xmlns:xlink="http://www.w3.org/1999/xlink" xmlns:ev="http://www.w3.org/2001/xml-events" xmlns:v="http://schemas.microsoft.com/visio/2003/SVGExtensions/" width="10.4913in" height="6.5in" viewBox="0 0 755.372 468" xml:space="preserve" color-interpolation-filters="sRGB" class="st23">
	<v:documentProperties v:langID="1033" v:viewMarkup="false">
		<v:userDefs>
			<v:ud v:nameU="msvNoAutoConnect" v:val="VT0(0):26" />
		</v:userDefs>
	</v:documentProperties>

	<style type="text/css">
	<![CDATA[
		.st1 {visibility:visible}
		.st2 {fill:#cdcdcd;fill-opacity:0.5;stroke:#cdcdcd;stroke-linecap:round;stroke-linejoin:round;stroke-opacity:0.5;stroke-width:0.25}
		.st3 {fill:url(#grad30-6);stroke:#404040;stroke-linecap:round;stroke-linejoin:round;stroke-width:0.25}
		.st4 {fill:url(#grad30-12);stroke:#404040;stroke-linecap:round;stroke-linejoin:round;stroke-width:0.25}
		.st5 {fill:#000000;font-family:Calibri;font-size:0.666664em;font-weight:bold}
		.st6 {stroke:#00b050;stroke-linecap:round;stroke-linejoin:round;stroke-width:1.5}
		.st7 {fill:none;stroke:none;stroke-linecap:round;stroke-linejoin:round;stroke-width:0.25}
		.st8 {fill:#000000;font-family:Calibri;font-size:1.00001em;font-weight:bold}
		.st9 {stroke:#0070c0;stroke-linecap:round;stroke-linejoin:round;stroke-width:1.5}
		.st10 {stroke:#000000;stroke-linecap:round;stroke-linejoin:round;stroke-width:1}
		.st11 {stroke:#ffc000;stroke-linecap:round;stroke-linejoin:round;stroke-width:1.5}
		.st12 {fill:#cdcdcd;fill-opacity:0.5;stroke:#cdcdcd;stroke-linecap:round;stroke-linejoin:round;stroke-opacity:0.5;stroke-width:1.5}
		.st13 {fill:url(#grad30-104);stroke:#000000;stroke-linecap:round;stroke-linejoin:round;stroke-width:1.5}
		.st14 {fill:url(#grad30-104);stroke:#ff0000;stroke-linecap:round;stroke-linejoin:round;stroke-width:1.5}
		.st15 {fill:#000000;font-family:Calibri;font-size:0.666664em}
		.st16 {fill:url(#grad30-104);stroke:#00b050;stroke-linecap:round;stroke-linejoin:round;stroke-width:1.5}
		.st17 {fill:url(#grad30-104);stroke:#0070c0;stroke-linecap:round;stroke-linejoin:round;stroke-width:1.5}
		.st18 {fill:url(#grad30-150);stroke:#404040;stroke-linecap:round;stroke-linejoin:round;stroke-width:1.5}
		.st19 {fill:url(#grad30-150);stroke:#0070c0;stroke-linecap:round;stroke-linejoin:round;stroke-width:1.5}
		.st20 {fill:url(#grad30-150);stroke:#ffc000;stroke-linecap:round;stroke-linejoin:round;stroke-width:1.5}
		.st21 {fill:url(#grad30-150);stroke:#4e66b2;stroke-linecap:round;stroke-linejoin:round;stroke-width:1.5}
		.st22 {stroke:#ff0000;stroke-linecap:round;stroke-linejoin:round;stroke-width:1.5}
		.st23 {fill:none;fill-rule:evenodd;font-size:12;overflow:visible;stroke-linecap:square;stroke-miterlimit:3}
	]]>
	</style>

	<defs id="Patterns_And_Gradients">
		<linearGradient id="grad30-6" v:fillPattern="30" v:foreground="#f7d8c1" v:background="#fae9dc" x1="0" y1="1" x2="0" y2="0">
			<stop offset="0" style="stop-color:#f7d8c1;stop-opacity:1" />
			<stop offset="1" style="stop-color:#fae9dc;stop-opacity:1" />
		</linearGradient>
		<linearGradient id="grad30-12" v:fillPattern="30" v:foreground="#f0f0f0" v:background="#ffffff" x1="0" y1="1" x2="0" y2="0">
			<stop offset="0" style="stop-color:#f0f0f0;stop-opacity:1" />
			<stop offset="1" style="stop-color:#ffffff;stop-opacity:1" />
		</linearGradient>
		<linearGradient id="grad30-104" v:fillPattern="30" v:foreground="#efaf7a" v:background="#f2bf96" x1="0" y1="1" x2="0" y2="0">
			<stop offset="0" style="stop-color:#efaf7a;stop-opacity:1" />
			<stop offset="1" style="stop-color:#f2bf96;stop-opacity:1" />
		</linearGradient>
		<linearGradient id="grad30-150" v:fillPattern="30" v:foreground="#efaf7a" v:foregroundOpacity="0.7" v:background="#f2bf96" v:backgroundOpacity="0.7" x1="0" y1="1" x2="0" y2="0">
			<stop offset="0" style="stop-color:#efaf7a;stop-opacity:0.7" />
			<stop offset="1" style="stop-color:#f2bf96;stop-opacity:0.7" />
		</linearGradient>
	</defs>
	<g v:mID="0" v:index="1" v:groupContext="foregroundPage">
		<v:userDefs>
			<v:ud v:nameU="msvThemeColors" v:val="VT0(36):26" />
			<v:ud v:nameU="msvThemeEffects" v:val="VT0(16):26" />
			<v:ud v:nameU="msvThemeOrder" v:val="VT0(0):26" />
		</v:userDefs>
		<title>Page-1</title>
		<v:pageProperties v:drawingScale="1" v:pageScale="1" v:drawingUnits="0" v:shadowOffsetX="9" v:shadowOffsetY="-9" />
		<v:layer v:name="A Flowchart" v:index="0" />
		<v:layer v:name="Connector" v:index="1" />
		<v:layer v:name="STOR_A_1b-FC1 red" v:index="2" />
		<v:layer v:name="A label" v:index="3" />
		<v:layer v:index="4" visibility="hidden" v:print="false" v:snap="false" v:glue="false" />
		<v:layer v:index="5" visibility="hidden" v:print="false" v:snap="false" v:glue="false" />
		<v:layer v:index="6" visibility="hidden" v:print="false" v:snap="false" v:glue="false" />
		<v:layer v:index="7" visibility="hidden" v:print="false" v:snap="false" v:glue="false" />
		<v:layer v:index="8" visibility="hidden" v:print="false" v:snap="false" v:glue="false" />
		<v:layer v:name="STOR_A_1b-FC2 brown" v:index="9" />
		<v:layer v:name="A switches tc" v:index="10" />
		<g id="shape163-1" v:mID="163" v:groupContext="shape" v:layerMember="10" transform="translate(16.125,-18)">
			<title>Rounded rectangle</title>
			<v:userDefs>
				<v:ud v:nameU="visVersion" v:val="VT0(14):26" />
				<v:ud v:nameU="msvThemeColors" v:val="VT0(36):26" />
				<v:ud v:nameU="msvThemeEffects" v:val="VT0(16):26" />
			</v:userDefs>
			<g id="shadow163-2" v:groupContext="shadow" v:shadowOffsetX="1.44" v:shadowOffsetY="-1.44" v:shadowType="1" transform="matrix(1,0,0,1,1.44,1.44)" class="st1">
				<path d="M363.83 468 A14.1733 14.1733 -180 0 0 378 453.83 L378 49.61 A14.1733 14.1733 -180 0 0 363.83 35.44 L14.17         35.44 A14.1733 14.1733 -180 0 0 -0 49.61 L0 453.83 A14.1733 14.1733 -180 0 0 14.17 468 L363.83 468 Z" class="st2" />
			</g>
			<path d="M363.83 468 A14.1733 14.1733 -180 0 0 378 453.83 L378 49.61 A14.1733 14.1733 -180 0 0 363.83 35.44 L14.17 35.44        A14.1733 14.1733 -180 0 0 -0 49.61 L0 453.83 A14.1733 14.1733 -180 0 0 14.17 468 L363.83 468 Z" class="st3" />
		</g>
		<g id="shape27-7" v:mID="27" v:groupContext="shape" v:layerMember="10" transform="translate(83.375,-342)">
			<title>Rounded rectangle.27</title>
			<desc>FC_switch_A_1</desc>
			<v:userDefs>
				<v:ud v:nameU="visVersion" v:val="VT0(14):26" />
				<v:ud v:nameU="msvThemeColors" v:val="VT0(36):26" />
				<v:ud v:nameU="msvThemeEffects" v:val="VT0(16):26" />
			</v:userDefs>
			<v:textBlock v:margins="rect(4,4,4,4)" v:tabSpace="42.5197" />
			<v:textRect cx="119.25" cy="439.875" width="238.5" height="56.25" />
			<g id="shadow27-8" v:groupContext="shadow" v:shadowOffsetX="1.44" v:shadowOffsetY="-1.44" v:shadowType="1" transform="matrix(1,0,0,1,1.44,1.44)" class="st1">
				<path d="M224.33 468 A14.1733 14.1733 -180 0 0 238.5 453.83 L238.5 425.92 A14.1733 14.1733 -180 0 0 224.33 411.75         L14.17 411.75 A14.1733 14.1733 -180 0 0 0 425.92 L0 453.83 A14.1733 14.1733 -180 0 0 14.17 468 L224.33         468 Z" class="st2" />
			</g>
			<path d="M224.33 468 A14.1733 14.1733 -180 0 0 238.5 453.83 L238.5 425.92 A14.1733 14.1733 -180 0 0 224.33 411.75 L14.17        411.75 A14.1733 14.1733 -180 0 0 0 425.92 L0 453.83 A14.1733 14.1733 -180 0 0 14.17 468 L224.33 468 Z" class="st4" />
			<text x="94.1" y="442.27" class="st5" v:langID="1033"><v:paragraph v:horizAlign="1" /><v:tabList />FC_switch_A_1</text>		</g>
		<g id="group41-14" transform="translate(87.875,-234)" v:mID="41" v:groupContext="group" v:layerMember="10">
			<v:userDefs>
				<v:ud v:nameU="msvThemeColors" v:val="VT0(36):26" />
				<v:ud v:nameU="msvThemeEffects" v:val="VT0(16):26" />
			</v:userDefs>
			<title>Sheet.41</title>
			<g id="shape42-15" v:mID="42" v:groupContext="shape" v:layerMember="10">
				<title>Rounded rectangle</title>
				<desc>FC_switch_A_2</desc>
				<v:userDefs>
					<v:ud v:nameU="visVersion" v:val="VT0(14):26" />
					<v:ud v:nameU="msvThemeColors" v:val="VT0(36):26" />
					<v:ud v:nameU="msvThemeEffects" v:val="VT0(16):26" />
				</v:userDefs>
				<v:textBlock v:margins="rect(4,4,4,4)" v:tabSpace="42.5197" />
				<v:textRect cx="117" cy="439.875" width="234" height="56.25" />
				<g id="shadow42-16" v:groupContext="shadow" v:shadowOffsetX="1.44" v:shadowOffsetY="-1.44" v:shadowType="1" transform="matrix(1,0,0,1,1.44,1.44)" class="st1">
					<path d="M219.83 468 A14.1733 14.1733 -180 0 0 234 453.83 L234 425.92 A14.1733 14.1733 -180 0 0 219.83 411.75          L14.17 411.75 A14.1733 14.1733 -180 0 0 0 425.92 L0 453.83 A14.1733 14.1733 -180 0 0 14.17 468 L219.83          468 Z" class="st2" />
				</g>
				<path d="M219.83 468 A14.1733 14.1733 -180 0 0 234 453.83 L234 425.92 A14.1733 14.1733 -180 0 0 219.83 411.75 L14.17         411.75 A14.1733 14.1733 -180 0 0 0 425.92 L0 453.83 A14.1733 14.1733 -180 0 0 14.17 468 L219.83 468         Z" class="st4" />
				<text x="91.85" y="442.27" class="st5" v:langID="1033"><v:paragraph v:horizAlign="1" /><v:tabList />FC_switch_A_2</text>			</g>
		</g>
		<g id="group17-21" transform="translate(99.25,-9)" v:mID="17" v:groupContext="group">
			<v:userDefs>
				<v:ud v:nameU="msvThemeColors" v:val="VT0(36):26" />
				<v:ud v:nameU="msvThemeEffects" v:val="VT0(16):26" />
			</v:userDefs>
			<title>Sheet.17</title>
		</g>
		<g id="group90-22" transform="translate(108.365,5.06843)" v:mID="90" v:groupContext="group" v:layerMember="10">
			<v:userDefs>
				<v:ud v:nameU="msvThemeColors" v:val="VT0(36):26" />
				<v:ud v:nameU="msvThemeEffects" v:val="VT0(16):26" />
			</v:userDefs>
			<title>Sheet.90</title>
		</g>
		<g id="group14-23" transform="translate(321.875,-243)" v:mID="14" v:groupContext="group">
			<v:userDefs>
				<v:ud v:nameU="msvThemeColors" v:val="VT0(36):26" />
				<v:ud v:nameU="msvThemeEffects" v:val="VT0(16):26" />
			</v:userDefs>
			<title>Sheet.14</title>
			<g id="shape141-24" v:mID="141" v:groupContext="shape" v:layerMember="10" transform="translate(0,-108)">
				<title>45 degree double.141</title>
				<v:userDefs>
					<v:ud v:nameU="visVersion" v:val="VT0(14):26" />
					<v:ud v:nameU="msvThemeColors" v:val="VT0(36):26" />
					<v:ud v:nameU="msvThemeEffects" v:val="VT0(16):26" />
				</v:userDefs>
				<g id="shadow141-25" v:groupContext="shadow" v:shadowOffsetX="1.44" v:shadowOffsetY="-1.44" v:shadowType="1" transform="matrix(1,0,0,1,1.44,1.44)" class="st1">
					<path d="M0 459 L9 450 L9 455.94 L81 455.94 L81 450 L90 459 L81 468 L81 462.06 L9 462.06 L9 468 L0 459 Z" class="st2" />
				</g>
				<path d="M0 459 L9 450 L9 455.94 L81 455.94 L81 450 L90 459 L81 468 L81 462.06 L9 462.06 L9 468 L0 459 Z" class="st4" />
			</g>
			<g id="shape140-29" v:mID="140" v:groupContext="shape" v:layerMember="10" transform="translate(0.287894,-130.5)">
				<title>45 degree double</title>
				<v:userDefs>
					<v:ud v:nameU="visVersion" v:val="VT0(14):26" />
					<v:ud v:nameU="msvThemeColors" v:val="VT0(36):26" />
					<v:ud v:nameU="msvThemeEffects" v:val="VT0(16):26" />
				</v:userDefs>
				<g id="shadow140-30" v:groupContext="shadow" v:shadowOffsetX="1.44" v:shadowOffsetY="-1.44" v:shadowType="1" transform="matrix(1,0,0,1,1.44,1.44)" class="st1">
					<path d="M0 459 L9 450 L9 455.94 L80.71 455.94 L80.71 450 L89.71 459 L80.71 468 L80.71 462.06 L9 462.06 L9 468          L0 459 Z" class="st2" />
				</g>
				<path d="M0 459 L9 450 L9 455.94 L80.71 455.94 L80.71 450 L89.71 459 L80.71 468 L80.71 462.06 L9 462.06 L9 468 L0         459 Z" class="st4" />
			</g>
			<g id="shape142-34" v:mID="142" v:groupContext="shape" v:layerMember="10" transform="translate(0,-22.5)">
				<title>45 degree double.142</title>
				<v:userDefs>
					<v:ud v:nameU="visVersion" v:val="VT0(14):26" />
					<v:ud v:nameU="msvThemeColors" v:val="VT0(36):26" />
					<v:ud v:nameU="msvThemeEffects" v:val="VT0(16):26" />
				</v:userDefs>
				<g id="shadow142-35" v:groupContext="shadow" v:shadowOffsetX="1.44" v:shadowOffsetY="-1.44" v:shadowType="1" transform="matrix(1,0,0,1,1.44,1.44)" class="st1">
					<path d="M0 459 L9 450 L9 455.94 L80.71 455.94 L80.71 450 L89.71 459 L80.71 468 L80.71 462.06 L9 462.06 L9 468          L0 459 Z" class="st2" />
				</g>
				<path d="M0 459 L9 450 L9 455.94 L80.71 455.94 L80.71 450 L89.71 459 L80.71 468 L80.71 462.06 L9 462.06 L9 468 L0         459 Z" class="st4" />
			</g>
			<g id="shape143-39" v:mID="143" v:groupContext="shape" v:layerMember="10" transform="translate(0.287894,0)">
				<title>45 degree double.143</title>
				<v:userDefs>
					<v:ud v:nameU="visVersion" v:val="VT0(14):26" />
					<v:ud v:nameU="msvThemeColors" v:val="VT0(36):26" />
					<v:ud v:nameU="msvThemeEffects" v:val="VT0(16):26" />
				</v:userDefs>
				<g id="shadow143-40" v:groupContext="shadow" v:shadowOffsetX="1.44" v:shadowOffsetY="-1.44" v:shadowType="1" transform="matrix(1,0,0,1,1.44,1.44)" class="st1">
					<path d="M0 459 L9 450 L9 455.94 L80.71 455.94 L80.71 450 L89.71 459 L80.71 468 L80.71 462.06 L9 462.06 L9 468          L0 459 Z" class="st2" />
				</g>
				<path d="M0 459 L9 450 L9 455.94 L80.71 455.94 L80.71 450 L89.71 459 L80.71 468 L80.71 462.06 L9 462.06 L9 468 L0         459 Z" class="st4" />
			</g>
		</g>
		<g id="shape119-44" v:mID="119" v:groupContext="shape" v:layerMember="2" transform="translate(106.822,-40.8358)">
			<title>Dynamic connector.119</title>
			<v:userDefs>
				<v:ud v:nameU="msvThemeColors" v:val="VT0(36):26" />
				<v:ud v:nameU="msvThemeEffects" v:val="VT0(16):26" />
			</v:userDefs>
			<path d="M0 468 L0 477.34 L262.55 477.34 L262.55 176.73 L117.65 176.73 L117.65 218.59" class="st6" />
		</g>
		<g id="shape144-48" v:mID="144" v:groupContext="shape" v:layerMember="10" transform="translate(141.875,-433.69)">
			<title>Sheet.144</title>
			<desc>site_A</desc>
			<v:userDefs>
				<v:ud v:nameU="msvThemeColors" v:val="VT0(36):26" />
				<v:ud v:nameU="msvThemeEffects" v:val="VT0(16):26" />
			</v:userDefs>
			<v:textBlock v:margins="rect(2,2,2,2)" />
			<v:textRect cx="54" cy="463.5" width="108" height="9" />
			<rect x="0" y="459" width="108" height="9" class="st7" />
			<text x="38.41" y="467.1" class="st8" v:langID="1033"><v:paragraph v:horizAlign="1" /><v:tabList />site_A</text>		</g>
		<g id="shape15-51" v:mID="15" v:groupContext="shape" transform="translate(411.875,-231.75)">
			<title>Rectangle</title>
			<desc>site_B</desc>
			<v:userDefs>
				<v:ud v:nameU="visVersion" v:val="VT0(14):26" />
				<v:ud v:nameU="msvThemeColors" v:val="VT0(36):26" />
				<v:ud v:nameU="msvThemeEffects" v:val="VT0(16):26" />
			</v:userDefs>
			<v:textBlock v:margins="rect(2,2,2,2)" />
			<v:textRect cx="18" cy="382.5" width="36" height="171" transform="rotate(-90)" />
			<g id="shadow15-52" v:groupContext="shadow" v:shadowOffsetX="1.44" v:shadowOffsetY="-1.44" v:shadowType="1" transform="matrix(1,0,0,1,1.44,1.44)" class="st1">
				<rect x="0" y="297" width="36" height="171" class="st2" />
			</g>
			<rect x="0" y="297" width="36" height="171" class="st4" />
			<text x="-397.82" y="21.6" transform="rotate(-90)" class="st8" v:langID="1033"><v:paragraph v:horizAlign="1" /><v:tabList />site_B</text>		</g>
		<g id="shape2-57" v:mID="2" v:groupContext="shape" v:layerMember="1" transform="translate(74.1517,-216)">
			<title>Dynamic connector.2</title>
			<v:userDefs>
				<v:ud v:nameU="msvThemeColors" v:val="VT0(36):26" />
				<v:ud v:nameU="msvThemeEffects" v:val="VT0(16):26" />
			</v:userDefs>
			<path d="M0 468 L0 276.3 L149.69 276.3 L149.69 285.75" class="st9" />
		</g>
		<g id="shape6-61" v:mID="6" v:groupContext="shape" transform="translate(454.25,-120.872)">
			<title>Sheet.6</title>
			<v:userDefs>
				<v:ud v:nameU="msvThemeColors" v:val="VT0(36):26" />
				<v:ud v:nameU="msvThemeEffects" v:val="VT0(16):26" />
			</v:userDefs>
			<rect x="0" y="456" width="100" height="12" class="st7" />
		</g>
		<g id="group12-63" transform="translate(175.875,9)" v:mID="12" v:groupContext="group">
			<v:userDefs>
				<v:ud v:nameU="msvThemeColors" v:val="VT0(36):26" />
				<v:ud v:nameU="msvThemeEffects" v:val="VT0(16):26" />
			</v:userDefs>
			<title>Sheet.12</title>
		</g>
		<g id="group16-64" transform="translate(175.875,9)" v:mID="16" v:groupContext="group">
			<v:userDefs>
				<v:ud v:nameU="msvThemeColors" v:val="VT0(36):26" />
				<v:ud v:nameU="msvThemeEffects" v:val="VT0(16):26" />
			</v:userDefs>
			<title>Sheet.16</title>
		</g>
		<g id="group95-65" transform="translate(94.806,-108)" v:mID="95" v:groupContext="group" v:layerMember="10">
			<v:userDefs>
				<v:ud v:nameU="msvThemeColors" v:val="VT0(36):26" />
				<v:ud v:nameU="msvThemeEffects" v:val="VT0(16):26" />
			</v:userDefs>
			<title>Sheet.95</title>
			<g id="shape94-66" v:mID="94" v:groupContext="shape" v:layerMember="10">
				<title>Ellipse</title>
				<desc>SAS stack</desc>
				<v:userDefs>
					<v:ud v:nameU="visVersion" v:val="VT0(14):26" />
					<v:ud v:nameU="msvThemeColors" v:val="VT0(36):26" />
					<v:ud v:nameU="msvThemeEffects" v:val="VT0(16):26" />
				</v:userDefs>
				<v:textBlock v:margins="rect(4,4,4,4)" v:tabSpace="42.5197" />
				<v:textRect cx="30.444" cy="448.497" width="53.28" height="34.1296" />
				<g id="shadow94-67" v:groupContext="shadow" v:shadowOffsetX="1.44" v:shadowOffsetY="-1.44" v:shadowType="1" transform="matrix(1,0,0,1,1.44,1.44)" class="st1">
					<path d="M0 448.5 A30.444 19.5026 0 1 1 60.89 448.5 A30.444 19.5026 0 0 1 0 448.5 Z" class="st2" />
				</g>
				<path d="M0 448.5 A30.444 19.5026 0 1 1 60.89 448.5 A30.444 19.5026 0 0 1 0 448.5 Z" class="st4" />
				<text x="14.78" y="450.9" class="st5" v:langID="1033"><v:paragraph v:horizAlign="1" /><v:tabList />SAS stack</text>			</g>
		</g>
		<g id="shape97-72" v:mID="97" v:groupContext="shape" v:layerMember="0" transform="translate(83.2389,-166.814)">
			<title>Dynamic connector.97</title>
			<v:userDefs>
				<v:ud v:nameU="msvThemeColors" v:val="VT0(36):26" />
				<v:ud v:nameU="msvThemeEffects" v:val="VT0(16):26" />
			</v:userDefs>
			<path d="M0 468 L0 481.06 L42.01 481.06 L42.01 487.81" class="st10" />
		</g>
		<g id="shape19-76" v:mID="19" v:groupContext="shape" v:layerMember="1" transform="translate(125.25,-108)">
			<title>Dynamic connector.19</title>
			<v:userDefs>
				<v:ud v:nameU="msvThemeColors" v:val="VT0(36):26" />
				<v:ud v:nameU="msvThemeEffects" v:val="VT0(16):26" />
			</v:userDefs>
			<path d="M0 468 L0 472.87 L-42.01 472.87 L-42.01 486.41" class="st10" />
		</g>
		<g id="group25-80" transform="translate(220.875,-61.0002)" v:mID="25" v:groupContext="group">
			<v:userDefs>
				<v:ud v:nameU="msvThemeColors" v:val="VT0(36):26" />
				<v:ud v:nameU="msvThemeEffects" v:val="VT0(16):26" />
			</v:userDefs>
			<title>Sheet.25</title>
			<g id="group26-81" transform="translate(37.056,-46.4948)" v:mID="26" v:groupContext="group" v:layerMember="10">
				<v:userDefs>
					<v:ud v:nameU="msvThemeColors" v:val="VT0(36):26" />
					<v:ud v:nameU="msvThemeEffects" v:val="VT0(16):26" />
				</v:userDefs>
				<title>Sheet.26</title>
				<g id="shape43-82" v:mID="43" v:groupContext="shape" v:layerMember="10">
					<title>Ellipse</title>
					<desc>SAS stack</desc>
					<v:userDefs>
						<v:ud v:nameU="visVersion" v:val="VT0(14):26" />
						<v:ud v:nameU="msvThemeColors" v:val="VT0(36):26" />
						<v:ud v:nameU="msvThemeEffects" v:val="VT0(16):26" />
					</v:userDefs>
					<v:textBlock v:margins="rect(4,4,4,4)" v:tabSpace="42.5197" />
					<v:textRect cx="30.444" cy="448.497" width="53.28" height="34.1296" />
					<g id="shadow43-83" v:groupContext="shadow" v:shadowOffsetX="1.44" v:shadowOffsetY="-1.44" v:shadowType="1" transform="matrix(1,0,0,1,1.44,1.44)" class="st1">
						<path d="M0 448.5 A30.444 19.5026 0 1 1 60.89 448.5 A30.444 19.5026 0 0 1 0 448.5 Z" class="st2" />
					</g>
					<path d="M0 448.5 A30.444 19.5026 0 1 1 60.89 448.5 A30.444 19.5026 0 0 1 0 448.5 Z" class="st4" />
					<text x="14.78" y="450.9" class="st5" v:langID="1033"><v:paragraph v:horizAlign="1" /><v:tabList />SAS stack</text>				</g>
			</g>
		</g>
		<g id="shape28-88" v:mID="28" v:groupContext="shape" v:layerMember="1" transform="translate(288.375,-146.5)">
			<title>Dynamic connector.28</title>
			<v:userDefs>
				<v:ud v:nameU="msvThemeColors" v:val="VT0(36):26" />
				<v:ud v:nameU="msvThemeEffects" v:val="VT0(16):26" />
			</v:userDefs>
			<path d="M0 468 L0 456.25 L-170.83 456.25 L-170.83 447.84" class="st10" />
		</g>
		<g id="shape29-92" v:mID="29" v:groupContext="shape" v:layerMember="1" transform="translate(249.842,-290.25)">
			<title>Dynamic connector</title>
			<v:userDefs>
				<v:ud v:nameU="msvThemeColors" v:val="VT0(36):26" />
				<v:ud v:nameU="msvThemeEffects" v:val="VT0(16):26" />
			</v:userDefs>
			<path d="M0 468 L0 441 L106.03 441 L106.03 536.62 L-143.82 536.62 L-143.82 542.25" class="st11" />
		</g>
		<g id="shape164-96" v:mID="164" v:groupContext="shape" transform="translate(486.312,-269.372)">
			<title>Sheet.164</title>
			<v:userDefs>
				<v:ud v:nameU="msvThemeColors" v:val="VT0(36):26" />
				<v:ud v:nameU="msvThemeEffects" v:val="VT0(16):26" />
			</v:userDefs>
			<rect x="0" y="456" width="100" height="12" class="st7" />
		</g>
		<g id="group165-98" transform="translate(45,-40.8358)" v:mID="165" v:groupContext="group">
			<v:userDefs>
				<v:ud v:nameU="msvThemeColors" v:val="VT0(36):26" />
				<v:ud v:nameU="msvThemeEffects" v:val="VT0(16):26" />
			</v:userDefs>
			<title>Sheet.165</title>
			<g id="shape166-99" v:mID="166" v:groupContext="shape" v:layerMember="10">
				<title>Rectangle.85</title>
				<desc>bridge_A_1b (7500N)</desc>
				<v:userDefs>
					<v:ud v:nameU="visVersion" v:val="VT0(14):26" />
					<v:ud v:nameU="msvThemeColors" v:val="VT0(36):26" />
					<v:ud v:nameU="msvThemeEffects" v:val="VT0(16):26" />
				</v:userDefs>
				<v:textBlock v:margins="rect(4,4,4,4)" v:verticalAlign="2" />
				<v:textRect cx="87.3125" cy="444.543" width="174.63" height="46.9142" />
				<g id="shadow166-100" v:groupContext="shadow" v:shadowOffsetX="1.44" v:shadowOffsetY="-1.44" v:shadowType="1" transform="matrix(1,0,0,1,1.44,1.44)" class="st1">
					<rect x="0" y="421.086" width="174.625" height="46.9142" class="st12" />
				</g>
				<rect x="0" y="421.086" width="174.625" height="46.9142" class="st13" />
				<text x="99.96" y="461.6" class="st5" v:langID="1033"><v:paragraph v:horizAlign="2" /><v:tabList />bridge_A_1b (7500N)</text>			</g>
			<g id="shape167-106" v:mID="167" v:groupContext="shape" v:layerMember="10" transform="translate(13.0201,0)">
				<title>Rectangle.91</title>
				<desc>FC1</desc>
				<v:userDefs>
					<v:ud v:nameU="visVersion" v:val="VT0(14):26" />
					<v:ud v:nameU="msvThemeColors" v:val="VT0(36):26" />
					<v:ud v:nameU="msvThemeEffects" v:val="VT0(16):26" />
				</v:userDefs>
				<v:textBlock v:margins="rect(4,4,4,4)" v:tabSpace="42.5197" />
				<v:textRect cx="13.3097" cy="458.408" width="26.62" height="19.1842" />
				<g id="shadow167-107" v:groupContext="shadow" v:shadowOffsetX="1.44" v:shadowOffsetY="-1.44" v:shadowType="1" transform="matrix(1,0,0,1,1.44,1.44)" class="st1">
					<rect x="0" y="448.816" width="26.6195" height="19.1842" class="st12" />
				</g>
				<rect x="0" y="448.816" width="26.6195" height="19.1842" class="st14" />
				<text x="7.31" y="460.81" class="st15" v:langID="1033"><v:paragraph v:horizAlign="1" /><v:tabList />FC1</text>			</g>
			<g id="group168-112" transform="translate(48.5127,0)" v:mID="168" v:groupContext="group" v:layerMember="10">
				<v:userDefs>
					<v:ud v:nameU="msvThemeColors" v:val="VT0(36):26" />
					<v:ud v:nameU="msvThemeEffects" v:val="VT0(16):26" />
				</v:userDefs>
				<title>Sheet.168</title>
				<g id="shape169-113" v:mID="169" v:groupContext="shape" v:layerMember="10">
					<title>Rectangle</title>
					<desc>FC2</desc>
					<v:userDefs>
						<v:ud v:nameU="visVersion" v:val="VT0(14):26" />
						<v:ud v:nameU="msvThemeColors" v:val="VT0(36):26" />
						<v:ud v:nameU="msvThemeEffects" v:val="VT0(16):26" />
					</v:userDefs>
					<v:textBlock v:margins="rect(4,4,4,4)" v:tabSpace="42.5197" />
					<v:textRect cx="13.3097" cy="458.408" width="26.62" height="19.1842" />
					<g id="shadow169-114" v:groupContext="shadow" v:shadowOffsetX="1.44" v:shadowOffsetY="-1.44" v:shadowType="1" transform="matrix(1,0,0,1,1.44,1.44)" class="st1">
						<rect x="0" y="448.816" width="26.6195" height="19.1842" class="st12" />
					</g>
					<rect x="0" y="448.816" width="26.6195" height="19.1842" class="st16" />
					<text x="7.31" y="460.81" class="st15" v:langID="1033"><v:paragraph v:horizAlign="1" /><v:tabList />FC2</text>				</g>
			</g>
			<g id="group170-119" transform="translate(16.875,-29.2738)" v:mID="170" v:groupContext="group" v:layerMember="10">
				<v:userDefs>
					<v:ud v:nameU="msvThemeColors" v:val="VT0(36):26" />
					<v:ud v:nameU="msvThemeEffects" v:val="VT0(16):26" />
				</v:userDefs>
				<title>Sheet.170</title>
				<g id="shape171-120" v:mID="171" v:groupContext="shape" v:layerMember="10" transform="translate(-0.137369,0.43341)">
					<title>Rectangle</title>
					<desc>SAS A</desc>
					<v:userDefs>
						<v:ud v:nameU="visVersion" v:val="VT0(14):26" />
						<v:ud v:nameU="msvThemeColors" v:val="VT0(36):26" />
						<v:ud v:nameU="msvThemeEffects" v:val="VT0(16):26" />
					</v:userDefs>
					<v:textBlock v:margins="rect(4,4,4,4)" v:tabSpace="42.5197" />
					<v:textRect cx="16.6469" cy="459.153" width="33.3" height="17.6949" />
					<g id="shadow171-121" v:groupContext="shadow" v:shadowOffsetX="1.44" v:shadowOffsetY="-1.44" v:shadowType="1" transform="matrix(1,0,0,1,1.44,1.44)" class="st1">
						<rect x="0" y="450.305" width="33.2938" height="17.6949" class="st12" />
					</g>
					<rect x="0" y="450.305" width="33.2938" height="17.6949" class="st17" />
					<text x="7.44" y="461.55" class="st15" v:langID="1033"><v:paragraph v:horizAlign="1" /><v:tabList />SAS A</text>				</g>
			</g>
			<g id="shape172-126" v:mID="172" v:groupContext="shape" v:layerMember="10" transform="translate(55.1983,-28.6728)">
				<title>Rectangle.7</title>
				<desc>SAS B</desc>
				<v:userDefs>
					<v:ud v:nameU="visVersion" v:val="VT0(14):26" />
					<v:ud v:nameU="msvThemeColors" v:val="VT0(36):26" />
					<v:ud v:nameU="msvThemeEffects" v:val="VT0(16):26" />
				</v:userDefs>
				<v:textBlock v:margins="rect(4,4,4,4)" v:tabSpace="42.5197" />
				<v:textRect cx="16.6397" cy="459.153" width="33.28" height="17.6949" />
				<g id="shadow172-127" v:groupContext="shadow" v:shadowOffsetX="1.44" v:shadowOffsetY="-1.44" v:shadowType="1" transform="matrix(1,0,0,1,1.44,1.44)" class="st1">
					<rect x="0" y="450.305" width="33.2793" height="17.6949" class="st12" />
				</g>
				<rect x="0" y="450.305" width="33.2793" height="17.6949" class="st17" />
				<text x="7.57" y="461.55" class="st15" v:langID="1033"><v:paragraph v:horizAlign="1" /><v:tabList />SAS B</text>			</g>
			<g id="shape173-132" v:mID="173" v:groupContext="shape" v:layerMember="10" transform="translate(93.0845,-28.8404)">
				<title>Rectangle.8</title>
				<desc>SAS C</desc>
				<v:userDefs>
					<v:ud v:nameU="visVersion" v:val="VT0(14):26" />
					<v:ud v:nameU="msvThemeColors" v:val="VT0(36):26" />
					<v:ud v:nameU="msvThemeEffects" v:val="VT0(16):26" />
				</v:userDefs>
				<v:textBlock v:margins="rect(4,4,4,4)" v:tabSpace="42.5197" />
				<v:textRect cx="16.6397" cy="459.153" width="33.28" height="17.6949" />
				<g id="shadow173-133" v:groupContext="shadow" v:shadowOffsetX="1.44" v:shadowOffsetY="-1.44" v:shadowType="1" transform="matrix(1,0,0,1,1.44,1.44)" class="st1">
					<rect x="0" y="450.305" width="33.2793" height="17.6949" class="st12" />
				</g>
				<rect x="0" y="450.305" width="33.2793" height="17.6949" class="st17" />
				<text x="7.61" y="461.55" class="st15" v:langID="1033"><v:paragraph v:horizAlign="1" /><v:tabList />SAS C</text>			</g>
			<g id="shape174-138" v:mID="174" v:groupContext="shape" v:layerMember="10" transform="translate(130.971,-28.9142)">
				<title>Rectangle.9</title>
				<desc>SAS D</desc>
				<v:userDefs>
					<v:ud v:nameU="visVersion" v:val="VT0(14):26" />
					<v:ud v:nameU="msvThemeColors" v:val="VT0(36):26" />
					<v:ud v:nameU="msvThemeEffects" v:val="VT0(16):26" />
				</v:userDefs>
				<v:textBlock v:margins="rect(4,4,4,4)" v:tabSpace="42.5197" />
				<v:textRect cx="16.6397" cy="459.153" width="33.28" height="17.6949" />
				<g id="shadow174-139" v:groupContext="shadow" v:shadowOffsetX="1.44" v:shadowOffsetY="-1.44" v:shadowType="1" transform="matrix(1,0,0,1,1.44,1.44)" class="st1">
					<rect x="0" y="450.305" width="33.2793" height="17.6949" class="st12" />
				</g>
				<rect x="0" y="450.305" width="33.2793" height="17.6949" class="st17" />
				<text x="7.28" y="461.55" class="st15" v:langID="1033"><v:paragraph v:horizAlign="1" /><v:tabList />SAS D</text>			</g>
		</g>
		<g id="group3-144" transform="translate(45,-168.698)" v:mID="3" v:groupContext="group">
			<v:userDefs>
				<v:ud v:nameU="msvThemeColors" v:val="VT0(36):26" />
				<v:ud v:nameU="msvThemeEffects" v:val="VT0(16):26" />
			</v:userDefs>
			<title>Sheet.3</title>
			<g id="shape4-145" v:mID="4" v:groupContext="shape" v:layerMember="10">
				<title>Rectangle.85</title>
				<desc>bridge_A_1a (7500N)</desc>
				<v:userDefs>
					<v:ud v:nameU="visVersion" v:val="VT0(14):26" />
					<v:ud v:nameU="msvThemeColors" v:val="VT0(36):26" />
					<v:ud v:nameU="msvThemeEffects" v:val="VT0(16):26" />
				</v:userDefs>
				<v:textBlock v:margins="rect(4,4,4,4)" v:tabSpace="42.5197" v:verticalAlign="0" />
				<v:textRect cx="87.875" cy="444.392" width="175.75" height="47.2164" />
				<g id="shadow4-146" v:groupContext="shadow" v:shadowOffsetX="1.44" v:shadowOffsetY="-1.44" v:shadowType="1" transform="matrix(1,0,0,1,1.44,1.44)" class="st1">
					<rect x="0" y="420.784" width="175.75" height="47.2164" class="st12" />
				</g>
				<rect x="0" y="420.784" width="175.75" height="47.2164" class="st18" />
				<text x="101.43" y="431.98" class="st5" v:langID="1033"><v:paragraph v:horizAlign="2" /><v:tabList />bridge_A_1a (7500N)</text>			</g>
			<g id="group5-152" transform="translate(16.8708,-29.6003)" v:mID="5" v:groupContext="group" v:layerMember="10">
				<v:userDefs>
					<v:ud v:nameU="msvThemeColors" v:val="VT0(36):26" />
					<v:ud v:nameU="msvThemeEffects" v:val="VT0(16):26" />
				</v:userDefs>
				<title>Sheet.5</title>
				<g id="shape7-153" v:mID="7" v:groupContext="shape" v:layerMember="10">
					<title>Rectangle</title>
					<desc>FC1</desc>
					<v:userDefs>
						<v:ud v:nameU="visVersion" v:val="VT0(14):26" />
						<v:ud v:nameU="msvThemeColors" v:val="VT0(36):26" />
						<v:ud v:nameU="msvThemeEffects" v:val="VT0(16):26" />
					</v:userDefs>
					<v:textBlock v:margins="rect(4,4,4,4)" v:tabSpace="42.5197" />
					<v:textRect cx="12.2809" cy="459.149" width="24.57" height="17.7013" />
					<g id="shadow7-154" v:groupContext="shadow" v:shadowOffsetX="1.44" v:shadowOffsetY="-1.44" v:shadowType="1" transform="matrix(1,0,0,1,1.44,1.44)" class="st1">
						<rect x="0" y="450.299" width="24.5618" height="17.7013" class="st12" />
					</g>
					<rect x="0" y="450.299" width="24.5618" height="17.7013" class="st19" />
					<text x="6.28" y="461.55" class="st15" v:langID="1033"><v:paragraph v:horizAlign="1" /><v:tabList />FC1</text>				</g>
			</g>
			<g id="group8-159" transform="translate(48.7442,-29.6003)" v:mID="8" v:groupContext="group" v:layerMember="10">
				<v:userDefs>
					<v:ud v:nameU="msvThemeColors" v:val="VT0(36):26" />
					<v:ud v:nameU="msvThemeEffects" v:val="VT0(16):26" />
				</v:userDefs>
				<title>Sheet.8</title>
				<g id="shape9-160" v:mID="9" v:groupContext="shape" v:layerMember="10">
					<title>Rectangle</title>
					<desc>FC2</desc>
					<v:userDefs>
						<v:ud v:nameU="visVersion" v:val="VT0(14):26" />
						<v:ud v:nameU="msvThemeColors" v:val="VT0(36):26" />
						<v:ud v:nameU="msvThemeEffects" v:val="VT0(16):26" />
					</v:userDefs>
					<v:textBlock v:margins="rect(4,4,4,4)" v:tabSpace="42.5197" />
					<v:textRect cx="12.2809" cy="459.149" width="24.57" height="17.7013" />
					<g id="shadow9-161" v:groupContext="shadow" v:shadowOffsetX="1.44" v:shadowOffsetY="-1.44" v:shadowType="1" transform="matrix(1,0,0,1,1.44,1.44)" class="st1">
						<rect x="0" y="450.299" width="24.5618" height="17.7013" class="st12" />
					</g>
					<rect x="0" y="450.299" width="24.5618" height="17.7013" class="st20" />
					<text x="6.28" y="461.55" class="st15" v:langID="1033"><v:paragraph v:horizAlign="1" /><v:tabList />FC2</text>				</g>
			</g>
			<g id="group11-166" transform="translate(14.6233,-0.768873)" v:mID="11" v:groupContext="group" v:layerMember="10">
				<v:userDefs>
					<v:ud v:nameU="msvThemeColors" v:val="VT0(36):26" />
					<v:ud v:nameU="msvThemeEffects" v:val="VT0(16):26" />
				</v:userDefs>
				<title>Sheet.11</title>
				<g id="shape30-167" v:mID="30" v:groupContext="shape" v:layerMember="10" transform="translate(-0.130989,0.433565)">
					<title>Rectangle</title>
					<desc>SAS A</desc>
					<v:userDefs>
						<v:ud v:nameU="visVersion" v:val="VT0(14):26" />
						<v:ud v:nameU="msvThemeColors" v:val="VT0(36):26" />
						<v:ud v:nameU="msvThemeEffects" v:val="VT0(16):26" />
					</v:userDefs>
					<v:textBlock v:margins="rect(4,4,4,4)" v:tabSpace="42.5197" />
					<v:textRect cx="15.8737" cy="459.149" width="31.75" height="17.7013" />
					<g id="shadow30-168" v:groupContext="shadow" v:shadowOffsetX="1.44" v:shadowOffsetY="-1.44" v:shadowType="1" transform="matrix(1,0,0,1,1.44,1.44)" class="st1">
						<rect x="0" y="450.299" width="31.7475" height="17.7013" class="st12" />
					</g>
					<rect x="0" y="450.299" width="31.7475" height="17.7013" class="st21" />
					<text x="6.66" y="461.55" class="st15" v:langID="1033"><v:paragraph v:horizAlign="1" /><v:tabList />SAS A</text>				</g>
			</g>
			<g id="shape32-173" v:mID="32" v:groupContext="shape" v:layerMember="10" transform="translate(56.0559,-0.167654)">
				<title>Rectangle.7</title>
				<desc>SAS B</desc>
				<v:userDefs>
					<v:ud v:nameU="visVersion" v:val="VT0(14):26" />
					<v:ud v:nameU="msvThemeColors" v:val="VT0(36):26" />
					<v:ud v:nameU="msvThemeEffects" v:val="VT0(16):26" />
				</v:userDefs>
				<v:textBlock v:margins="rect(4,4,4,4)" v:tabSpace="42.5197" />
				<v:textRect cx="15.8668" cy="459.149" width="31.74" height="17.7013" />
				<g id="shadow32-174" v:groupContext="shadow" v:shadowOffsetX="1.44" v:shadowOffsetY="-1.44" v:shadowType="1" transform="matrix(1,0,0,1,1.44,1.44)" class="st1">
					<rect x="0" y="450.299" width="31.7337" height="17.7013" class="st12" />
				</g>
				<rect x="0" y="450.299" width="31.7337" height="17.7013" class="st21" />
				<text x="6.8" y="461.55" class="st15" v:langID="1033"><v:paragraph v:horizAlign="1" /><v:tabList />SAS B</text>			</g>
			<g id="shape33-179" v:mID="33" v:groupContext="shape" v:layerMember="10" transform="translate(96.2449,-0.335309)">
				<title>Rectangle.8</title>
				<desc>SAS C</desc>
				<v:userDefs>
					<v:ud v:nameU="visVersion" v:val="VT0(14):26" />
					<v:ud v:nameU="msvThemeColors" v:val="VT0(36):26" />
					<v:ud v:nameU="msvThemeEffects" v:val="VT0(16):26" />
				</v:userDefs>
				<v:textBlock v:margins="rect(4,4,4,4)" v:tabSpace="42.5197" />
				<v:textRect cx="15.8668" cy="459.149" width="31.74" height="17.7013" />
				<g id="shadow33-180" v:groupContext="shadow" v:shadowOffsetX="1.44" v:shadowOffsetY="-1.44" v:shadowType="1" transform="matrix(1,0,0,1,1.44,1.44)" class="st1">
					<rect x="0" y="450.299" width="31.7337" height="17.7013" class="st12" />
				</g>
				<rect x="0" y="450.299" width="31.7337" height="17.7013" class="st21" />
				<text x="6.84" y="461.55" class="st15" v:langID="1033"><v:paragraph v:horizAlign="1" /><v:tabList />SAS C</text>			</g>
			<g id="shape34-185" v:mID="34" v:groupContext="shape" v:layerMember="10" transform="translate(134.921,-0.167654)">
				<title>Rectangle.9</title>
				<desc>SAS D</desc>
				<v:userDefs>
					<v:ud v:nameU="visVersion" v:val="VT0(14):26" />
					<v:ud v:nameU="msvThemeColors" v:val="VT0(36):26" />
					<v:ud v:nameU="msvThemeEffects" v:val="VT0(16):26" />
				</v:userDefs>
				<v:textBlock v:margins="rect(4,4,4,4)" v:tabSpace="42.5197" />
				<v:textRect cx="15.8668" cy="459.149" width="31.74" height="17.7013" />
				<g id="shadow34-186" v:groupContext="shadow" v:shadowOffsetX="1.44" v:shadowOffsetY="-1.44" v:shadowType="1" transform="matrix(1,0,0,1,1.44,1.44)" class="st1">
					<rect x="0" y="450.299" width="31.7337" height="17.7013" class="st12" />
				</g>
				<rect x="0" y="450.299" width="31.7337" height="17.7013" class="st21" />
				<text x="6.51" y="461.55" class="st15" v:langID="1033"><v:paragraph v:horizAlign="1" /><v:tabList />SAS D</text>			</g>
		</g>
		<g id="shape13-191" v:mID="13" v:groupContext="shape" v:layerMember="1" transform="translate(249.81,-398.25)">
			<title>Dynamic connector.13</title>
			<v:userDefs>
				<v:ud v:nameU="msvThemeColors" v:val="VT0(36):26" />
				<v:ud v:nameU="msvThemeEffects" v:val="VT0(16):26" />
			</v:userDefs>
			<path d="M0 468 L0 449.55 L-221.91 449.55 L-221.91 835.71 L-178.48 835.71 L-178.48 825.41" class="st22" />
		</g>
		<g id="shape18-195" v:mID="18" v:groupContext="shape" v:layerMember="1" transform="translate(288.375,-107.495)">
			<title>Dynamic connector.18</title>
			<v:userDefs>
				<v:ud v:nameU="msvThemeColors" v:val="VT0(36):26" />
				<v:ud v:nameU="msvThemeEffects" v:val="VT0(16):26" />
			</v:userDefs>
			<path d="M0 468 L0 479.29 L-171.54 479.29 L-171.54 488.29" class="st10" />
		</g>
	</g>
</svg>
