<?xml version="1.0" encoding="UTF-8" standalone="no"?>
<!DOCTYPE svg PUBLIC "-//W3C//DTD SVG 1.0//EN" "http://www.w3.org/TR/2001/REC-SVG-20010904/DTD/svg10.dtd">
<!-- Generated by Microsoft Visio 11.0, SVG Export, v1.0 Consolidating stacks - 2nd 7500N in place=removed port number.svg Page-1 -->
<svg xmlns="http://www.w3.org/2000/svg" xmlns:xlink="http://www.w3.org/1999/xlink" xmlns:ev="http://www.w3.org/2001/xml-events"
		xmlns:v="http://schemas.microsoft.com/visio/2003/SVGExtensions/" width="10.4913in" height="6.56988in"
		viewBox="0 0 755.372 473.031" xml:space="preserve" color-interpolation-filters="sRGB" class="st28">
	<v:documentProperties v:langID="1033" v:viewMarkup="false">
		<v:userDefs>
			<v:ud v:nameU="msvNoAutoConnect" v:val="VT0(0):26"/>
		</v:userDefs>
	</v:documentProperties>

	<style type="text/css">
	<![CDATA[
		.st1 {visibility:visible}
		.st2 {fill:#cdcdcd;fill-opacity:0.5;stroke:#cdcdcd;stroke-linecap:round;stroke-linejoin:round;stroke-opacity:0.5;stroke-width:0.25}
		.st3 {fill:url(#grad30-6);stroke:#404040;stroke-linecap:round;stroke-linejoin:round;stroke-width:0.25}
		.st4 {fill:url(#grad30-12);stroke:#404040;stroke-linecap:round;stroke-linejoin:round;stroke-width:0.25}
		.st5 {fill:#000000;font-family:Calibri;font-size:0.666664em;font-weight:bold}
		.st6 {stroke:#00b050;stroke-linecap:round;stroke-linejoin:round;stroke-width:1.5}
		.st7 {fill:none;stroke:none;stroke-linecap:round;stroke-linejoin:round;stroke-width:0.25}
		.st8 {fill:#000000;font-family:Calibri;font-size:1.00001em;font-weight:bold}
		.st9 {stroke:#404040;stroke-linecap:round;stroke-linejoin:round;stroke-width:1}
		.st10 {stroke:#000000;stroke-linecap:round;stroke-linejoin:round;stroke-width:1}
		.st11 {fill:#cdcdcd;fill-opacity:0.5;stroke:#cdcdcd;stroke-linecap:round;stroke-linejoin:round;stroke-opacity:0.5;stroke-width:1}
		.st12 {fill:url(#grad30-12);stroke:#ff0000;stroke-linecap:round;stroke-linejoin:round;stroke-width:1}
		.st13 {fill:#000000;font-family:Calibri;font-size:0.666664em}
		.st14 {fill:#cdcdcd;fill-opacity:0.5;stroke:#cdcdcd;stroke-linecap:round;stroke-linejoin:round;stroke-opacity:0.5;stroke-width:0.5}
		.st15 {fill:url(#grad30-12);stroke:#4e66b2;stroke-linecap:round;stroke-linejoin:round;stroke-width:0.5}
		.st16 {fill:url(#grad30-12);stroke:#ffc000;stroke-linecap:round;stroke-linejoin:round;stroke-width:1}
		.st17 {stroke:#ff0000;stroke-linecap:round;stroke-linejoin:round;stroke-width:1.5}
		.st18 {stroke:#ffc000;stroke-linecap:round;stroke-linejoin:round;stroke-width:1.5}
		.st19 {fill:#cdcdcd;fill-opacity:0.5;stroke:#cdcdcd;stroke-linecap:round;stroke-linejoin:round;stroke-opacity:0.5;stroke-width:1.5}
		.st20 {fill:url(#grad30-148);stroke:#000000;stroke-linecap:round;stroke-linejoin:round;stroke-width:1.5}
		.st21 {fill:url(#grad30-148);stroke:#00b050;stroke-linecap:round;stroke-linejoin:round;stroke-width:1.5}
		.st22 {fill:url(#grad30-148);stroke:#0070c0;stroke-linecap:round;stroke-linejoin:round;stroke-width:1.5}
		.st23 {fill:url(#grad30-194);stroke:#404040;stroke-linecap:round;stroke-linejoin:round;stroke-width:1.5}
		.st24 {fill:url(#grad30-194);stroke:#0070c0;stroke-linecap:round;stroke-linejoin:round;stroke-width:1.5}
		.st25 {fill:url(#grad30-194);stroke:#000000;stroke-linecap:round;stroke-linejoin:round;stroke-width:1.5}
		.st26 {fill:url(#grad30-194);stroke:#4e66b2;stroke-linecap:round;stroke-linejoin:round;stroke-width:1.5}
		.st27 {stroke:#0070c0;stroke-linecap:round;stroke-linejoin:round;stroke-width:1.5}
		.st28 {fill:none;fill-rule:evenodd;font-size:12;overflow:visible;stroke-linecap:square;stroke-miterlimit:3}
	]]>
	</style>

	<defs id="Patterns_And_Gradients">
		<linearGradient id="grad30-6" v:fillPattern="30" v:foreground="#f7d8c1" v:background="#fae9dc" x1="0" y1="1" x2="0" y2="0">
			<stop offset="0" style="stop-color:#f7d8c1;stop-opacity:1"/>
			<stop offset="1" style="stop-color:#fae9dc;stop-opacity:1"/>
		</linearGradient>
		<linearGradient id="grad30-12" v:fillPattern="30" v:foreground="#f0f0f0" v:background="#ffffff" x1="0" y1="1" x2="0" y2="0">
			<stop offset="0" style="stop-color:#f0f0f0;stop-opacity:1"/>
			<stop offset="1" style="stop-color:#ffffff;stop-opacity:1"/>
		</linearGradient>
		<linearGradient id="grad30-148" v:fillPattern="30" v:foreground="#efaf7a" v:background="#f2bf96" x1="0" y1="1" x2="0"
				y2="0">
			<stop offset="0" style="stop-color:#efaf7a;stop-opacity:1"/>
			<stop offset="1" style="stop-color:#f2bf96;stop-opacity:1"/>
		</linearGradient>
		<linearGradient id="grad30-194" v:fillPattern="30" v:foreground="#efaf7a" v:foregroundOpacity="0.7" v:background="#f2bf96"
				v:backgroundOpacity="0.7" x1="0" y1="1" x2="0" y2="0">
			<stop offset="0" style="stop-color:#efaf7a;stop-opacity:0.7"/>
			<stop offset="1" style="stop-color:#f2bf96;stop-opacity:0.7"/>
		</linearGradient>
	</defs>
	<g v:mID="0" v:index="1" v:groupContext="foregroundPage">
		<v:userDefs>
			<v:ud v:nameU="msvThemeColors" v:val="VT0(36):26"/>
			<v:ud v:nameU="msvThemeEffects" v:val="VT0(16):26"/>
			<v:ud v:nameU="msvThemeOrder" v:val="VT0(0):26"/>
		</v:userDefs>
		<title>Page-1</title>
		<v:pageProperties v:drawingScale="1" v:pageScale="1" v:drawingUnits="0" v:shadowOffsetX="9" v:shadowOffsetY="-9"/>
		<v:layer v:name="A Flowchart" v:index="0"/>
		<v:layer v:name="Connector" v:index="1"/>
		<v:layer v:name="STOR_A_1b-FC1 red" v:index="2"/>
		<v:layer v:name="A label" v:index="3"/>
		<v:layer v:index="4" visibility="hidden" v:print="false" v:snap="false" v:glue="false"/>
		<v:layer v:index="5" visibility="hidden" v:print="false" v:snap="false" v:glue="false"/>
		<v:layer v:index="6" visibility="hidden" v:print="false" v:snap="false" v:glue="false"/>
		<v:layer v:index="7" visibility="hidden" v:print="false" v:snap="false" v:glue="false"/>
		<v:layer v:index="8" visibility="hidden" v:print="false" v:snap="false" v:glue="false"/>
		<v:layer v:name="STOR_A_1b-FC2 brown" v:index="9"/>
		<v:layer v:name="A switches tc" v:index="10"/>
		<g id="shape138-1" v:mID="138" v:groupContext="shape" v:layerMember="10" transform="translate(18,-18)">
			<title>Rounded rectangle</title>
			<v:userDefs>
				<v:ud v:nameU="visVersion" v:val="VT0(14):26"/>
				<v:ud v:nameU="msvThemeColors" v:val="VT0(36):26"/>
				<v:ud v:nameU="msvThemeEffects" v:val="VT0(16):26"/>
			</v:userDefs>
			<g id="shadow138-2" v:groupContext="shadow" v:shadowOffsetX="1.44" v:shadowOffsetY="-1.44" v:shadowType="1"
					transform="matrix(1,0,0,1,1.44,1.44)" class="st1">
				<path d="M363.83 473.03 A14.1733 14.1733 -180 0 0 378 458.86 L378 54.64 A14.1733 14.1733 -180 0 0 363.83 40.47 L14.17
							 40.47 A14.1733 14.1733 -180 0 0 -0 54.64 L0 458.86 A14.1733 14.1733 -180 0 0 14.17 473.03 L363.83 473.03
							 Z" class="st2"/>
			</g>
			<path d="M363.83 473.03 A14.1733 14.1733 -180 0 0 378 458.86 L378 54.64 A14.1733 14.1733 -180 0 0 363.83 40.47 L14.17
						 40.47 A14.1733 14.1733 -180 0 0 -0 54.64 L0 458.86 A14.1733 14.1733 -180 0 0 14.17 473.03 L363.83 473.03
						 Z" class="st3"/>
		</g>
		<g id="shape27-7" v:mID="27" v:groupContext="shape" v:layerMember="10" transform="translate(85.5,-346.219)">
			<title>Rounded rectangle.27</title>
			<desc>FC_switch_A_1</desc>
			<v:userDefs>
				<v:ud v:nameU="visVersion" v:val="VT0(14):26"/>
				<v:ud v:nameU="msvThemeColors" v:val="VT0(36):26"/>
				<v:ud v:nameU="msvThemeEffects" v:val="VT0(16):26"/>
			</v:userDefs>
			<v:textBlock v:margins="rect(4,4,4,4)" v:tabSpace="42.5197"/>
			<v:textRect cx="119.25" cy="444.906" width="238.5" height="56.25"/>
			<g id="shadow27-8" v:groupContext="shadow" v:shadowOffsetX="1.44" v:shadowOffsetY="-1.44" v:shadowType="1"
					transform="matrix(1,0,0,1,1.44,1.44)" class="st1">
				<path d="M224.33 473.03 A14.1733 14.1733 -180 0 0 238.5 458.86 L238.5 430.95 A14.1733 14.1733 -180 0 0 224.33 416.78
							 L14.17 416.78 A14.1733 14.1733 -180 0 0 0 430.95 L0 458.86 A14.1733 14.1733 -180 0 0 14.17 473.03 L224.33
							 473.03 Z" class="st2"/>
			</g>
			<path d="M224.33 473.03 A14.1733 14.1733 -180 0 0 238.5 458.86 L238.5 430.95 A14.1733 14.1733 -180 0 0 224.33 416.78
						 L14.17 416.78 A14.1733 14.1733 -180 0 0 0 430.95 L0 458.86 A14.1733 14.1733 -180 0 0 14.17 473.03 L224.33
						 473.03 Z" class="st4"/>
			<text x="94.1" y="447.31" class="st5" v:langID="1033"><v:paragraph v:horizAlign="1"/><v:tabList/>FC_switch_A_1</text>		</g>
		<g id="group41-14" transform="translate(90,-238.219)" v:mID="41" v:groupContext="group" v:layerMember="10">
			<v:userDefs>
				<v:ud v:nameU="msvThemeColors" v:val="VT0(36):26"/>
				<v:ud v:nameU="msvThemeEffects" v:val="VT0(16):26"/>
			</v:userDefs>
			<title>Sheet.41</title>
			<g id="shape42-15" v:mID="42" v:groupContext="shape" v:layerMember="10">
				<title>Rounded rectangle</title>
				<desc>FC_switch_A_2</desc>
				<v:userDefs>
					<v:ud v:nameU="visVersion" v:val="VT0(14):26"/>
					<v:ud v:nameU="msvThemeColors" v:val="VT0(36):26"/>
					<v:ud v:nameU="msvThemeEffects" v:val="VT0(16):26"/>
				</v:userDefs>
				<v:textBlock v:margins="rect(4,4,4,4)" v:tabSpace="42.5197"/>
				<v:textRect cx="117" cy="444.906" width="234" height="56.25"/>
				<g id="shadow42-16" v:groupContext="shadow" v:shadowOffsetX="1.44" v:shadowOffsetY="-1.44" v:shadowType="1"
						transform="matrix(1,0,0,1,1.44,1.44)" class="st1">
					<path d="M219.83 473.03 A14.1733 14.1733 -180 0 0 234 458.86 L234 430.95 A14.1733 14.1733 -180 0 0 219.83 416.78
								 L14.17 416.78 A14.1733 14.1733 -180 0 0 0 430.95 L0 458.86 A14.1733 14.1733 -180 0 0 14.17 473.03
								 L219.83 473.03 Z" class="st2"/>
				</g>
				<path d="M219.83 473.03 A14.1733 14.1733 -180 0 0 234 458.86 L234 430.95 A14.1733 14.1733 -180 0 0 219.83 416.78
							 L14.17 416.78 A14.1733 14.1733 -180 0 0 0 430.95 L0 458.86 A14.1733 14.1733 -180 0 0 14.17 473.03 L219.83
							 473.03 Z" class="st4"/>
				<text x="91.85" y="447.31" class="st5" v:langID="1033"><v:paragraph v:horizAlign="1"/><v:tabList/>FC_switch_A_2</text>			</g>
		</g>
		<g id="group17-21" transform="translate(99.375,-18)" v:mID="17" v:groupContext="group">
			<v:userDefs>
				<v:ud v:nameU="msvThemeColors" v:val="VT0(36):26"/>
				<v:ud v:nameU="msvThemeEffects" v:val="VT0(16):26"/>
			</v:userDefs>
			<title>Sheet.17</title>
		</g>
		<g id="group90-22" transform="translate(110.49,-22.2128)" v:mID="90" v:groupContext="group" v:layerMember="10">
			<v:userDefs>
				<v:ud v:nameU="msvThemeColors" v:val="VT0(36):26"/>
				<v:ud v:nameU="msvThemeEffects" v:val="VT0(16):26"/>
			</v:userDefs>
			<title>Sheet.90</title>
		</g>
		<g id="group14-23" transform="translate(324,-247.219)" v:mID="14" v:groupContext="group">
			<v:userDefs>
				<v:ud v:nameU="msvThemeColors" v:val="VT0(36):26"/>
				<v:ud v:nameU="msvThemeEffects" v:val="VT0(16):26"/>
			</v:userDefs>
			<title>Sheet.14</title>
			<g id="shape141-24" v:mID="141" v:groupContext="shape" v:layerMember="10" transform="translate(0,-108)">
				<title>45 degree double.141</title>
				<v:userDefs>
					<v:ud v:nameU="visVersion" v:val="VT0(14):26"/>
					<v:ud v:nameU="msvThemeColors" v:val="VT0(36):26"/>
					<v:ud v:nameU="msvThemeEffects" v:val="VT0(16):26"/>
				</v:userDefs>
				<g id="shadow141-25" v:groupContext="shadow" v:shadowOffsetX="1.44" v:shadowOffsetY="-1.44" v:shadowType="1"
						transform="matrix(1,0,0,1,1.44,1.44)" class="st1">
					<path d="M0 464.03 L9 455.03 L9 460.97 L81 460.97 L81 455.03 L90 464.03 L81 473.03 L81 467.09 L9 467.09 L9 473.03
								 L0 464.03 Z" class="st2"/>
				</g>
				<path d="M0 464.03 L9 455.03 L9 460.97 L81 460.97 L81 455.03 L90 464.03 L81 473.03 L81 467.09 L9 467.09 L9 473.03
							 L0 464.03 Z" class="st4"/>
			</g>
			<g id="shape140-29" v:mID="140" v:groupContext="shape" v:layerMember="10" transform="translate(0.287894,-130.5)">
				<title>45 degree double</title>
				<v:userDefs>
					<v:ud v:nameU="visVersion" v:val="VT0(14):26"/>
					<v:ud v:nameU="msvThemeColors" v:val="VT0(36):26"/>
					<v:ud v:nameU="msvThemeEffects" v:val="VT0(16):26"/>
				</v:userDefs>
				<g id="shadow140-30" v:groupContext="shadow" v:shadowOffsetX="1.44" v:shadowOffsetY="-1.44" v:shadowType="1"
						transform="matrix(1,0,0,1,1.44,1.44)" class="st1">
					<path d="M0 464.03 L9 455.03 L9 460.97 L80.71 460.97 L80.71 455.03 L89.71 464.03 L80.71 473.03 L80.71 467.09
								 L9 467.09 L9 473.03 L0 464.03 Z" class="st2"/>
				</g>
				<path d="M0 464.03 L9 455.03 L9 460.97 L80.71 460.97 L80.71 455.03 L89.71 464.03 L80.71 473.03 L80.71 467.09 L9 467.09
							 L9 473.03 L0 464.03 Z" class="st4"/>
			</g>
			<g id="shape142-34" v:mID="142" v:groupContext="shape" v:layerMember="10" transform="translate(0,-22.5)">
				<title>45 degree double.142</title>
				<v:userDefs>
					<v:ud v:nameU="visVersion" v:val="VT0(14):26"/>
					<v:ud v:nameU="msvThemeColors" v:val="VT0(36):26"/>
					<v:ud v:nameU="msvThemeEffects" v:val="VT0(16):26"/>
				</v:userDefs>
				<g id="shadow142-35" v:groupContext="shadow" v:shadowOffsetX="1.44" v:shadowOffsetY="-1.44" v:shadowType="1"
						transform="matrix(1,0,0,1,1.44,1.44)" class="st1">
					<path d="M0 464.03 L9 455.03 L9 460.97 L80.71 460.97 L80.71 455.03 L89.71 464.03 L80.71 473.03 L80.71 467.09
								 L9 467.09 L9 473.03 L0 464.03 Z" class="st2"/>
				</g>
				<path d="M0 464.03 L9 455.03 L9 460.97 L80.71 460.97 L80.71 455.03 L89.71 464.03 L80.71 473.03 L80.71 467.09 L9 467.09
							 L9 473.03 L0 464.03 Z" class="st4"/>
			</g>
			<g id="shape143-39" v:mID="143" v:groupContext="shape" v:layerMember="10" transform="translate(0.287894,5.68434E-014)">
				<title>45 degree double.143</title>
				<v:userDefs>
					<v:ud v:nameU="visVersion" v:val="VT0(14):26"/>
					<v:ud v:nameU="msvThemeColors" v:val="VT0(36):26"/>
					<v:ud v:nameU="msvThemeEffects" v:val="VT0(16):26"/>
				</v:userDefs>
				<g id="shadow143-40" v:groupContext="shadow" v:shadowOffsetX="1.44" v:shadowOffsetY="-1.44" v:shadowType="1"
						transform="matrix(1,0,0,1,1.44,1.44)" class="st1">
					<path d="M0 464.03 L9 455.03 L9 460.97 L80.71 460.97 L80.71 455.03 L89.71 464.03 L80.71 473.03 L80.71 467.09
								 L9 467.09 L9 473.03 L0 464.03 Z" class="st2"/>
				</g>
				<path d="M0 464.03 L9 455.03 L9 460.97 L80.71 460.97 L80.71 455.03 L89.71 464.03 L80.71 473.03 L80.71 467.09 L9 467.09
							 L9 473.03 L0 464.03 Z" class="st4"/>
			</g>
		</g>
		<g id="shape119-44" v:mID="119" v:groupContext="shape" v:layerMember="2" transform="translate(97.8225,-59.9608)">
			<title>Dynamic connector.119</title>
			<v:userDefs>
				<v:ud v:nameU="msvThemeColors" v:val="VT0(36):26"/>
				<v:ud v:nameU="msvThemeEffects" v:val="VT0(16):26"/>
			</v:userDefs>
			<path d="M0 473.03 L0 479.27 L-70.82 479.27 L-70.82 222.77 L-34.5 222.77 A3 3 0 0 1 -28.5 222.77 L128.78 222.77 L128.78
						 238.52" class="st6"/>
		</g>
		<g id="shape144-48" v:mID="144" v:groupContext="shape" v:layerMember="10" transform="translate(144,-437.909)">
			<title>Sheet.144</title>
			<desc>site_A</desc>
			<v:userDefs>
				<v:ud v:nameU="msvThemeColors" v:val="VT0(36):26"/>
				<v:ud v:nameU="msvThemeEffects" v:val="VT0(16):26"/>
			</v:userDefs>
			<v:textBlock v:margins="rect(2,2,2,2)"/>
			<v:textRect cx="54" cy="468.531" width="108" height="9"/>
			<rect x="0" y="464.031" width="108" height="9" class="st7"/>
			<text x="38.41" y="472.13" class="st8" v:langID="1033"><v:paragraph v:horizAlign="1"/><v:tabList/>site_A</text>		</g>
		<g id="shape15-51" v:mID="15" v:groupContext="shape" transform="translate(414,-235.969)">
			<title>Rectangle</title>
			<desc>site_B</desc>
			<v:userDefs>
				<v:ud v:nameU="visVersion" v:val="VT0(14):26"/>
				<v:ud v:nameU="msvThemeColors" v:val="VT0(36):26"/>
				<v:ud v:nameU="msvThemeEffects" v:val="VT0(16):26"/>
			</v:userDefs>
			<v:textBlock v:margins="rect(2,2,2,2)"/>
			<v:textRect cx="18" cy="387.531" width="36" height="171" transform="rotate(-90)"/>
			<g id="shadow15-52" v:groupContext="shadow" v:shadowOffsetX="1.44" v:shadowOffsetY="-1.44" v:shadowType="1"
					transform="matrix(1,0,0,1,1.44,1.44)" class="st1">
				<rect x="0" y="302.031" width="36" height="171" class="st2"/>
			</g>
			<rect x="0" y="302.031" width="36" height="171" class="st4"/>
			<text x="-402.85" y="21.6" transform="rotate(-90)" class="st8" v:langID="1033"><v:paragraph v:horizAlign="1"/><v:tabList/>site_B</text>		</g>
		<g id="shape6-57" v:mID="6" v:groupContext="shape" transform="translate(450.125,-171.216)">
			<title>Sheet.6</title>
			<v:userDefs>
				<v:ud v:nameU="msvThemeColors" v:val="VT0(36):26"/>
				<v:ud v:nameU="msvThemeEffects" v:val="VT0(16):26"/>
			</v:userDefs>
			<rect x="0" y="461.031" width="100" height="12" class="st7"/>
		</g>
		<g id="group12-59" transform="translate(178,-18.2812)" v:mID="12" v:groupContext="group">
			<v:userDefs>
				<v:ud v:nameU="msvThemeColors" v:val="VT0(36):26"/>
				<v:ud v:nameU="msvThemeEffects" v:val="VT0(16):26"/>
			</v:userDefs>
			<title>Sheet.12</title>
		</g>
		<g id="group16-60" transform="translate(178,-18.2812)" v:mID="16" v:groupContext="group">
			<v:userDefs>
				<v:ud v:nameU="msvThemeColors" v:val="VT0(36):26"/>
				<v:ud v:nameU="msvThemeEffects" v:val="VT0(16):26"/>
			</v:userDefs>
			<title>Sheet.16</title>
		</g>
		<g id="group95-61" transform="translate(96.931,-116.218)" v:mID="95" v:groupContext="group" v:layerMember="10">
			<v:userDefs>
				<v:ud v:nameU="msvThemeColors" v:val="VT0(36):26"/>
				<v:ud v:nameU="msvThemeEffects" v:val="VT0(16):26"/>
			</v:userDefs>
			<title>Sheet.95</title>
			<g id="shape94-62" v:mID="94" v:groupContext="shape" v:layerMember="10">
				<title>Ellipse</title>
				<desc>SAS stack</desc>
				<v:userDefs>
					<v:ud v:nameU="visVersion" v:val="VT0(14):26"/>
					<v:ud v:nameU="msvThemeColors" v:val="VT0(36):26"/>
					<v:ud v:nameU="msvThemeEffects" v:val="VT0(16):26"/>
				</v:userDefs>
				<v:textBlock v:margins="rect(4,4,4,4)" v:tabSpace="42.5197"/>
				<v:textRect cx="30.444" cy="453.529" width="53.28" height="34.1296"/>
				<g id="shadow94-63" v:groupContext="shadow" v:shadowOffsetX="1.44" v:shadowOffsetY="-1.44" v:shadowType="1"
						transform="matrix(1,0,0,1,1.44,1.44)" class="st1">
					<path d="M0 453.53 A30.444 19.5026 0 1 1 60.89 453.53 A30.444 19.5026 0 0 1 0 453.53 Z" class="st2"/>
				</g>
				<path d="M0 453.53 A30.444 19.5026 0 1 1 60.89 453.53 A30.444 19.5026 0 0 1 0 453.53 Z" class="st4"/>
				<text x="14.78" y="455.93" class="st5" v:langID="1033"><v:paragraph v:horizAlign="1"/><v:tabList/>SAS stack</text>			</g>
		</g>
		<g id="shape97-68" v:mID="97" v:groupContext="shape" v:layerMember="0" transform="translate(65.241,-169.454)">
			<title>Dynamic connector.97</title>
			<v:userDefs>
				<v:ud v:nameU="msvThemeColors" v:val="VT0(36):26"/>
				<v:ud v:nameU="msvThemeEffects" v:val="VT0(16):26"/>
			</v:userDefs>
			<path d="M0 476.8 L0 482.76 L62.13 482.76 L62.13 487.26" class="st9"/>
		</g>
		<g id="shape19-72" v:mID="19" v:groupContext="shape" v:layerMember="1" transform="translate(127.375,-120.357)">
			<title>Dynamic connector.19</title>
			<v:userDefs>
				<v:ud v:nameU="msvThemeColors" v:val="VT0(36):26"/>
				<v:ud v:nameU="msvThemeEffects" v:val="VT0(16):26"/>
			</v:userDefs>
			<path d="M0 477.17 L0 482.39 L-57.99 482.39 L-57.99 486.89" class="st10"/>
		</g>
		<g id="group25-76" transform="translate(223,-67.2187)" v:mID="25" v:groupContext="group">
			<v:userDefs>
				<v:ud v:nameU="msvThemeColors" v:val="VT0(36):26"/>
				<v:ud v:nameU="msvThemeEffects" v:val="VT0(16):26"/>
			</v:userDefs>
			<title>Sheet.25</title>
			<g id="group26-77" transform="translate(37.125,-48.9997)" v:mID="26" v:groupContext="group" v:layerMember="10">
				<v:userDefs>
					<v:ud v:nameU="msvThemeColors" v:val="VT0(36):26"/>
					<v:ud v:nameU="msvThemeEffects" v:val="VT0(16):26"/>
				</v:userDefs>
				<title>Sheet.26</title>
				<g id="shape43-78" v:mID="43" v:groupContext="shape" v:layerMember="10">
					<title>Ellipse</title>
					<desc>SAS stack</desc>
					<v:userDefs>
						<v:ud v:nameU="visVersion" v:val="VT0(14):26"/>
						<v:ud v:nameU="msvThemeColors" v:val="VT0(36):26"/>
						<v:ud v:nameU="msvThemeEffects" v:val="VT0(16):26"/>
					</v:userDefs>
					<v:textBlock v:margins="rect(4,4,4,4)" v:tabSpace="42.5197"/>
					<v:textRect cx="30.444" cy="453.529" width="53.28" height="34.1296"/>
					<g id="shadow43-79" v:groupContext="shadow" v:shadowOffsetX="1.44" v:shadowOffsetY="-1.44" v:shadowType="1"
							transform="matrix(1,0,0,1,1.44,1.44)" class="st1">
						<path d="M0 453.53 A30.444 19.5026 0 1 1 60.89 453.53 A30.444 19.5026 0 0 1 0 453.53 Z" class="st2"/>
					</g>
					<path d="M0 453.53 A30.444 19.5026 0 1 1 60.89 453.53 A30.444 19.5026 0 0 1 0 453.53 Z" class="st4"/>
					<text x="14.78" y="455.93" class="st5" v:langID="1033"><v:paragraph v:horizAlign="1"/><v:tabList/>SAS stack</text>				</g>
			</g>
			<g id="shape56-84" v:mID="56" v:groupContext="shape" v:layerMember="0" transform="translate(76.5864,-100.159)">
				<title>Dynamic connector</title>
				<v:userDefs>
					<v:ud v:nameU="msvThemeColors" v:val="VT0(36):26"/>
					<v:ud v:nameU="msvThemeEffects" v:val="VT0(16):26"/>
				</v:userDefs>
				<path d="M-8.98 478.88 L-8.98 482.25 L-9.02 482.25 L-9.02 485.19" class="st9"/>
			</g>
			<g id="group57-88" transform="translate(0,-93.9997)" v:mID="57" v:groupContext="group">
				<v:userDefs>
					<v:ud v:nameU="msvThemeColors" v:val="VT0(36):26"/>
					<v:ud v:nameU="msvThemeEffects" v:val="VT0(16):26"/>
				</v:userDefs>
				<title>Sheet.57</title>
				<g id="shape58-89" v:mID="58" v:groupContext="shape" v:layerMember="10">
					<title>Rectangle.85</title>
					<desc>bridge_A_3a (6500N)</desc>
					<v:userDefs>
						<v:ud v:nameU="visVersion" v:val="VT0(14):26"/>
						<v:ud v:nameU="msvThemeColors" v:val="VT0(36):26"/>
						<v:ud v:nameU="msvThemeEffects" v:val="VT0(16):26"/>
					</v:userDefs>
					<v:textBlock v:margins="rect(4,4,4,4)" v:verticalAlign="0"/>
					<v:textRect cx="75.375" cy="452.781" width="150.75" height="40.5"/>
					<g id="shadow58-90" v:groupContext="shadow" v:shadowOffsetX="1.44" v:shadowOffsetY="-1.44" v:shadowType="1"
							transform="matrix(1,0,0,1,1.44,1.44)" class="st1">
						<rect x="0" y="432.531" width="150.75" height="40.5" class="st2"/>
					</g>
					<rect x="0" y="432.531" width="150.75" height="40.5" class="st4"/>
					<text x="76.43" y="443.73" class="st5" v:langID="1033"><v:paragraph v:horizAlign="2"/><v:tabList/>bridge_A_3a (6500N)</text>				</g>
				<g id="group59-95" transform="translate(11.24,-23.9387)" v:mID="59" v:groupContext="group" v:layerMember="10">
					<v:userDefs>
						<v:ud v:nameU="msvThemeColors" v:val="VT0(36):26"/>
						<v:ud v:nameU="msvThemeEffects" v:val="VT0(16):26"/>
					</v:userDefs>
					<title>Sheet.59</title>
					<g id="shape60-96" v:mID="60" v:groupContext="shape" v:layerMember="10">
						<title>Rectangle</title>
						<desc>FC1</desc>
						<v:userDefs>
							<v:ud v:nameU="visVersion" v:val="VT0(14):26"/>
							<v:ud v:nameU="msvThemeColors" v:val="VT0(36):26"/>
							<v:ud v:nameU="msvThemeEffects" v:val="VT0(16):26"/>
						</v:userDefs>
						<v:textBlock v:margins="rect(4,4,4,4)" v:tabSpace="42.5197"/>
						<v:textRect cx="11.49" cy="464.751" width="22.99" height="16.5613"/>
						<g id="shadow60-97" v:groupContext="shadow" v:shadowOffsetX="1.44" v:shadowOffsetY="-1.44" v:shadowType="1"
								transform="matrix(1,0,0,1,1.44,1.44)" class="st1">
							<rect x="0" y="456.47" width="22.98" height="16.5613" class="st11"/>
						</g>
						<rect x="0" y="456.47" width="22.98" height="16.5613" class="st12"/>
						<text x="5.49" y="467.15" class="st13" v:langID="1033"><v:paragraph v:horizAlign="1"/><v:tabList/>FC1</text>					</g>
				</g>
				<g id="group63-102" transform="translate(52.875,-0.719357)" v:mID="63" v:groupContext="group" v:layerMember="10">
					<v:userDefs>
						<v:ud v:nameU="msvThemeColors" v:val="VT0(36):26"/>
						<v:ud v:nameU="msvThemeEffects" v:val="VT0(16):26"/>
					</v:userDefs>
					<title>Sheet.63</title>
					<g id="shape64-103" v:mID="64" v:groupContext="shape" v:layerMember="10"
							transform="translate(-0.122553,0.405643)">
						<title>Rectangle</title>
						<desc>SAS A</desc>
						<v:userDefs>
							<v:ud v:nameU="visVersion" v:val="VT0(14):26"/>
							<v:ud v:nameU="msvThemeColors" v:val="VT0(36):26"/>
							<v:ud v:nameU="msvThemeEffects" v:val="VT0(16):26"/>
						</v:userDefs>
						<v:textBlock v:margins="rect(4,4,4,4)" v:tabSpace="42.5197"/>
						<v:textRect cx="14.8515" cy="464.751" width="29.71" height="16.5613"/>
						<g id="shadow64-104" v:groupContext="shadow" v:shadowOffsetX="1.44" v:shadowOffsetY="-1.44"
								v:shadowType="1" transform="matrix(1,0,0,1,1.44,1.44)" class="st1">
							<rect x="0" y="456.47" width="29.7029" height="16.5613" class="st14"/>
						</g>
						<rect x="0" y="456.47" width="29.7029" height="16.5613" class="st15"/>
						<text x="5.64" y="467.15" class="st13" v:langID="1033"><v:paragraph v:horizAlign="1"/><v:tabList/>SAS A</text>					</g>
				</g>
			</g>
			<g id="group68-109" v:mID="68" v:groupContext="group">
				<v:userDefs>
					<v:ud v:nameU="msvThemeColors" v:val="VT0(36):26"/>
					<v:ud v:nameU="msvThemeEffects" v:val="VT0(16):26"/>
				</v:userDefs>
				<title>Sheet.68</title>
				<g id="shape69-110" v:mID="69" v:groupContext="shape" v:layerMember="10">
					<title>Rectangle.85</title>
					<desc>bridge_A_3b (6500N)</desc>
					<v:userDefs>
						<v:ud v:nameU="visVersion" v:val="VT0(14):26"/>
						<v:ud v:nameU="msvThemeColors" v:val="VT0(36):26"/>
						<v:ud v:nameU="msvThemeEffects" v:val="VT0(16):26"/>
					</v:userDefs>
					<v:textBlock v:margins="rect(4,4,4,4)" v:verticalAlign="2"/>
					<v:textRect cx="75.375" cy="452.781" width="150.75" height="40.5"/>
					<g id="shadow69-111" v:groupContext="shadow" v:shadowOffsetX="1.44" v:shadowOffsetY="-1.44" v:shadowType="1"
							transform="matrix(1,0,0,1,1.44,1.44)" class="st1">
						<rect x="0" y="432.531" width="150.75" height="40.5" class="st2"/>
					</g>
					<rect x="0" y="432.531" width="150.75" height="40.5" class="st4"/>
					<text x="76.09" y="466.63" class="st5" v:langID="1033"><v:paragraph v:horizAlign="2"/><v:tabList/>bridge_A_3b (6500N)</text>				</g>
				<g id="group70-116" transform="translate(52.875,-24.0631)" v:mID="70" v:groupContext="group" v:layerMember="10">
					<v:userDefs>
						<v:ud v:nameU="msvThemeColors" v:val="VT0(36):26"/>
						<v:ud v:nameU="msvThemeEffects" v:val="VT0(16):26"/>
					</v:userDefs>
					<title>Sheet.70</title>
					<g id="shape71-117" v:mID="71" v:groupContext="shape" v:layerMember="10"
							transform="translate(-0.122553,0.405643)">
						<title>Rectangle</title>
						<desc>SAS A</desc>
						<v:userDefs>
							<v:ud v:nameU="visVersion" v:val="VT0(14):26"/>
							<v:ud v:nameU="msvThemeColors" v:val="VT0(36):26"/>
							<v:ud v:nameU="msvThemeEffects" v:val="VT0(16):26"/>
						</v:userDefs>
						<v:textBlock v:margins="rect(4,4,4,4)" v:tabSpace="42.5197"/>
						<v:textRect cx="14.8515" cy="464.751" width="29.71" height="16.5613"/>
						<g id="shadow71-118" v:groupContext="shadow" v:shadowOffsetX="1.44" v:shadowOffsetY="-1.44"
								v:shadowType="1" transform="matrix(1,0,0,1,1.44,1.44)" class="st1">
							<rect x="0" y="456.47" width="29.7029" height="16.5613" class="st14"/>
						</g>
						<rect x="0" y="456.47" width="29.7029" height="16.5613" class="st15"/>
						<text x="5.64" y="467.15" class="st13" v:langID="1033"><v:paragraph v:horizAlign="1"/><v:tabList/>SAS A</text>					</g>
				</g>
				<g id="shape75-123" v:mID="75" v:groupContext="shape" v:layerMember="10" transform="translate(11.24,5.68434E-014)">
					<title>Rectangle</title>
					<desc>FC1</desc>
					<v:userDefs>
						<v:ud v:nameU="visVersion" v:val="VT0(14):26"/>
						<v:ud v:nameU="msvThemeColors" v:val="VT0(36):26"/>
						<v:ud v:nameU="msvThemeEffects" v:val="VT0(16):26"/>
					</v:userDefs>
					<v:textBlock v:margins="rect(4,4,4,4)" v:tabSpace="42.5197"/>
					<v:textRect cx="11.49" cy="464.751" width="22.99" height="16.5613"/>
					<g id="shadow75-124" v:groupContext="shadow" v:shadowOffsetX="1.44" v:shadowOffsetY="-1.44" v:shadowType="1"
							transform="matrix(1,0,0,1,1.44,1.44)" class="st1">
						<rect x="0" y="456.47" width="22.98" height="16.5613" class="st11"/>
					</g>
					<rect x="0" y="456.47" width="22.98" height="16.5613" class="st16"/>
					<text x="5.49" y="467.15" class="st13" v:langID="1033"><v:paragraph v:horizAlign="1"/><v:tabList/>FC1</text>				</g>
			</g>
			<g id="shape78-129" v:mID="78" v:groupContext="shape" v:layerMember="1" transform="translate(58.5864,-53.6092)">
				<title>Dynamic connector.19</title>
				<v:userDefs>
					<v:ud v:nameU="msvThemeColors" v:val="VT0(36):26"/>
					<v:ud v:nameU="msvThemeEffects" v:val="VT0(16):26"/>
				</v:userDefs>
				<path d="M8.98 477.64 L8.98 482.14 L9.02 482.14 L9.02 486.42" class="st10"/>
			</g>
		</g>
		<g id="shape80-133" v:mID="80" v:groupContext="shape" v:layerMember="1" transform="translate(239.832,-201.718)">
			<title>Dynamic connector</title>
			<v:userDefs>
				<v:ud v:nameU="msvThemeColors" v:val="VT0(36):26"/>
				<v:ud v:nameU="msvThemeEffects" v:val="VT0(16):26"/>
			</v:userDefs>
			<path d="M5.9 473.03 L5.9 450.03 L109.17 450.03 L109.17 254.28 L12.1 254.28 L12.1 272.28" class="st17"/>
		</g>
		<g id="shape83-137" v:mID="83" v:groupContext="shape" v:layerMember="1" transform="translate(239.849,-67.2188)">
			<title>Dynamic connector.83</title>
			<v:userDefs>
				<v:ud v:nameU="msvThemeColors" v:val="VT0(36):26"/>
				<v:ud v:nameU="msvThemeEffects" v:val="VT0(16):26"/>
			</v:userDefs>
			<path d="M5.88 473.03 L5.88 486.53 L147.4 486.53 L147.4 230.03 L112.15 230.03 A3 3 -180 0 0 106.15 230.03 L12.12 230.03
						 L12.12 245.78" class="st18"/>
		</g>
		<g id="group163-141" transform="translate(34.875,-165.349)" v:mID="163" v:groupContext="group">
			<v:userDefs>
				<v:ud v:nameU="msvThemeColors" v:val="VT0(36):26"/>
				<v:ud v:nameU="msvThemeEffects" v:val="VT0(16):26"/>
			</v:userDefs>
			<title>Sheet.163</title>
		</g>
		<g id="group3-142" transform="translate(36,-59.9608)" v:mID="3" v:groupContext="group">
			<v:userDefs>
				<v:ud v:nameU="msvThemeColors" v:val="VT0(36):26"/>
				<v:ud v:nameU="msvThemeEffects" v:val="VT0(16):26"/>
			</v:userDefs>
			<title>Sheet.3</title>
			<g id="shape13-143" v:mID="13" v:groupContext="shape" v:layerMember="10">
				<title>Rectangle.85</title>
				<desc>bridge_A_1b (7500N)</desc>
				<v:userDefs>
					<v:ud v:nameU="visVersion" v:val="VT0(14):26"/>
					<v:ud v:nameU="msvThemeColors" v:val="VT0(36):26"/>
					<v:ud v:nameU="msvThemeEffects" v:val="VT0(16):26"/>
				</v:userDefs>
				<v:textBlock v:margins="rect(4,4,4,4)" v:verticalAlign="2"/>
				<v:textRect cx="87.3125" cy="449.574" width="174.63" height="46.9142"/>
				<g id="shadow13-144" v:groupContext="shadow" v:shadowOffsetX="1.44" v:shadowOffsetY="-1.44" v:shadowType="1"
						transform="matrix(1,0,0,1,1.44,1.44)" class="st1">
					<rect x="0" y="426.117" width="174.625" height="46.9142" class="st19"/>
				</g>
				<rect x="0" y="426.117" width="174.625" height="46.9142" class="st20"/>
				<text x="99.96" y="466.63" class="st5" v:langID="1033"><v:paragraph v:horizAlign="2"/><v:tabList/>bridge_A_1b (7500N)</text>			</g>
			<g id="shape91-150" v:mID="91" v:groupContext="shape" v:layerMember="10" transform="translate(13.0201,5.68434E-014)">
				<title>Rectangle.91</title>
				<desc>FC1</desc>
				<v:userDefs>
					<v:ud v:nameU="visVersion" v:val="VT0(14):26"/>
					<v:ud v:nameU="msvThemeColors" v:val="VT0(36):26"/>
					<v:ud v:nameU="msvThemeEffects" v:val="VT0(16):26"/>
				</v:userDefs>
				<v:textBlock v:margins="rect(4,4,4,4)" v:tabSpace="42.5197"/>
				<v:textRect cx="13.3097" cy="463.439" width="26.62" height="19.1842"/>
				<g id="shadow91-151" v:groupContext="shadow" v:shadowOffsetX="1.44" v:shadowOffsetY="-1.44" v:shadowType="1"
						transform="matrix(1,0,0,1,1.44,1.44)" class="st1">
					<rect x="0" y="453.847" width="26.6195" height="19.1842" class="st19"/>
				</g>
				<rect x="0" y="453.847" width="26.6195" height="19.1842" class="st20"/>
				<text x="7.31" y="465.84" class="st13" v:langID="1033"><v:paragraph v:horizAlign="1"/><v:tabList/>FC1</text>			</g>
			<g id="group92-156" transform="translate(48.5127,5.68434E-014)" v:mID="92" v:groupContext="group" v:layerMember="10">
				<v:userDefs>
					<v:ud v:nameU="msvThemeColors" v:val="VT0(36):26"/>
					<v:ud v:nameU="msvThemeEffects" v:val="VT0(16):26"/>
				</v:userDefs>
				<title>Sheet.92</title>
				<g id="shape93-157" v:mID="93" v:groupContext="shape" v:layerMember="10">
					<title>Rectangle</title>
					<desc>FC2</desc>
					<v:userDefs>
						<v:ud v:nameU="visVersion" v:val="VT0(14):26"/>
						<v:ud v:nameU="msvThemeColors" v:val="VT0(36):26"/>
						<v:ud v:nameU="msvThemeEffects" v:val="VT0(16):26"/>
					</v:userDefs>
					<v:textBlock v:margins="rect(4,4,4,4)" v:tabSpace="42.5197"/>
					<v:textRect cx="13.3097" cy="463.439" width="26.62" height="19.1842"/>
					<g id="shadow93-158" v:groupContext="shadow" v:shadowOffsetX="1.44" v:shadowOffsetY="-1.44" v:shadowType="1"
							transform="matrix(1,0,0,1,1.44,1.44)" class="st1">
						<rect x="0" y="453.847" width="26.6195" height="19.1842" class="st19"/>
					</g>
					<rect x="0" y="453.847" width="26.6195" height="19.1842" class="st21"/>
					<text x="7.31" y="465.84" class="st13" v:langID="1033"><v:paragraph v:horizAlign="1"/><v:tabList/>FC2</text>				</g>
			</g>
			<g id="group20-163" transform="translate(16.875,-29.2738)" v:mID="20" v:groupContext="group" v:layerMember="10">
				<v:userDefs>
					<v:ud v:nameU="msvThemeColors" v:val="VT0(36):26"/>
					<v:ud v:nameU="msvThemeEffects" v:val="VT0(16):26"/>
				</v:userDefs>
				<title>Sheet.20</title>
				<g id="shape21-164" v:mID="21" v:groupContext="shape" v:layerMember="10" transform="translate(-0.137369,0.43341)">
					<title>Rectangle</title>
					<desc>SAS A</desc>
					<v:userDefs>
						<v:ud v:nameU="visVersion" v:val="VT0(14):26"/>
						<v:ud v:nameU="msvThemeColors" v:val="VT0(36):26"/>
						<v:ud v:nameU="msvThemeEffects" v:val="VT0(16):26"/>
					</v:userDefs>
					<v:textBlock v:margins="rect(4,4,4,4)" v:tabSpace="42.5197"/>
					<v:textRect cx="16.6469" cy="464.184" width="33.3" height="17.6949"/>
					<g id="shadow21-165" v:groupContext="shadow" v:shadowOffsetX="1.44" v:shadowOffsetY="-1.44" v:shadowType="1"
							transform="matrix(1,0,0,1,1.44,1.44)" class="st1">
						<rect x="0" y="455.336" width="33.2938" height="17.6949" class="st19"/>
					</g>
					<rect x="0" y="455.336" width="33.2938" height="17.6949" class="st22"/>
					<text x="7.44" y="466.58" class="st13" v:langID="1033"><v:paragraph v:horizAlign="1"/><v:tabList/>SAS A</text>				</g>
			</g>
			<g id="shape22-170" v:mID="22" v:groupContext="shape" v:layerMember="10" transform="translate(55.1983,-28.6728)">
				<title>Rectangle.7</title>
				<desc>SAS B</desc>
				<v:userDefs>
					<v:ud v:nameU="visVersion" v:val="VT0(14):26"/>
					<v:ud v:nameU="msvThemeColors" v:val="VT0(36):26"/>
					<v:ud v:nameU="msvThemeEffects" v:val="VT0(16):26"/>
				</v:userDefs>
				<v:textBlock v:margins="rect(4,4,4,4)" v:tabSpace="42.5197"/>
				<v:textRect cx="16.6397" cy="464.184" width="33.28" height="17.6949"/>
				<g id="shadow22-171" v:groupContext="shadow" v:shadowOffsetX="1.44" v:shadowOffsetY="-1.44" v:shadowType="1"
						transform="matrix(1,0,0,1,1.44,1.44)" class="st1">
					<rect x="0" y="455.336" width="33.2793" height="17.6949" class="st19"/>
				</g>
				<rect x="0" y="455.336" width="33.2793" height="17.6949" class="st22"/>
				<text x="7.57" y="466.58" class="st13" v:langID="1033"><v:paragraph v:horizAlign="1"/><v:tabList/>SAS B</text>			</g>
			<g id="shape23-176" v:mID="23" v:groupContext="shape" v:layerMember="10" transform="translate(93.0845,-28.8404)">
				<title>Rectangle.8</title>
				<desc>SAS C</desc>
				<v:userDefs>
					<v:ud v:nameU="visVersion" v:val="VT0(14):26"/>
					<v:ud v:nameU="msvThemeColors" v:val="VT0(36):26"/>
					<v:ud v:nameU="msvThemeEffects" v:val="VT0(16):26"/>
				</v:userDefs>
				<v:textBlock v:margins="rect(4,4,4,4)" v:tabSpace="42.5197"/>
				<v:textRect cx="16.6397" cy="464.184" width="33.28" height="17.6949"/>
				<g id="shadow23-177" v:groupContext="shadow" v:shadowOffsetX="1.44" v:shadowOffsetY="-1.44" v:shadowType="1"
						transform="matrix(1,0,0,1,1.44,1.44)" class="st1">
					<rect x="0" y="455.336" width="33.2793" height="17.6949" class="st19"/>
				</g>
				<rect x="0" y="455.336" width="33.2793" height="17.6949" class="st22"/>
				<text x="7.61" y="466.58" class="st13" v:langID="1033"><v:paragraph v:horizAlign="1"/><v:tabList/>SAS C</text>			</g>
			<g id="shape24-182" v:mID="24" v:groupContext="shape" v:layerMember="10" transform="translate(130.971,-28.9142)">
				<title>Rectangle.9</title>
				<desc>SAS D</desc>
				<v:userDefs>
					<v:ud v:nameU="visVersion" v:val="VT0(14):26"/>
					<v:ud v:nameU="msvThemeColors" v:val="VT0(36):26"/>
					<v:ud v:nameU="msvThemeEffects" v:val="VT0(16):26"/>
				</v:userDefs>
				<v:textBlock v:margins="rect(4,4,4,4)" v:tabSpace="42.5197"/>
				<v:textRect cx="16.6397" cy="464.184" width="33.28" height="17.6949"/>
				<g id="shadow24-183" v:groupContext="shadow" v:shadowOffsetX="1.44" v:shadowOffsetY="-1.44" v:shadowType="1"
						transform="matrix(1,0,0,1,1.44,1.44)" class="st1">
					<rect x="0" y="455.336" width="33.2793" height="17.6949" class="st19"/>
				</g>
				<rect x="0" y="455.336" width="33.2793" height="17.6949" class="st22"/>
				<text x="7.28" y="466.58" class="st13" v:langID="1033"><v:paragraph v:horizAlign="1"/><v:tabList/>SAS D</text>			</g>
		</g>
		<g id="group5-188" transform="translate(34.875,-165.349)" v:mID="5" v:groupContext="group">
			<v:userDefs>
				<v:ud v:nameU="msvThemeColors" v:val="VT0(36):26"/>
				<v:ud v:nameU="msvThemeEffects" v:val="VT0(16):26"/>
			</v:userDefs>
			<title>Sheet.5</title>
			<g id="shape164-189" v:mID="164" v:groupContext="shape" v:layerMember="10">
				<title>Rectangle.85</title>
				<desc>bridge_A_1a (7500N)</desc>
				<v:userDefs>
					<v:ud v:nameU="visVersion" v:val="VT0(14):26"/>
					<v:ud v:nameU="msvThemeColors" v:val="VT0(36):26"/>
					<v:ud v:nameU="msvThemeEffects" v:val="VT0(16):26"/>
				</v:userDefs>
				<v:textBlock v:margins="rect(4,4,4,4)" v:tabSpace="42.5197" v:verticalAlign="0"/>
				<v:textRect cx="87.875" cy="449.423" width="175.75" height="47.2164"/>
				<g id="shadow164-190" v:groupContext="shadow" v:shadowOffsetX="1.44" v:shadowOffsetY="-1.44" v:shadowType="1"
						transform="matrix(1,0,0,1,1.44,1.44)" class="st1">
					<rect x="0" y="425.815" width="175.75" height="47.2164" class="st19"/>
				</g>
				<rect x="0" y="425.815" width="175.75" height="47.2164" class="st23"/>
				<text x="101.43" y="437.01" class="st5" v:langID="1033"><v:paragraph v:horizAlign="2"/><v:tabList/>bridge_A_1a (7500N)</text>			</g>
			<g id="group165-196" transform="translate(16.8708,-29.6003)" v:mID="165" v:groupContext="group" v:layerMember="10">
				<v:userDefs>
					<v:ud v:nameU="msvThemeColors" v:val="VT0(36):26"/>
					<v:ud v:nameU="msvThemeEffects" v:val="VT0(16):26"/>
				</v:userDefs>
				<title>Sheet.165</title>
				<g id="shape166-197" v:mID="166" v:groupContext="shape" v:layerMember="10">
					<title>Rectangle</title>
					<desc>FC1</desc>
					<v:userDefs>
						<v:ud v:nameU="visVersion" v:val="VT0(14):26"/>
						<v:ud v:nameU="msvThemeColors" v:val="VT0(36):26"/>
						<v:ud v:nameU="msvThemeEffects" v:val="VT0(16):26"/>
					</v:userDefs>
					<v:textBlock v:margins="rect(4,4,4,4)" v:tabSpace="42.5197"/>
					<v:textRect cx="12.2809" cy="464.181" width="24.57" height="17.7013"/>
					<g id="shadow166-198" v:groupContext="shadow" v:shadowOffsetX="1.44" v:shadowOffsetY="-1.44" v:shadowType="1"
							transform="matrix(1,0,0,1,1.44,1.44)" class="st1">
						<rect x="0" y="455.33" width="24.5618" height="17.7013" class="st19"/>
					</g>
					<rect x="0" y="455.33" width="24.5618" height="17.7013" class="st24"/>
					<text x="6.28" y="466.58" class="st13" v:langID="1033"><v:paragraph v:horizAlign="1"/><v:tabList/>FC1</text>				</g>
			</g>
			<g id="group167-203" transform="translate(48.7442,-29.6003)" v:mID="167" v:groupContext="group" v:layerMember="10">
				<v:userDefs>
					<v:ud v:nameU="msvThemeColors" v:val="VT0(36):26"/>
					<v:ud v:nameU="msvThemeEffects" v:val="VT0(16):26"/>
				</v:userDefs>
				<title>Sheet.167</title>
				<g id="shape168-204" v:mID="168" v:groupContext="shape" v:layerMember="10">
					<title>Rectangle</title>
					<desc>FC2</desc>
					<v:userDefs>
						<v:ud v:nameU="visVersion" v:val="VT0(14):26"/>
						<v:ud v:nameU="msvThemeColors" v:val="VT0(36):26"/>
						<v:ud v:nameU="msvThemeEffects" v:val="VT0(16):26"/>
					</v:userDefs>
					<v:textBlock v:margins="rect(4,4,4,4)" v:tabSpace="42.5197"/>
					<v:textRect cx="12.2809" cy="464.181" width="24.57" height="17.7013"/>
					<g id="shadow168-205" v:groupContext="shadow" v:shadowOffsetX="1.44" v:shadowOffsetY="-1.44" v:shadowType="1"
							transform="matrix(1,0,0,1,1.44,1.44)" class="st1">
						<rect x="0" y="455.33" width="24.5618" height="17.7013" class="st19"/>
					</g>
					<rect x="0" y="455.33" width="24.5618" height="17.7013" class="st25"/>
					<text x="6.28" y="466.58" class="st13" v:langID="1033"><v:paragraph v:horizAlign="1"/><v:tabList/>FC2</text>				</g>
			</g>
			<g id="group169-210" transform="translate(14.6233,-0.768873)" v:mID="169" v:groupContext="group" v:layerMember="10">
				<v:userDefs>
					<v:ud v:nameU="msvThemeColors" v:val="VT0(36):26"/>
					<v:ud v:nameU="msvThemeEffects" v:val="VT0(16):26"/>
				</v:userDefs>
				<title>Sheet.169</title>
				<g id="shape170-211" v:mID="170" v:groupContext="shape" v:layerMember="10"
						transform="translate(-0.130989,0.433565)">
					<title>Rectangle</title>
					<desc>SAS A</desc>
					<v:userDefs>
						<v:ud v:nameU="visVersion" v:val="VT0(14):26"/>
						<v:ud v:nameU="msvThemeColors" v:val="VT0(36):26"/>
						<v:ud v:nameU="msvThemeEffects" v:val="VT0(16):26"/>
					</v:userDefs>
					<v:textBlock v:margins="rect(4,4,4,4)" v:tabSpace="42.5197"/>
					<v:textRect cx="15.8737" cy="464.181" width="31.75" height="17.7013"/>
					<g id="shadow170-212" v:groupContext="shadow" v:shadowOffsetX="1.44" v:shadowOffsetY="-1.44" v:shadowType="1"
							transform="matrix(1,0,0,1,1.44,1.44)" class="st1">
						<rect x="0" y="455.33" width="31.7475" height="17.7013" class="st19"/>
					</g>
					<rect x="0" y="455.33" width="31.7475" height="17.7013" class="st26"/>
					<text x="6.66" y="466.58" class="st13" v:langID="1033"><v:paragraph v:horizAlign="1"/><v:tabList/>SAS A</text>				</g>
			</g>
			<g id="shape171-217" v:mID="171" v:groupContext="shape" v:layerMember="10" transform="translate(56.0559,-0.167654)">
				<title>Rectangle.7</title>
				<desc>SAS B</desc>
				<v:userDefs>
					<v:ud v:nameU="visVersion" v:val="VT0(14):26"/>
					<v:ud v:nameU="msvThemeColors" v:val="VT0(36):26"/>
					<v:ud v:nameU="msvThemeEffects" v:val="VT0(16):26"/>
				</v:userDefs>
				<v:textBlock v:margins="rect(4,4,4,4)" v:tabSpace="42.5197"/>
				<v:textRect cx="15.8668" cy="464.181" width="31.74" height="17.7013"/>
				<g id="shadow171-218" v:groupContext="shadow" v:shadowOffsetX="1.44" v:shadowOffsetY="-1.44" v:shadowType="1"
						transform="matrix(1,0,0,1,1.44,1.44)" class="st1">
					<rect x="0" y="455.33" width="31.7337" height="17.7013" class="st19"/>
				</g>
				<rect x="0" y="455.33" width="31.7337" height="17.7013" class="st26"/>
				<text x="6.8" y="466.58" class="st13" v:langID="1033"><v:paragraph v:horizAlign="1"/><v:tabList/>SAS B</text>			</g>
			<g id="shape172-223" v:mID="172" v:groupContext="shape" v:layerMember="10" transform="translate(96.2449,-0.335309)">
				<title>Rectangle.8</title>
				<desc>SAS C</desc>
				<v:userDefs>
					<v:ud v:nameU="visVersion" v:val="VT0(14):26"/>
					<v:ud v:nameU="msvThemeColors" v:val="VT0(36):26"/>
					<v:ud v:nameU="msvThemeEffects" v:val="VT0(16):26"/>
				</v:userDefs>
				<v:textBlock v:margins="rect(4,4,4,4)" v:tabSpace="42.5197"/>
				<v:textRect cx="15.8668" cy="464.181" width="31.74" height="17.7013"/>
				<g id="shadow172-224" v:groupContext="shadow" v:shadowOffsetX="1.44" v:shadowOffsetY="-1.44" v:shadowType="1"
						transform="matrix(1,0,0,1,1.44,1.44)" class="st1">
					<rect x="0" y="455.33" width="31.7337" height="17.7013" class="st19"/>
				</g>
				<rect x="0" y="455.33" width="31.7337" height="17.7013" class="st26"/>
				<text x="6.84" y="466.58" class="st13" v:langID="1033"><v:paragraph v:horizAlign="1"/><v:tabList/>SAS C</text>			</g>
			<g id="shape173-229" v:mID="173" v:groupContext="shape" v:layerMember="10" transform="translate(134.921,-0.167654)">
				<title>Rectangle.9</title>
				<desc>SAS D</desc>
				<v:userDefs>
					<v:ud v:nameU="visVersion" v:val="VT0(14):26"/>
					<v:ud v:nameU="msvThemeColors" v:val="VT0(36):26"/>
					<v:ud v:nameU="msvThemeEffects" v:val="VT0(16):26"/>
				</v:userDefs>
				<v:textBlock v:margins="rect(4,4,4,4)" v:tabSpace="42.5197"/>
				<v:textRect cx="15.8668" cy="464.181" width="31.74" height="17.7013"/>
				<g id="shadow173-230" v:groupContext="shadow" v:shadowOffsetX="1.44" v:shadowOffsetY="-1.44" v:shadowType="1"
						transform="matrix(1,0,0,1,1.44,1.44)" class="st1">
					<rect x="0" y="455.33" width="31.7337" height="17.7013" class="st19"/>
				</g>
				<rect x="0" y="455.33" width="31.7337" height="17.7013" class="st26"/>
				<text x="6.51" y="466.58" class="st13" v:langID="1033"><v:paragraph v:horizAlign="1"/><v:tabList/>SAS D</text>			</g>
		</g>
		<g id="group8-235" transform="translate(66.3243,-211.5)" v:mID="8" v:groupContext="group">
			<v:userDefs>
				<v:ud v:nameU="msvThemeColors" v:val="VT0(36):26"/>
				<v:ud v:nameU="msvThemeEffects" v:val="VT0(16):26"/>
			</v:userDefs>
			<title>Sheet.8</title>
			<g id="shape2-236" v:mID="2" v:groupContext="shape" v:layerMember="1">
				<title>Dynamic connector.2</title>
				<v:userDefs>
					<v:ud v:nameU="msvThemeColors" v:val="VT0(36):26"/>
					<v:ud v:nameU="msvThemeEffects" v:val="VT0(16):26"/>
				</v:userDefs>
				<path d="M0 473.03 L0 266.06 L161.55 266.06" class="st27"/>
			</g>
			<g id="shape7-240" v:mID="7" v:groupContext="shape" v:layerMember="1" transform="translate(170.551,-189.759)">
				<title>Dynamic connector.7</title>
				<v:userDefs>
					<v:ud v:nameU="msvThemeColors" v:val="VT0(36):26"/>
					<v:ud v:nameU="msvThemeEffects" v:val="VT0(16):26"/>
				</v:userDefs>
				<path d="M-9 472.25 L-9 455.81" class="st27"/>
			</g>
		</g>
	</g>
</svg>
