<?xml version="1.0" encoding="utf-8" standalone="no"?>
<!DOCTYPE svg PUBLIC "-//W3C//DTD SVG 1.0//EN" "http://www.w3.org/TR/2001/REC-SVG-20010904/DTD/svg10.dtd"[]>
<!-- Generated by Microsoft Visio 11.0, SVG Export, v1.0 Consolidating stacks - 1st 7500N in place=removed port number.svg Page-1 -->
<svg xmlns="http://www.w3.org/2000/svg" xmlns:xlink="http://www.w3.org/1999/xlink" xmlns:ev="http://www.w3.org/2001/xml-events" xmlns:v="http://schemas.microsoft.com/visio/2003/SVGExtensions/" width="10.4913in" height="6.57378in" viewBox="0 0 755.372 473.313" xml:space="preserve" color-interpolation-filters="sRGB" class="st25">
	<v:documentProperties v:langID="1033" v:viewMarkup="false">
		<v:userDefs>
			<v:ud v:nameU="msvNoAutoConnect" v:val="VT0(0):26" />
		</v:userDefs>
	</v:documentProperties>

	<style type="text/css">
	<![CDATA[
		.st1 {visibility:visible}
		.st2 {fill:#cdcdcd;fill-opacity:0.5;stroke:#cdcdcd;stroke-linecap:round;stroke-linejoin:round;stroke-opacity:0.5;stroke-width:0.25}
		.st3 {fill:url(#grad30-6);stroke:#404040;stroke-linecap:round;stroke-linejoin:round;stroke-width:0.25}
		.st4 {fill:url(#grad30-12);stroke:#404040;stroke-linecap:round;stroke-linejoin:round;stroke-width:0.25}
		.st5 {fill:#000000;font-family:Calibri;font-size:0.666664em;font-weight:bold}
		.st6 {stroke:#00b050;stroke-linecap:round;stroke-linejoin:round;stroke-width:1.5}
		.st7 {fill:none;stroke:none;stroke-linecap:round;stroke-linejoin:round;stroke-width:0.25}
		.st8 {fill:#000000;font-family:Calibri;font-size:1.00001em;font-weight:bold}
		.st9 {stroke:#0070c0;stroke-linecap:round;stroke-linejoin:round;stroke-width:1.5}
		.st10 {stroke:#404040;stroke-linecap:round;stroke-linejoin:round;stroke-width:1}
		.st11 {fill:#cdcdcd;fill-opacity:0.5;stroke:#cdcdcd;stroke-linecap:round;stroke-linejoin:round;stroke-opacity:0.5;stroke-width:0.5}
		.st12 {fill:url(#grad30-12);stroke:#4e66b2;stroke-linecap:round;stroke-linejoin:round;stroke-width:0.5}
		.st13 {fill:#000000;font-family:Calibri;font-size:0.666664em}
		.st14 {fill:#cdcdcd;fill-opacity:0.5;stroke:#cdcdcd;stroke-linecap:round;stroke-linejoin:round;stroke-opacity:0.5;stroke-width:1}
		.st15 {fill:url(#grad30-12);stroke:#00b050;stroke-linecap:round;stroke-linejoin:round;stroke-width:1}
		.st16 {stroke:#000000;stroke-linecap:round;stroke-linejoin:round;stroke-width:1}
		.st17 {fill:url(#grad30-12);stroke:#ff0000;stroke-linecap:round;stroke-linejoin:round;stroke-width:1}
		.st18 {fill:url(#grad30-12);stroke:#ffc000;stroke-linecap:round;stroke-linejoin:round;stroke-width:1}
		.st19 {stroke:#ff0000;stroke-linecap:round;stroke-linejoin:round;stroke-width:1.5}
		.st20 {stroke:#ffc000;stroke-linecap:round;stroke-linejoin:round;stroke-width:1.5}
		.st21 {fill:#cdcdcd;fill-opacity:0.5;stroke:#cdcdcd;stroke-linecap:round;stroke-linejoin:round;stroke-opacity:0.5;stroke-width:1.5}
		.st22 {fill:url(#grad30-170);stroke:#404040;stroke-linecap:round;stroke-linejoin:round;stroke-width:1.5}
		.st23 {fill:url(#grad30-170);stroke:#4e66b2;stroke-linecap:round;stroke-linejoin:round;stroke-width:1.5}
		.st24 {fill:url(#grad30-170);stroke:#00b050;stroke-linecap:round;stroke-linejoin:round;stroke-width:1.5}
		.st25 {fill:none;fill-rule:evenodd;font-size:12;overflow:visible;stroke-linecap:square;stroke-miterlimit:3}
	]]>
	</style>

	<defs id="Patterns_And_Gradients">
		<linearGradient id="grad30-6" v:fillPattern="30" v:foreground="#f7d8c1" v:background="#fae9dc" x1="0" y1="1" x2="0" y2="0">
			<stop offset="0" style="stop-color:#f7d8c1;stop-opacity:1" />
			<stop offset="1" style="stop-color:#fae9dc;stop-opacity:1" />
		</linearGradient>
		<linearGradient id="grad30-12" v:fillPattern="30" v:foreground="#f0f0f0" v:background="#ffffff" x1="0" y1="1" x2="0" y2="0">
			<stop offset="0" style="stop-color:#f0f0f0;stop-opacity:1" />
			<stop offset="1" style="stop-color:#ffffff;stop-opacity:1" />
		</linearGradient>
		<linearGradient id="grad30-170" v:fillPattern="30" v:foreground="#efaf7a" v:foregroundOpacity="0.7" v:background="#f2bf96" v:backgroundOpacity="0.7" x1="0" y1="1" x2="0" y2="0">
			<stop offset="0" style="stop-color:#efaf7a;stop-opacity:0.7" />
			<stop offset="1" style="stop-color:#f2bf96;stop-opacity:0.7" />
		</linearGradient>
	</defs>
	<g v:mID="0" v:index="1" v:groupContext="foregroundPage">
		<v:userDefs>
			<v:ud v:nameU="msvThemeColors" v:val="VT0(36):26" />
			<v:ud v:nameU="msvThemeEffects" v:val="VT0(16):26" />
			<v:ud v:nameU="msvThemeOrder" v:val="VT0(0):26" />
		</v:userDefs>
		<title>Page-1</title>
		<v:pageProperties v:drawingScale="1" v:pageScale="1" v:drawingUnits="0" v:shadowOffsetX="9" v:shadowOffsetY="-9" />
		<v:layer v:name="A Flowchart" v:index="0" />
		<v:layer v:name="Connector" v:index="1" />
		<v:layer v:name="STOR_A_1b-FC1 red" v:index="2" />
		<v:layer v:name="A label" v:index="3" />
		<v:layer v:index="4" visibility="hidden" v:print="false" v:snap="false" v:glue="false" />
		<v:layer v:index="5" visibility="hidden" v:print="false" v:snap="false" v:glue="false" />
		<v:layer v:index="6" visibility="hidden" v:print="false" v:snap="false" v:glue="false" />
		<v:layer v:index="7" visibility="hidden" v:print="false" v:snap="false" v:glue="false" />
		<v:layer v:index="8" visibility="hidden" v:print="false" v:snap="false" v:glue="false" />
		<v:layer v:name="STOR_A_1b-FC2 brown" v:index="9" />
		<v:layer v:name="A switches tc" v:index="10" />
		<g id="shape138-1" v:mID="138" v:groupContext="shape" v:layerMember="10" transform="translate(18.25,-22.5)">
			<title>Rounded rectangle</title>
			<v:userDefs>
				<v:ud v:nameU="visVersion" v:val="VT0(14):26" />
				<v:ud v:nameU="msvThemeColors" v:val="VT0(36):26" />
				<v:ud v:nameU="msvThemeEffects" v:val="VT0(16):26" />
			</v:userDefs>
			<g id="shadow138-2" v:groupContext="shadow" v:shadowOffsetX="1.44" v:shadowOffsetY="-1.44" v:shadowType="1" transform="matrix(1,0,0,1,1.44,1.44)" class="st1">
				<path d="M363.83 473.31 A14.1733 14.1733 -180 0 0 378 459.14 L378 54.92 A14.1733 14.1733 -180 0 0 363.83 40.75 L14.17         40.75 A14.1733 14.1733 -180 0 0 -0 54.92 L0 459.14 A14.1733 14.1733 -180 0 0 14.17 473.31 L363.83 473.31         Z" class="st2" />
			</g>
			<path d="M363.83 473.31 A14.1733 14.1733 -180 0 0 378 459.14 L378 54.92 A14.1733 14.1733 -180 0 0 363.83 40.75 L14.17        40.75 A14.1733 14.1733 -180 0 0 -0 54.92 L0 459.14 A14.1733 14.1733 -180 0 0 14.17 473.31 L363.83 473.31        Z" class="st3" />
		</g>
		<g id="shape27-7" v:mID="27" v:groupContext="shape" v:layerMember="10" transform="translate(86.625,-346.5)">
			<title>Rounded rectangle.27</title>
			<desc>FC_switch_A_1</desc>
			<v:userDefs>
				<v:ud v:nameU="visVersion" v:val="VT0(14):26" />
				<v:ud v:nameU="msvThemeColors" v:val="VT0(36):26" />
				<v:ud v:nameU="msvThemeEffects" v:val="VT0(16):26" />
			</v:userDefs>
			<v:textBlock v:margins="rect(4,4,4,4)" v:tabSpace="42.5197" />
			<v:textRect cx="119.25" cy="445.188" width="238.5" height="56.25" />
			<g id="shadow27-8" v:groupContext="shadow" v:shadowOffsetX="1.44" v:shadowOffsetY="-1.44" v:shadowType="1" transform="matrix(1,0,0,1,1.44,1.44)" class="st1">
				<path d="M224.33 473.31 A14.1733 14.1733 -180 0 0 238.5 459.14 L238.5 431.24 A14.1733 14.1733 -180 0 0 224.33 417.06         L14.17 417.06 A14.1733 14.1733 -180 0 0 0 431.24 L0 459.14 A14.1733 14.1733 -180 0 0 14.17 473.31 L224.33         473.31 Z" class="st2" />
			</g>
			<path d="M224.33 473.31 A14.1733 14.1733 -180 0 0 238.5 459.14 L238.5 431.24 A14.1733 14.1733 -180 0 0 224.33 417.06        L14.17 417.06 A14.1733 14.1733 -180 0 0 0 431.24 L0 459.14 A14.1733 14.1733 -180 0 0 14.17 473.31 L224.33        473.31 Z" class="st4" />
			<text x="94.1" y="447.59" class="st5" v:langID="1033"><v:paragraph v:horizAlign="1" /><v:tabList />FC_switch_A_1</text>		</g>
		<g id="group41-14" transform="translate(91.125,-238.5)" v:mID="41" v:groupContext="group" v:layerMember="10">
			<v:userDefs>
				<v:ud v:nameU="msvThemeColors" v:val="VT0(36):26" />
				<v:ud v:nameU="msvThemeEffects" v:val="VT0(16):26" />
			</v:userDefs>
			<title>Sheet.41</title>
			<g id="shape42-15" v:mID="42" v:groupContext="shape" v:layerMember="10">
				<title>Rounded rectangle</title>
				<desc>FC_switch_A_2</desc>
				<v:userDefs>
					<v:ud v:nameU="visVersion" v:val="VT0(14):26" />
					<v:ud v:nameU="msvThemeColors" v:val="VT0(36):26" />
					<v:ud v:nameU="msvThemeEffects" v:val="VT0(16):26" />
				</v:userDefs>
				<v:textBlock v:margins="rect(4,4,4,4)" v:tabSpace="42.5197" />
				<v:textRect cx="117" cy="445.188" width="234" height="56.25" />
				<g id="shadow42-16" v:groupContext="shadow" v:shadowOffsetX="1.44" v:shadowOffsetY="-1.44" v:shadowType="1" transform="matrix(1,0,0,1,1.44,1.44)" class="st1">
					<path d="M219.83 473.31 A14.1733 14.1733 -180 0 0 234 459.14 L234 431.24 A14.1733 14.1733 -180 0 0 219.83 417.06          L14.17 417.06 A14.1733 14.1733 -180 0 0 0 431.24 L0 459.14 A14.1733 14.1733 -180 0 0 14.17 473.31          L219.83 473.31 Z" class="st2" />
				</g>
				<path d="M219.83 473.31 A14.1733 14.1733 -180 0 0 234 459.14 L234 431.24 A14.1733 14.1733 -180 0 0 219.83 417.06         L14.17 417.06 A14.1733 14.1733 -180 0 0 0 431.24 L0 459.14 A14.1733 14.1733 -180 0 0 14.17 473.31 L219.83         473.31 Z" class="st4" />
				<text x="91.85" y="447.59" class="st5" v:langID="1033"><v:paragraph v:horizAlign="1" /><v:tabList />FC_switch_A_2</text>			</g>
		</g>
		<g id="group17-21" transform="translate(100.375,-18)" v:mID="17" v:groupContext="group">
			<v:userDefs>
				<v:ud v:nameU="msvThemeColors" v:val="VT0(36):26" />
				<v:ud v:nameU="msvThemeEffects" v:val="VT0(16):26" />
			</v:userDefs>
			<title>Sheet.17</title>
		</g>
		<g id="group90-22" transform="translate(111.615,-96.7416)" v:mID="90" v:groupContext="group" v:layerMember="10">
			<v:userDefs>
				<v:ud v:nameU="msvThemeColors" v:val="VT0(36):26" />
				<v:ud v:nameU="msvThemeEffects" v:val="VT0(16):26" />
			</v:userDefs>
			<title>Sheet.90</title>
		</g>
		<g id="group14-23" transform="translate(325.125,-247.5)" v:mID="14" v:groupContext="group">
			<v:userDefs>
				<v:ud v:nameU="msvThemeColors" v:val="VT0(36):26" />
				<v:ud v:nameU="msvThemeEffects" v:val="VT0(16):26" />
			</v:userDefs>
			<title>Sheet.14</title>
			<g id="shape141-24" v:mID="141" v:groupContext="shape" v:layerMember="10" transform="translate(0,-108)">
				<title>45 degree double.141</title>
				<v:userDefs>
					<v:ud v:nameU="visVersion" v:val="VT0(14):26" />
					<v:ud v:nameU="msvThemeColors" v:val="VT0(36):26" />
					<v:ud v:nameU="msvThemeEffects" v:val="VT0(16):26" />
				</v:userDefs>
				<g id="shadow141-25" v:groupContext="shadow" v:shadowOffsetX="1.44" v:shadowOffsetY="-1.44" v:shadowType="1" transform="matrix(1,0,0,1,1.44,1.44)" class="st1">
					<path d="M0 464.31 L9 455.31 L9 461.25 L81 461.25 L81 455.31 L90 464.31 L81 473.31 L81 467.37 L9 467.37 L9 473.31          L0 464.31 Z" class="st2" />
				</g>
				<path d="M0 464.31 L9 455.31 L9 461.25 L81 461.25 L81 455.31 L90 464.31 L81 473.31 L81 467.37 L9 467.37 L9 473.31         L0 464.31 Z" class="st4" />
			</g>
			<g id="shape140-29" v:mID="140" v:groupContext="shape" v:layerMember="10" transform="translate(0.287894,-130.5)">
				<title>45 degree double</title>
				<v:userDefs>
					<v:ud v:nameU="visVersion" v:val="VT0(14):26" />
					<v:ud v:nameU="msvThemeColors" v:val="VT0(36):26" />
					<v:ud v:nameU="msvThemeEffects" v:val="VT0(16):26" />
				</v:userDefs>
				<g id="shadow140-30" v:groupContext="shadow" v:shadowOffsetX="1.44" v:shadowOffsetY="-1.44" v:shadowType="1" transform="matrix(1,0,0,1,1.44,1.44)" class="st1">
					<path d="M0 464.31 L9 455.31 L9 461.25 L80.71 461.25 L80.71 455.31 L89.71 464.31 L80.71 473.31 L80.71 467.37          L9 467.37 L9 473.31 L0 464.31 Z" class="st2" />
				</g>
				<path d="M0 464.31 L9 455.31 L9 461.25 L80.71 461.25 L80.71 455.31 L89.71 464.31 L80.71 473.31 L80.71 467.37 L9 467.37         L9 473.31 L0 464.31 Z" class="st4" />
			</g>
			<g id="shape142-34" v:mID="142" v:groupContext="shape" v:layerMember="10" transform="translate(0,-22.5)">
				<title>45 degree double.142</title>
				<v:userDefs>
					<v:ud v:nameU="visVersion" v:val="VT0(14):26" />
					<v:ud v:nameU="msvThemeColors" v:val="VT0(36):26" />
					<v:ud v:nameU="msvThemeEffects" v:val="VT0(16):26" />
				</v:userDefs>
				<g id="shadow142-35" v:groupContext="shadow" v:shadowOffsetX="1.44" v:shadowOffsetY="-1.44" v:shadowType="1" transform="matrix(1,0,0,1,1.44,1.44)" class="st1">
					<path d="M0 464.31 L9 455.31 L9 461.25 L80.71 461.25 L80.71 455.31 L89.71 464.31 L80.71 473.31 L80.71 467.37          L9 467.37 L9 473.31 L0 464.31 Z" class="st2" />
				</g>
				<path d="M0 464.31 L9 455.31 L9 461.25 L80.71 461.25 L80.71 455.31 L89.71 464.31 L80.71 473.31 L80.71 467.37 L9 467.37         L9 473.31 L0 464.31 Z" class="st4" />
			</g>
			<g id="shape143-39" v:mID="143" v:groupContext="shape" v:layerMember="10" transform="translate(0.287894,5.68434E-014)">
				<title>45 degree double.143</title>
				<v:userDefs>
					<v:ud v:nameU="visVersion" v:val="VT0(14):26" />
					<v:ud v:nameU="msvThemeColors" v:val="VT0(36):26" />
					<v:ud v:nameU="msvThemeEffects" v:val="VT0(16):26" />
				</v:userDefs>
				<g id="shadow143-40" v:groupContext="shadow" v:shadowOffsetX="1.44" v:shadowOffsetY="-1.44" v:shadowType="1" transform="matrix(1,0,0,1,1.44,1.44)" class="st1">
					<path d="M0 464.31 L9 455.31 L9 461.25 L80.71 461.25 L80.71 455.31 L89.71 464.31 L80.71 473.31 L80.71 467.37          L9 467.37 L9 473.31 L0 464.31 Z" class="st2" />
				</g>
				<path d="M0 464.31 L9 455.31 L9 461.25 L80.71 461.25 L80.71 455.31 L89.71 464.31 L80.71 473.31 L80.71 467.37 L9 467.37         L9 473.31 L0 464.31 Z" class="st4" />
			</g>
		</g>
		<g id="shape119-44" v:mID="119" v:groupContext="shape" v:layerMember="2" transform="translate(85.4284,-61.1646)">
			<title>Dynamic connector.119</title>
			<v:userDefs>
				<v:ud v:nameU="msvThemeColors" v:val="VT0(36):26" />
				<v:ud v:nameU="msvThemeEffects" v:val="VT0(16):26" />
			</v:userDefs>
			<path d="M0 473.31 L0 493.98 L-57.3 493.98 L-57.3 223.98 L-23.28 223.98 A3 3 0 0 1 -17.28 223.98 L142.3 223.98 L142.3        239.73" class="st6" />
		</g>
		<g id="shape144-48" v:mID="144" v:groupContext="shape" v:layerMember="10" transform="translate(145.125,-438.19)">
			<title>Sheet.144</title>
			<desc>site_A</desc>
			<v:userDefs>
				<v:ud v:nameU="msvThemeColors" v:val="VT0(36):26" />
				<v:ud v:nameU="msvThemeEffects" v:val="VT0(16):26" />
			</v:userDefs>
			<v:textBlock v:margins="rect(2,2,2,2)" />
			<v:textRect cx="54" cy="468.813" width="108" height="9" />
			<rect x="0" y="464.313" width="108" height="9" class="st7" />
			<text x="38.41" y="472.41" class="st8" v:langID="1033"><v:paragraph v:horizAlign="1" /><v:tabList />site_A</text>		</g>
		<g id="shape15-51" v:mID="15" v:groupContext="shape" transform="translate(415.125,-236.25)">
			<title>Rectangle</title>
			<desc>site_B</desc>
			<v:userDefs>
				<v:ud v:nameU="visVersion" v:val="VT0(14):26" />
				<v:ud v:nameU="msvThemeColors" v:val="VT0(36):26" />
				<v:ud v:nameU="msvThemeEffects" v:val="VT0(16):26" />
			</v:userDefs>
			<v:textBlock v:margins="rect(2,2,2,2)" />
			<v:textRect cx="18" cy="387.813" width="36" height="171" transform="rotate(-90)" />
			<g id="shadow15-52" v:groupContext="shadow" v:shadowOffsetX="1.44" v:shadowOffsetY="-1.44" v:shadowType="1" transform="matrix(1,0,0,1,1.44,1.44)" class="st1">
				<rect x="0" y="302.313" width="36" height="171" class="st2" />
			</g>
			<rect x="0" y="302.313" width="36" height="171" class="st4" />
			<text x="-403.13" y="21.6" transform="rotate(-90)" class="st8" v:langID="1033"><v:paragraph v:horizAlign="1" /><v:tabList />site_B</text>		</g>
		<g id="shape2-57" v:mID="2" v:groupContext="shape" v:layerMember="1" transform="translate(65.1517,-209.302)">
			<title>Dynamic connector.2</title>
			<v:userDefs>
				<v:ud v:nameU="msvThemeColors" v:val="VT0(36):26" />
				<v:ud v:nameU="msvThemeEffects" v:val="VT0(16):26" />
			</v:userDefs>
			<path d="M0 473.31 L0 259.61 L161.94 259.61 L161.94 279.86" class="st9" />
		</g>
		<g id="shape6-61" v:mID="6" v:groupContext="shape" transform="translate(455.375,-120.872)">
			<title>Sheet.6</title>
			<v:userDefs>
				<v:ud v:nameU="msvThemeColors" v:val="VT0(36):26" />
				<v:ud v:nameU="msvThemeEffects" v:val="VT0(16):26" />
			</v:userDefs>
			<rect x="0" y="461.313" width="100" height="12" class="st7" />
		</g>
		<g id="group12-63" transform="translate(179.125,-92.81)" v:mID="12" v:groupContext="group">
			<v:userDefs>
				<v:ud v:nameU="msvThemeColors" v:val="VT0(36):26" />
				<v:ud v:nameU="msvThemeEffects" v:val="VT0(16):26" />
			</v:userDefs>
			<title>Sheet.12</title>
		</g>
		<g id="group16-64" transform="translate(179.125,-92.81)" v:mID="16" v:groupContext="group">
			<v:userDefs>
				<v:ud v:nameU="msvThemeColors" v:val="VT0(36):26" />
				<v:ud v:nameU="msvThemeEffects" v:val="VT0(16):26" />
			</v:userDefs>
			<title>Sheet.16</title>
		</g>
		<g id="group95-65" transform="translate(99.5644,-110.25)" v:mID="95" v:groupContext="group" v:layerMember="10">
			<v:userDefs>
				<v:ud v:nameU="msvThemeColors" v:val="VT0(36):26" />
				<v:ud v:nameU="msvThemeEffects" v:val="VT0(16):26" />
			</v:userDefs>
			<title>Sheet.95</title>
			<g id="shape94-66" v:mID="94" v:groupContext="shape" v:layerMember="10">
				<title>Ellipse</title>
				<desc>SAS stack</desc>
				<v:userDefs>
					<v:ud v:nameU="visVersion" v:val="VT0(14):26" />
					<v:ud v:nameU="msvThemeColors" v:val="VT0(36):26" />
					<v:ud v:nameU="msvThemeEffects" v:val="VT0(16):26" />
				</v:userDefs>
				<v:textBlock v:margins="rect(4,4,4,4)" v:tabSpace="42.5197" />
				<v:textRect cx="30.0401" cy="454.069" width="52.58" height="33.6768" />
				<g id="shadow94-67" v:groupContext="shadow" v:shadowOffsetX="1.44" v:shadowOffsetY="-1.44" v:shadowType="1" transform="matrix(1,0,0,1,1.44,1.44)" class="st1">
					<path d="M0 454.07 A30.0401 19.2439 0 1 1 60.08 454.07 A30.0401 19.2439 0 1 1 0 454.07 Z" class="st2" />
				</g>
				<path d="M0 454.07 A30.0401 19.2439 0 1 1 60.08 454.07 A30.0401 19.2439 0 1 1 0 454.07 Z" class="st4" />
				<text x="14.38" y="456.47" class="st5" v:langID="1033"><v:paragraph v:horizAlign="1" /><v:tabList />SAS stack</text>			</g>
		</g>
		<g id="shape97-72" v:mID="97" v:groupContext="shape" v:layerMember="0" transform="translate(66.366,-164.537)">
			<title>Dynamic connector.97</title>
			<v:userDefs>
				<v:ud v:nameU="msvThemeColors" v:val="VT0(36):26" />
				<v:ud v:nameU="msvThemeEffects" v:val="VT0(16):26" />
			</v:userDefs>
			<path d="M0 475.51 L0 484.51 L63.24 484.51 L63.24 489.11" class="st10" />
		</g>
		<g id="group18-76" transform="translate(63,-61.1646)" v:mID="18" v:groupContext="group">
			<v:userDefs>
				<v:ud v:nameU="msvThemeColors" v:val="VT0(36):26" />
				<v:ud v:nameU="msvThemeEffects" v:val="VT0(16):26" />
			</v:userDefs>
			<title>Sheet.18</title>
			<g id="shape13-77" v:mID="13" v:groupContext="shape" v:layerMember="10">
				<title>Rectangle.85</title>
				<desc>bridge_A_1b (6500N)</desc>
				<v:userDefs>
					<v:ud v:nameU="visVersion" v:val="VT0(14):26" />
					<v:ud v:nameU="msvThemeColors" v:val="VT0(36):26" />
					<v:ud v:nameU="msvThemeEffects" v:val="VT0(16):26" />
				</v:userDefs>
				<v:textBlock v:margins="rect(4,4,4,4)" v:tabSpace="42.5197" v:verticalAlign="2" />
				<v:textRect cx="74.375" cy="453.331" width="148.75" height="39.9627" />
				<g id="shadow13-78" v:groupContext="shadow" v:shadowOffsetX="1.44" v:shadowOffsetY="-1.44" v:shadowType="1" transform="matrix(1,0,0,1,1.44,1.44)" class="st1">
					<rect x="0" y="433.35" width="148.75" height="39.9627" class="st2" />
				</g>
				<rect x="0" y="433.35" width="148.75" height="39.9627" class="st4" />
				<text x="74.09" y="466.91" class="st5" v:langID="1033"><v:paragraph v:horizAlign="2" /><v:tabList />bridge_A_1b (6500N)</text>			</g>
			<g id="group20-83" transform="translate(51.9318,-23.7439)" v:mID="20" v:groupContext="group" v:layerMember="10">
				<v:userDefs>
					<v:ud v:nameU="msvThemeColors" v:val="VT0(36):26" />
					<v:ud v:nameU="msvThemeEffects" v:val="VT0(16):26" />
				</v:userDefs>
				<title>Sheet.20</title>
				<g id="shape21-84" v:mID="21" v:groupContext="shape" v:layerMember="10" transform="translate(-0.120927,0.400261)">
					<title>Rectangle</title>
					<desc>SAS A</desc>
					<v:userDefs>
						<v:ud v:nameU="visVersion" v:val="VT0(14):26" />
						<v:ud v:nameU="msvThemeColors" v:val="VT0(36):26" />
						<v:ud v:nameU="msvThemeEffects" v:val="VT0(16):26" />
					</v:userDefs>
					<v:textBlock v:margins="rect(4,4,4,4)" v:tabSpace="42.5197" />
					<v:textRect cx="14.6544" cy="465.142" width="29.31" height="16.3416" />
					<g id="shadow21-85" v:groupContext="shadow" v:shadowOffsetX="1.44" v:shadowOffsetY="-1.44" v:shadowType="1" transform="matrix(1,0,0,1,1.44,1.44)" class="st1">
						<rect x="0" y="456.971" width="29.3089" height="16.3416" class="st11" />
					</g>
					<rect x="0" y="456.971" width="29.3089" height="16.3416" class="st12" />
					<text x="5.45" y="467.54" class="st13" v:langID="1033"><v:paragraph v:horizAlign="1" /><v:tabList />SAS A</text>				</g>
			</g>
			<g id="shape91-90" v:mID="91" v:groupContext="shape" v:layerMember="10" transform="translate(11.0909,5.68434E-014)">
				<title>Rectangle</title>
				<desc>FC1</desc>
				<v:userDefs>
					<v:ud v:nameU="visVersion" v:val="VT0(14):26" />
					<v:ud v:nameU="msvThemeColors" v:val="VT0(36):26" />
					<v:ud v:nameU="msvThemeEffects" v:val="VT0(16):26" />
				</v:userDefs>
				<v:textBlock v:margins="rect(4,4,4,4)" v:tabSpace="42.5197" />
				<v:textRect cx="11.3376" cy="465.142" width="22.68" height="16.3416" />
				<g id="shadow91-91" v:groupContext="shadow" v:shadowOffsetX="1.44" v:shadowOffsetY="-1.44" v:shadowType="1" transform="matrix(1,0,0,1,1.44,1.44)" class="st1">
					<rect x="0" y="456.971" width="22.6751" height="16.3416" class="st14" />
				</g>
				<rect x="0" y="456.971" width="22.6751" height="16.3416" class="st15" />
				<text x="5.34" y="467.54" class="st13" v:langID="1033"><v:paragraph v:horizAlign="1" /><v:tabList />FC1</text>			</g>
		</g>
		<g id="shape19-96" v:mID="19" v:groupContext="shape" v:layerMember="1" transform="translate(138.535,-114.55)">
			<title>Dynamic connector.19</title>
			<v:userDefs>
				<v:ud v:nameU="msvThemeColors" v:val="VT0(36):26" />
				<v:ud v:nameU="msvThemeEffects" v:val="VT0(16):26" />
			</v:userDefs>
			<path d="M-8.93 477.61 L-8.93 482.11 L-9.07 482.11 L-9.07 487.01" class="st16" />
		</g>
		<g id="group26-100" transform="translate(260.688,-112.305)" v:mID="26" v:groupContext="group" v:layerMember="10">
			<v:userDefs>
				<v:ud v:nameU="msvThemeColors" v:val="VT0(36):26" />
				<v:ud v:nameU="msvThemeEffects" v:val="VT0(16):26" />
			</v:userDefs>
			<title>Sheet.26</title>
			<g id="shape43-101" v:mID="43" v:groupContext="shape" v:layerMember="10">
				<title>Ellipse</title>
				<desc>SAS stack</desc>
				<v:userDefs>
					<v:ud v:nameU="visVersion" v:val="VT0(14):26" />
					<v:ud v:nameU="msvThemeColors" v:val="VT0(36):26" />
					<v:ud v:nameU="msvThemeEffects" v:val="VT0(16):26" />
				</v:userDefs>
				<v:textBlock v:margins="rect(4,4,4,4)" v:tabSpace="42.5197" />
				<v:textRect cx="30.444" cy="453.81" width="53.28" height="34.1296" />
				<g id="shadow43-102" v:groupContext="shadow" v:shadowOffsetX="1.44" v:shadowOffsetY="-1.44" v:shadowType="1" transform="matrix(1,0,0,1,1.44,1.44)" class="st1">
					<path d="M0 453.81 A30.444 19.5026 0 1 1 60.89 453.81 A30.444 19.5026 0 1 1 -0 453.81 Z" class="st2" />
				</g>
				<path d="M0 453.81 A30.444 19.5026 0 1 1 60.89 453.81 A30.444 19.5026 0 1 1 -0 453.81 Z" class="st4" />
				<text x="14.78" y="456.21" class="st5" v:langID="1033"><v:paragraph v:horizAlign="1" /><v:tabList />SAS stack</text>			</g>
		</g>
		<g id="shape56-107" v:mID="56" v:groupContext="shape" v:layerMember="0" transform="translate(300.21,-165.562)">
			<title>Dynamic connector.56</title>
			<v:userDefs>
				<v:ud v:nameU="msvThemeColors" v:val="VT0(36):26" />
				<v:ud v:nameU="msvThemeEffects" v:val="VT0(16):26" />
			</v:userDefs>
			<path d="M-8.92 477.06 L-8.92 481.56 L-9.08 481.56 L-9.08 487.56" class="st10" />
		</g>
		<g id="group57-111" transform="translate(223.563,-161.5)" v:mID="57" v:groupContext="group">
			<v:userDefs>
				<v:ud v:nameU="msvThemeColors" v:val="VT0(36):26" />
				<v:ud v:nameU="msvThemeEffects" v:val="VT0(16):26" />
			</v:userDefs>
			<title>Sheet.57</title>
			<g id="shape58-112" v:mID="58" v:groupContext="shape" v:layerMember="10">
				<title>Rectangle.85</title>
				<desc>bridge_A_3a (6500N)</desc>
				<v:userDefs>
					<v:ud v:nameU="visVersion" v:val="VT0(14):26" />
					<v:ud v:nameU="msvThemeColors" v:val="VT0(36):26" />
					<v:ud v:nameU="msvThemeEffects" v:val="VT0(16):26" />
				</v:userDefs>
				<v:textBlock v:margins="rect(4,4,4,4)" v:verticalAlign="0" />
				<v:textRect cx="75.375" cy="453.063" width="150.75" height="40.5" />
				<g id="shadow58-113" v:groupContext="shadow" v:shadowOffsetX="1.44" v:shadowOffsetY="-1.44" v:shadowType="1" transform="matrix(1,0,0,1,1.44,1.44)" class="st1">
					<rect x="0" y="432.813" width="150.75" height="40.5" class="st2" />
				</g>
				<rect x="0" y="432.813" width="150.75" height="40.5" class="st4" />
				<text x="76.43" y="444.01" class="st5" v:langID="1033"><v:paragraph v:horizAlign="2" /><v:tabList />bridge_A_3a (6500N)</text>			</g>
			<g id="group59-118" transform="translate(11.24,-23.9387)" v:mID="59" v:groupContext="group" v:layerMember="10">
				<v:userDefs>
					<v:ud v:nameU="msvThemeColors" v:val="VT0(36):26" />
					<v:ud v:nameU="msvThemeEffects" v:val="VT0(16):26" />
				</v:userDefs>
				<title>Sheet.59</title>
				<g id="shape60-119" v:mID="60" v:groupContext="shape" v:layerMember="10">
					<title>Rectangle</title>
					<desc>FC1</desc>
					<v:userDefs>
						<v:ud v:nameU="visVersion" v:val="VT0(14):26" />
						<v:ud v:nameU="msvThemeColors" v:val="VT0(36):26" />
						<v:ud v:nameU="msvThemeEffects" v:val="VT0(16):26" />
					</v:userDefs>
					<v:textBlock v:margins="rect(4,4,4,4)" v:tabSpace="42.5197" />
					<v:textRect cx="11.49" cy="465.032" width="22.99" height="16.5613" />
					<g id="shadow60-120" v:groupContext="shadow" v:shadowOffsetX="1.44" v:shadowOffsetY="-1.44" v:shadowType="1" transform="matrix(1,0,0,1,1.44,1.44)" class="st1">
						<rect x="0" y="456.751" width="22.98" height="16.5613" class="st14" />
					</g>
					<rect x="0" y="456.751" width="22.98" height="16.5613" class="st17" />
					<text x="5.49" y="467.43" class="st13" v:langID="1033"><v:paragraph v:horizAlign="1" /><v:tabList />FC1</text>				</g>
			</g>
			<g id="group63-125" transform="translate(53.51,-0.719357)" v:mID="63" v:groupContext="group" v:layerMember="10">
				<v:userDefs>
					<v:ud v:nameU="msvThemeColors" v:val="VT0(36):26" />
					<v:ud v:nameU="msvThemeEffects" v:val="VT0(16):26" />
				</v:userDefs>
				<title>Sheet.63</title>
				<g id="shape64-126" v:mID="64" v:groupContext="shape" v:layerMember="10" transform="translate(-0.635,0.405643)">
					<title>Rectangle</title>
					<desc>SAS A</desc>
					<v:userDefs>
						<v:ud v:nameU="visVersion" v:val="VT0(14):26" />
						<v:ud v:nameU="msvThemeColors" v:val="VT0(36):26" />
						<v:ud v:nameU="msvThemeEffects" v:val="VT0(16):26" />
					</v:userDefs>
					<v:textBlock v:margins="rect(4,4,4,4)" v:tabSpace="42.5197" />
					<v:textRect cx="14.8515" cy="465.032" width="29.71" height="16.5613" />
					<g id="shadow64-127" v:groupContext="shadow" v:shadowOffsetX="1.44" v:shadowOffsetY="-1.44" v:shadowType="1" transform="matrix(1,0,0,1,1.44,1.44)" class="st1">
						<rect x="0" y="456.751" width="29.7029" height="16.5613" class="st11" />
					</g>
					<rect x="0" y="456.751" width="29.7029" height="16.5613" class="st12" />
					<text x="5.64" y="467.43" class="st13" v:langID="1033"><v:paragraph v:horizAlign="1" /><v:tabList />SAS A</text>				</g>
			</g>
		</g>
		<g id="group68-132" transform="translate(224.688,-67.3756)" v:mID="68" v:groupContext="group">
			<v:userDefs>
				<v:ud v:nameU="msvThemeColors" v:val="VT0(36):26" />
				<v:ud v:nameU="msvThemeEffects" v:val="VT0(16):26" />
			</v:userDefs>
			<title>Sheet.68</title>
			<g id="shape69-133" v:mID="69" v:groupContext="shape" v:layerMember="10" transform="translate(0,6.75)">
				<title>Rectangle.85</title>
				<desc>bridge_A_3b (6500N)</desc>
				<v:userDefs>
					<v:ud v:nameU="visVersion" v:val="VT0(14):26" />
					<v:ud v:nameU="msvThemeColors" v:val="VT0(36):26" />
					<v:ud v:nameU="msvThemeEffects" v:val="VT0(16):26" />
				</v:userDefs>
				<v:textBlock v:margins="rect(4,4,4,4)" v:verticalAlign="2" />
				<v:textRect cx="75.375" cy="453.063" width="150.75" height="40.5" />
				<g id="shadow69-134" v:groupContext="shadow" v:shadowOffsetX="1.44" v:shadowOffsetY="-1.44" v:shadowType="1" transform="matrix(1,0,0,1,1.44,1.44)" class="st1">
					<rect x="0" y="432.813" width="150.75" height="40.5" class="st2" />
				</g>
				<rect x="0" y="432.813" width="150.75" height="40.5" class="st4" />
				<text x="76.09" y="466.91" class="st5" v:langID="1033"><v:paragraph v:horizAlign="2" /><v:tabList />bridge_A_3b (6500N)</text>			</g>
			<g id="group70-139" transform="translate(51.75,-17.3131)" v:mID="70" v:groupContext="group" v:layerMember="10">
				<v:userDefs>
					<v:ud v:nameU="msvThemeColors" v:val="VT0(36):26" />
					<v:ud v:nameU="msvThemeEffects" v:val="VT0(16):26" />
				</v:userDefs>
				<title>Sheet.70</title>
				<g id="shape71-140" v:mID="71" v:groupContext="shape" v:layerMember="10" transform="translate(-0.122553,0.405643)">
					<title>Rectangle</title>
					<desc>SAS A</desc>
					<v:userDefs>
						<v:ud v:nameU="visVersion" v:val="VT0(14):26" />
						<v:ud v:nameU="msvThemeColors" v:val="VT0(36):26" />
						<v:ud v:nameU="msvThemeEffects" v:val="VT0(16):26" />
					</v:userDefs>
					<v:textBlock v:margins="rect(4,4,4,4)" v:tabSpace="42.5197" />
					<v:textRect cx="14.8515" cy="465.032" width="29.71" height="16.5613" />
					<g id="shadow71-141" v:groupContext="shadow" v:shadowOffsetX="1.44" v:shadowOffsetY="-1.44" v:shadowType="1" transform="matrix(1,0,0,1,1.44,1.44)" class="st1">
						<rect x="0" y="456.751" width="29.7029" height="16.5613" class="st11" />
					</g>
					<rect x="0" y="456.751" width="29.7029" height="16.5613" class="st12" />
					<text x="5.64" y="467.43" class="st13" v:langID="1033"><v:paragraph v:horizAlign="1" /><v:tabList />SAS A</text>				</g>
			</g>
			<g id="shape75-146" v:mID="75" v:groupContext="shape" v:layerMember="10" transform="translate(11.24,6.03064)">
				<title>Rectangle</title>
				<desc>FC1</desc>
				<v:userDefs>
					<v:ud v:nameU="visVersion" v:val="VT0(14):26" />
					<v:ud v:nameU="msvThemeColors" v:val="VT0(36):26" />
					<v:ud v:nameU="msvThemeEffects" v:val="VT0(16):26" />
				</v:userDefs>
				<v:textBlock v:margins="rect(4,4,4,4)" v:tabSpace="42.5197" />
				<v:textRect cx="11.49" cy="465.032" width="22.99" height="16.5613" />
				<g id="shadow75-147" v:groupContext="shadow" v:shadowOffsetX="1.44" v:shadowOffsetY="-1.44" v:shadowType="1" transform="matrix(1,0,0,1,1.44,1.44)" class="st1">
					<rect x="0" y="456.751" width="22.98" height="16.5613" class="st14" />
				</g>
				<rect x="0" y="456.751" width="22.98" height="16.5613" class="st18" />
				<text x="5.49" y="467.43" class="st13" v:langID="1033"><v:paragraph v:horizAlign="1" /><v:tabList />FC1</text>			</g>
		</g>
		<g id="shape80-152" v:mID="80" v:groupContext="shape" v:layerMember="1" transform="translate(240.676,-202)">
			<title>Dynamic connector</title>
			<v:userDefs>
				<v:ud v:nameU="msvThemeColors" v:val="VT0(36):26" />
				<v:ud v:nameU="msvThemeEffects" v:val="VT0(16):26" />
			</v:userDefs>
			<path d="M5.62 473.31 L5.62 450.31 L109.45 450.31 L109.45 252.31 L12.38 252.31 L12.38 272.56" class="st19" />
		</g>
		<g id="shape83-156" v:mID="83" v:groupContext="shape" v:layerMember="1" transform="translate(241.255,-61.345)">
			<title>Dynamic connector.83</title>
			<v:userDefs>
				<v:ud v:nameU="msvThemeColors" v:val="VT0(36):26" />
				<v:ud v:nameU="msvThemeEffects" v:val="VT0(16):26" />
			</v:userDefs>
			<path d="M6.16 473.31 L6.16 494.72 L147.12 494.72 L147.12 224.16 L111.87 224.16 A3 3 -180 0 0 105.87 224.16 L11.84 224.16        L11.84 239.91" class="st20" />
		</g>
		<g id="shape76-160" v:mID="76" v:groupContext="shape" v:layerMember="1" transform="translate(282.149,-115.575)">
			<title>Dynamic connector.76</title>
			<v:userDefs>
				<v:ud v:nameU="msvThemeColors" v:val="VT0(36):26" />
				<v:ud v:nameU="msvThemeEffects" v:val="VT0(16):26" />
			</v:userDefs>
			<path d="M8.98 476.58 L8.98 481.08 L9.02 481.08 L9.02 488.04" class="st16" />
		</g>
		<g id="group3-164" transform="translate(36,-162)" v:mID="3" v:groupContext="group">
			<v:userDefs>
				<v:ud v:nameU="msvThemeColors" v:val="VT0(36):26" />
				<v:ud v:nameU="msvThemeEffects" v:val="VT0(16):26" />
			</v:userDefs>
			<title>Sheet.3</title>
			<g id="shape85-165" v:mID="85" v:groupContext="shape" v:layerMember="10">
				<title>Rectangle.85</title>
				<desc>bridge_A_1a (7500N)</desc>
				<v:userDefs>
					<v:ud v:nameU="visVersion" v:val="VT0(14):26" />
					<v:ud v:nameU="msvThemeColors" v:val="VT0(36):26" />
					<v:ud v:nameU="msvThemeEffects" v:val="VT0(16):26" />
				</v:userDefs>
				<v:textBlock v:margins="rect(4,4,4,4)" v:tabSpace="42.5197" v:verticalAlign="0" />
				<v:textRect cx="87.875" cy="449.704" width="175.75" height="47.2164" />
				<g id="shadow85-166" v:groupContext="shadow" v:shadowOffsetX="1.44" v:shadowOffsetY="-1.44" v:shadowType="1" transform="matrix(1,0,0,1,1.44,1.44)" class="st1">
					<rect x="0" y="426.096" width="175.75" height="47.2164" class="st21" />
				</g>
				<rect x="0" y="426.096" width="175.75" height="47.2164" class="st22" />
				<text x="101.43" y="437.3" class="st5" v:langID="1033"><v:paragraph v:horizAlign="2" /><v:tabList />bridge_A_1a (7500N)</text>			</g>
			<g id="group55-172" transform="translate(16.8708,-29.6003)" v:mID="55" v:groupContext="group" v:layerMember="10">
				<v:userDefs>
					<v:ud v:nameU="msvThemeColors" v:val="VT0(36):26" />
					<v:ud v:nameU="msvThemeEffects" v:val="VT0(16):26" />
				</v:userDefs>
				<title>Sheet.55</title>
				<g id="shape86-173" v:mID="86" v:groupContext="shape" v:layerMember="10">
					<title>Rectangle</title>
					<desc>FC1</desc>
					<v:userDefs>
						<v:ud v:nameU="visVersion" v:val="VT0(14):26" />
						<v:ud v:nameU="msvThemeColors" v:val="VT0(36):26" />
						<v:ud v:nameU="msvThemeEffects" v:val="VT0(16):26" />
					</v:userDefs>
					<v:textBlock v:margins="rect(4,4,4,4)" v:tabSpace="42.5197" />
					<v:textRect cx="12.2809" cy="464.462" width="24.57" height="17.7013" />
					<g id="shadow86-174" v:groupContext="shadow" v:shadowOffsetX="1.44" v:shadowOffsetY="-1.44" v:shadowType="1" transform="matrix(1,0,0,1,1.44,1.44)" class="st1">
						<rect x="0" y="455.611" width="24.5618" height="17.7013" class="st21" />
					</g>
					<rect x="0" y="455.611" width="24.5618" height="17.7013" class="st23" />
					<text x="6.28" y="466.86" class="st13" v:langID="1033"><v:paragraph v:horizAlign="1" /><v:tabList />FC1</text>				</g>
			</g>
			<g id="group87-179" transform="translate(48.7442,-29.6003)" v:mID="87" v:groupContext="group" v:layerMember="10">
				<v:userDefs>
					<v:ud v:nameU="msvThemeColors" v:val="VT0(36):26" />
					<v:ud v:nameU="msvThemeEffects" v:val="VT0(16):26" />
				</v:userDefs>
				<title>Sheet.87</title>
				<g id="shape88-180" v:mID="88" v:groupContext="shape" v:layerMember="10">
					<title>Rectangle</title>
					<desc>FC2</desc>
					<v:userDefs>
						<v:ud v:nameU="visVersion" v:val="VT0(14):26" />
						<v:ud v:nameU="msvThemeColors" v:val="VT0(36):26" />
						<v:ud v:nameU="msvThemeEffects" v:val="VT0(16):26" />
					</v:userDefs>
					<v:textBlock v:margins="rect(4,4,4,4)" v:tabSpace="42.5197" />
					<v:textRect cx="12.2809" cy="464.462" width="24.57" height="17.7013" />
					<g id="shadow88-181" v:groupContext="shadow" v:shadowOffsetX="1.44" v:shadowOffsetY="-1.44" v:shadowType="1" transform="matrix(1,0,0,1,1.44,1.44)" class="st1">
						<rect x="0" y="455.611" width="24.5618" height="17.7013" class="st21" />
					</g>
					<rect x="0" y="455.611" width="24.5618" height="17.7013" class="st24" />
					<text x="6.28" y="466.86" class="st13" v:langID="1033"><v:paragraph v:horizAlign="1" /><v:tabList />FC2</text>				</g>
			</g>
			<g id="group4-186" transform="translate(14.6233,-0.768873)" v:mID="4" v:groupContext="group" v:layerMember="10">
				<v:userDefs>
					<v:ud v:nameU="msvThemeColors" v:val="VT0(36):26" />
					<v:ud v:nameU="msvThemeEffects" v:val="VT0(16):26" />
				</v:userDefs>
				<title>Sheet.4</title>
				<g id="shape5-187" v:mID="5" v:groupContext="shape" v:layerMember="10" transform="translate(-0.130989,0.433565)">
					<title>Rectangle</title>
					<desc>SAS A</desc>
					<v:userDefs>
						<v:ud v:nameU="visVersion" v:val="VT0(14):26" />
						<v:ud v:nameU="msvThemeColors" v:val="VT0(36):26" />
						<v:ud v:nameU="msvThemeEffects" v:val="VT0(16):26" />
					</v:userDefs>
					<v:textBlock v:margins="rect(4,4,4,4)" v:tabSpace="42.5197" />
					<v:textRect cx="15.8737" cy="464.462" width="31.75" height="17.7013" />
					<g id="shadow5-188" v:groupContext="shadow" v:shadowOffsetX="1.44" v:shadowOffsetY="-1.44" v:shadowType="1" transform="matrix(1,0,0,1,1.44,1.44)" class="st1">
						<rect x="0" y="455.611" width="31.7475" height="17.7013" class="st21" />
					</g>
					<rect x="0" y="455.611" width="31.7475" height="17.7013" class="st23" />
					<text x="6.66" y="466.86" class="st13" v:langID="1033"><v:paragraph v:horizAlign="1" /><v:tabList />SAS A</text>				</g>
			</g>
			<g id="shape7-193" v:mID="7" v:groupContext="shape" v:layerMember="10" transform="translate(56.0559,-0.167654)">
				<title>Rectangle.7</title>
				<desc>SAS B</desc>
				<v:userDefs>
					<v:ud v:nameU="visVersion" v:val="VT0(14):26" />
					<v:ud v:nameU="msvThemeColors" v:val="VT0(36):26" />
					<v:ud v:nameU="msvThemeEffects" v:val="VT0(16):26" />
				</v:userDefs>
				<v:textBlock v:margins="rect(4,4,4,4)" v:tabSpace="42.5197" />
				<v:textRect cx="15.8668" cy="464.462" width="31.74" height="17.7013" />
				<g id="shadow7-194" v:groupContext="shadow" v:shadowOffsetX="1.44" v:shadowOffsetY="-1.44" v:shadowType="1" transform="matrix(1,0,0,1,1.44,1.44)" class="st1">
					<rect x="0" y="455.611" width="31.7337" height="17.7013" class="st21" />
				</g>
				<rect x="0" y="455.611" width="31.7337" height="17.7013" class="st23" />
				<text x="6.8" y="466.86" class="st13" v:langID="1033"><v:paragraph v:horizAlign="1" /><v:tabList />SAS B</text>			</g>
			<g id="shape8-199" v:mID="8" v:groupContext="shape" v:layerMember="10" transform="translate(96.2449,-0.335309)">
				<title>Rectangle.8</title>
				<desc>SAS C</desc>
				<v:userDefs>
					<v:ud v:nameU="visVersion" v:val="VT0(14):26" />
					<v:ud v:nameU="msvThemeColors" v:val="VT0(36):26" />
					<v:ud v:nameU="msvThemeEffects" v:val="VT0(16):26" />
				</v:userDefs>
				<v:textBlock v:margins="rect(4,4,4,4)" v:tabSpace="42.5197" />
				<v:textRect cx="15.8668" cy="464.462" width="31.74" height="17.7013" />
				<g id="shadow8-200" v:groupContext="shadow" v:shadowOffsetX="1.44" v:shadowOffsetY="-1.44" v:shadowType="1" transform="matrix(1,0,0,1,1.44,1.44)" class="st1">
					<rect x="0" y="455.611" width="31.7337" height="17.7013" class="st21" />
				</g>
				<rect x="0" y="455.611" width="31.7337" height="17.7013" class="st23" />
				<text x="6.84" y="466.86" class="st13" v:langID="1033"><v:paragraph v:horizAlign="1" /><v:tabList />SAS C</text>			</g>
			<g id="shape9-205" v:mID="9" v:groupContext="shape" v:layerMember="10" transform="translate(134.921,-0.167654)">
				<title>Rectangle.9</title>
				<desc>SAS D</desc>
				<v:userDefs>
					<v:ud v:nameU="visVersion" v:val="VT0(14):26" />
					<v:ud v:nameU="msvThemeColors" v:val="VT0(36):26" />
					<v:ud v:nameU="msvThemeEffects" v:val="VT0(16):26" />
				</v:userDefs>
				<v:textBlock v:margins="rect(4,4,4,4)" v:tabSpace="42.5197" />
				<v:textRect cx="15.8668" cy="464.462" width="31.74" height="17.7013" />
				<g id="shadow9-206" v:groupContext="shadow" v:shadowOffsetX="1.44" v:shadowOffsetY="-1.44" v:shadowType="1" transform="matrix(1,0,0,1,1.44,1.44)" class="st1">
					<rect x="0" y="455.611" width="31.7337" height="17.7013" class="st21" />
				</g>
				<rect x="0" y="455.611" width="31.7337" height="17.7013" class="st23" />
				<text x="6.51" y="466.86" class="st13" v:langID="1033"><v:paragraph v:horizAlign="1" /><v:tabList />SAS D</text>			</g>
		</g>
	</g>
</svg>
