<?xml version="1.0" encoding="UTF-8" standalone="no"?>
<!DOCTYPE svg PUBLIC "-//W3C//DTD SVG 1.1//EN" "http://www.w3.org/Graphics/SVG/1.1/DTD/svg11.dtd">
<!-- Generated by Microsoft Visio, SVG Export MCC-IP  networking with intermediate private networks.svg Page-1 -->
<svg xmlns="http://www.w3.org/2000/svg" xmlns:xlink="http://www.w3.org/1999/xlink" xmlns:ev="http://www.w3.org/2001/xml-events"
		xmlns:v="http://schemas.microsoft.com/visio/2003/SVGExtensions/" width="7.07292in" height="3.81929in"
		viewBox="0 0 509.25 274.989" xml:space="preserve" color-interpolation-filters="sRGB" class="st21">
	<v:documentProperties v:langID="1033" v:viewMarkup="false">
		<v:userDefs>
			<v:ud v:nameU="msvSubprocessMaster" v:prompt="" v:val="VT4(Rectangle)"/>
			<v:ud v:nameU="msvNoAutoConnect" v:val="VT0(1):26"/>
		</v:userDefs>
	</v:documentProperties>

	<style type="text/css">
	<![CDATA[
		.st1 {stroke:#a8d08d;stroke-linecap:round;stroke-linejoin:round;stroke-width:3}
		.st2 {fill:url(#grad0-10)}
		.st3 {stroke:#a8d08d;stroke-width:0.75}
		.st4 {fill:#538135;font-family:Calibri;font-size:0.833336em}
		.st5 {visibility:visible}
		.st6 {fill:#5b9bd5;fill-opacity:0.22;filter:url(#filter_2);stroke:#5b9bd5;stroke-opacity:0.22}
		.st7 {fill:#5b9bd5;stroke:#c7c8c8;stroke-width:0.25}
		.st8 {fill:#feffff;font-family:Calibri;font-size:0.833336em}
		.st9 {stroke:#5b9bd5;stroke-linecap:round;stroke-linejoin:round;stroke-width:0.75}
		.st10 {fill:#fbe5d5;stroke:#5b9bd5;stroke-width:0.75}
		.st11 {fill:none;stroke:none;stroke-width:0.75}
		.st12 {fill:#5b9bd5;font-family:Calibri;font-size:0.666664em}
		.st13 {fill:url(#grad0-10);stroke:#000000;stroke-width:0.75}
		.st14 {fill:#000000;font-family:Calibri;font-size:0.666664em}
		.st15 {stroke:#5b9bd5;stroke-linecap:round;stroke-linejoin:round;stroke-width:1}
		.st16 {stroke:#5b9bd5;stroke-linecap:round;stroke-linejoin:round;stroke-width:3}
		.st17 {fill:url(#grad0-10);stroke:#5b9bd5;stroke-width:0.75}
		.st18 {stroke:#c55a11;stroke-width:0.75}
		.st19 {fill:#c55a11;font-family:Calibri;font-size:0.666664em}
		.st20 {font-size:1em}
		.st21 {fill:none;fill-rule:evenodd;font-size:12px;overflow:visible;stroke-linecap:square;stroke-miterlimit:3}
	]]>
	</style>

	<defs id="Patterns_And_Gradients">
		<linearGradient id="grad0-10" x1="0" y1="0" x2="1" y2="0" gradientTransform="rotate(60 0.5 0.5)">
			<stop offset="0" stop-color="#e9eff7" stop-opacity="1"/>
			<stop offset="0.24" stop-color="#f4f7fb" stop-opacity="1"/>
			<stop offset="0.54" stop-color="#feffff" stop-opacity="1"/>
		</linearGradient>
	</defs>
	<defs id="Filters">
		<filter id="filter_2">
			<feGaussianBlur stdDeviation="2"/>
		</filter>
	</defs>
	<g v:mID="0" v:index="1" v:groupContext="foregroundPage">
		<v:userDefs>
			<v:ud v:nameU="msvThemeOrder" v:val="VT0(0):26"/>
		</v:userDefs>
		<title>Page-1</title>
		<v:pageProperties v:drawingScale="1" v:pageScale="1" v:drawingUnits="0" v:shadowOffsetX="9" v:shadowOffsetY="-9"/>
		<v:layer v:name="Connector" v:index="0"/>
		<g id="shape1048-1" v:mID="1048" v:groupContext="shape" v:layerMember="0" transform="translate(382.5,-51.373)">
			<title>Dynamic connector.1048</title>
			<path d="M0 274.99 L0 268.14 L-20.66 268.14 L-20.66 152.54 L-61.5 152.54 L-61.5 145.79" class="st1"/>
		</g>
		<g id="shape1047-4" v:mID="1047" v:groupContext="shape" v:layerMember="0" transform="translate(121.819,-67.3492)">
			<title>Dynamic connector.1047</title>
			<path d="M0 274.99 L21.28 274.99 L21.28 174.1 L52.56 174.1 L52.56 161.34" class="st1"/>
		</g>
		<g id="shape1006-7" v:mID="1006" v:groupContext="shape" transform="translate(28.875,-18.7465)">
			<title>Cloud.1006</title>
			<desc>Host network</desc>
			<v:userDefs>
				<v:ud v:nameU="visVersion" v:prompt="" v:val="VT0(15):26"/>
			</v:userDefs>
			<v:textBlock v:margins="rect(4,4,4,4)"/>
			<v:textRect cx="47.625" cy="243.239" width="95.26" height="63.5"/>
			<path d="M4.69 249 A7.52203 8.43684 0 0 1 8.3 232.79 A15.2538 17.109 0 0 1 30.43 219.11 A17.5156 19.6458 0 0 1 49.4 216.07
						 A10.9838 12.3197 0 0 1 65.66 215.06 A12.5053 14.0262 0 0 1 85.53 220.12 A8.94166 10.0288 0 0 1 92.75 234.31
						 A11.0754 12.4219 0 0 1 83.72 254.57 A13.9725 15.6713 0 0 1 63.86 264.7 A16.4748 18.4778 0 0 1 36.76 268.76
						 A20.8839 23.4229 0 0 1 13.27 264.7 A8.23912 9.24115 0 0 1 4.69 249 Z" class="st2"/>
			<path d="M4.69 249 A7.52203 8.43684 0 0 1 8.3 232.79 A15.2538 17.109 0 0 1 30.43 219.11 A17.5156 19.6458 0 0 1 49.4 216.07
						 A10.9838 12.3197 0 0 1 65.66 215.06 A12.5053 14.0262 0 0 1 85.53 220.12 A8.94166 10.0288 0 0 1 92.75 234.31
						 A11.0754 12.4219 0 0 1 83.72 254.57 A13.9725 15.6713 0 0 1 63.86 264.7 A16.4748 18.4778 0 0 1 36.76 268.76
						 A20.8839 23.4229 0 0 1 13.27 264.7 A8.23912 9.24115 0 0 1 4.69 249" class="st3"/>
			<path d="M9.65 249.51 A7.50124 8.41352 0 0 1 4.69 249" class="st3"/>
			<path d="M35.39 266.23 A7.53389 8.45015 -180 0 0 36.76 268.76" class="st3"/>
			<path d="M64.53 261.67 A6.08169 6.82133 0 0 1 63.86 264.7" class="st3"/>
			<path d="M78.31 246.46 A6.38166 7.15778 0 0 1 83.72 254.57" class="st3"/>
			<path d="M90.05 237.35 A5.82617 6.53473 -180 0 0 92.75 234.31" class="st3"/>
			<path d="M33.14 221.14 A8.98449 10.0768 -180 0 0 30.43 219.11" class="st3"/>
			<text x="20.1" y="246.24" class="st4" v:langID="1033"><v:paragraph v:horizAlign="1"/><v:tabList/>Host network</text>		</g>
		<g id="group1012-19" transform="translate(150.75,-175.627)" v:mID="1012" v:groupContext="group">
			<title>Sheet.1012</title>
			<g id="group1010-20" v:mID="1010" v:groupContext="group">
				<title>Sheet.1010</title>
				<g id="shape1001-21" v:mID="1001" v:groupContext="shape" transform="translate(0,-5.36963)">
					<title>Rectangle.1001</title>
					<desc>Switch</desc>
					<v:userDefs>
						<v:ud v:nameU="visVersion" v:val="VT0(15):26"/>
					</v:userDefs>
					<v:textBlock v:margins="rect(4,4,4,4)"/>
					<v:textRect cx="23.625" cy="247.989" width="47.25" height="54"/>
					<g id="shadow1001-22" v:groupContext="shadow" v:shadowOffsetX="0.345598" v:shadowOffsetY="-1.97279"
							v:shadowType="1" transform="matrix(1,0,0,1,0.345598,1.97279)" class="st5">
						<rect x="0" y="220.989" width="47.25" height="54" class="st6"/>
					</g>
					<rect x="0" y="220.989" width="47.25" height="54" class="st7"/>
					<text x="10.19" y="250.99" class="st8" v:langID="1033"><v:paragraph v:horizAlign="1"/><v:tabList/>Switch</text>				</g>
				<g id="shape1003-27" v:mID="1003" v:groupContext="shape" transform="translate(146.25,-4.94105)">
					<title>Rectangle.1003</title>
					<desc>Switch</desc>
					<v:userDefs>
						<v:ud v:nameU="visVersion" v:val="VT0(15):26"/>
					</v:userDefs>
					<v:textBlock v:margins="rect(4,4,4,4)"/>
					<v:textRect cx="24" cy="247.56" width="48.01" height="54.8572"/>
					<g id="shadow1003-28" v:groupContext="shadow" v:shadowOffsetX="0.345598" v:shadowOffsetY="-1.97279"
							v:shadowType="1" transform="matrix(1,0,0,1,0.345598,1.97279)" class="st5">
						<rect x="0" y="220.131" width="48" height="54.8572" class="st6"/>
					</g>
					<rect x="0" y="220.131" width="48" height="54.8572" class="st7"/>
					<text x="10.56" y="250.56" class="st8" v:langID="1033"><v:paragraph v:horizAlign="1"/><v:tabList/>Switch</text>				</g>
				<g id="shape1007-33" v:mID="1007" v:groupContext="shape" v:layerMember="0" transform="translate(47.25,-32.9496)">
					<title>Dynamic connector.1007</title>
					<path d="M0 283.92 L61.5 283.92 L61.5 284.05 L99 284.05" class="st9"/>
				</g>
			</g>
		</g>
		<g id="group1013-36" transform="translate(150.75,-92.4886)" v:mID="1013" v:groupContext="group">
			<title>Sheet.1013</title>
			<g id="group1014-37" v:mID="1014" v:groupContext="group">
				<title>Sheet.1014</title>
				<g id="shape1016-38" v:mID="1016" v:groupContext="shape" transform="translate(-1.59872E-14,-12.0079)">
					<title>Rectangle.1001</title>
					<desc>Switch</desc>
					<v:userDefs>
						<v:ud v:nameU="visVersion" v:val="VT0(15):26"/>
					</v:userDefs>
					<v:textBlock v:margins="rect(4,4,4,4)"/>
					<v:textRect cx="21.375" cy="250.56" width="42.75" height="48.8571"/>
					<g id="shadow1016-39" v:groupContext="shadow" v:shadowOffsetX="0.345598" v:shadowOffsetY="-1.97279"
							v:shadowType="1" transform="matrix(1,0,0,1,0.345598,1.97279)" class="st5">
						<rect x="0" y="226.131" width="42.75" height="48.8571" class="st6"/>
					</g>
					<rect x="0" y="226.131" width="42.75" height="48.8571" class="st7"/>
					<text x="7.94" y="253.56" class="st8" v:langID="1033"><v:paragraph v:horizAlign="1"/><v:tabList/>Switch</text>				</g>
				<g id="shape1017-44" v:mID="1017" v:groupContext="shape" transform="translate(146.25,-11.0114)">
					<title>Rectangle.1003</title>
					<desc>Switch</desc>
					<v:userDefs>
						<v:ud v:nameU="visVersion" v:val="VT0(15):26"/>
					</v:userDefs>
					<v:textBlock v:margins="rect(4,4,4,4)"/>
					<v:textRect cx="24" cy="250.239" width="48.01" height="49.5"/>
					<g id="shadow1017-45" v:groupContext="shadow" v:shadowOffsetX="0.345598" v:shadowOffsetY="-1.97279"
							v:shadowType="1" transform="matrix(1,0,0,1,0.345598,1.97279)" class="st5">
						<rect x="0" y="225.489" width="48" height="49.5" class="st6"/>
					</g>
					<rect x="0" y="225.489" width="48" height="49.5" class="st7"/>
					<text x="10.56" y="253.24" class="st8" v:langID="1033"><v:paragraph v:horizAlign="1"/><v:tabList/>Switch</text>				</g>
				<g id="shape1019-50" v:mID="1019" v:groupContext="shape" v:layerMember="0" transform="translate(42.75,-45.099)">
					<title>Dynamic connector.1007</title>
					<path d="M0 283.65 L66 283.65 L66 284.33 L103.5 284.33" class="st9"/>
				</g>
			</g>
		</g>
		<g id="group1023-53" transform="translate(18.75,-87.9886)" v:mID="1023" v:groupContext="group">
			<title>Sheet.1023</title>
			<g id="shape2-54" v:mID="2" v:groupContext="shape" transform="translate(0,-2.01141)">
				<title>Rectangle.1011</title>
				<v:userDefs>
					<v:ud v:nameU="visVersion" v:val="VT0(15):26"/>
				</v:userDefs>
				<rect x="0" y="119.5" width="117" height="155.489" class="st10"/>
			</g>
			<g id="shape3-56" v:mID="3" v:groupContext="shape" transform="translate(11.4809,-158.594)">
				<title>Sheet.3</title>
				<desc>cluster_A</desc>
				<v:textBlock v:margins="rect(4,4,4,4)"/>
				<v:textRect cx="60.1441" cy="270.16" width="120.29" height="9.65649"/>
				<rect x="0" y="265.332" width="120.288" height="9.65649" class="st11"/>
				<text x="44.84" y="272.56" class="st12" v:langID="1033"><v:paragraph v:horizAlign="1"/><v:tabList/>cluster_A</text>			</g>
			<g id="shape6-59" v:mID="6" v:groupContext="shape" transform="translate(3.75,-102.696)">
				<title>Rectangle.6</title>
				<desc>node_A_1</desc>
				<v:userDefs>
					<v:ud v:nameU="visVersion" v:val="VT0(15):26"/>
				</v:userDefs>
				<v:textBlock v:margins="rect(4,4,4,4)"/>
				<v:textRect cx="21.6131" cy="257.676" width="43.23" height="34.6243"/>
				<rect x="0" y="240.364" width="43.2262" height="34.6243" class="st13"/>
				<text x="4.98" y="260.08" class="st14" v:langID="1033"><v:paragraph v:horizAlign="1"/><v:tabList/>node_A_1</text>			</g>
			<g id="shape9-63" v:mID="9" v:groupContext="shape" transform="translate(3.75,-24.004)">
				<title>Rectangle.9</title>
				<desc>node_A_2</desc>
				<v:userDefs>
					<v:ud v:nameU="visVersion" v:val="VT0(15):26"/>
				</v:userDefs>
				<v:textBlock v:margins="rect(4,4,4,4)"/>
				<v:textRect cx="21.6131" cy="257.741" width="43.23" height="34.496"/>
				<rect x="0" y="240.493" width="43.2262" height="34.496" class="st13"/>
				<text x="4.98" y="260.14" class="st14" v:langID="1033"><v:paragraph v:horizAlign="1"/><v:tabList/>node_A_2</text>			</g>
			<g id="shape20-67" v:mID="20" v:groupContext="shape" v:layerMember="0" transform="translate(46.7381,-41.252)">
				<title>Dynamic connector.1031</title>
				<path d="M0.24 274.99 L14.32 274.99 L14.32 196.23 L17.76 196.23" class="st15"/>
			</g>
			<g id="shape27-70" v:mID="27" v:groupContext="shape" v:layerMember="0" transform="translate(46.7381,-120.008)">
				<title>Dynamic connector.27</title>
				<path d="M0.24 274.99 L6.99 274.99 L6.99 347.84 L11.32 347.84 A3 3 0 0 1 17.32 347.84 L17.76 347.84" class="st15"/>
			</g>
			<g id="shape72-73" v:mID="72" v:groupContext="shape" v:layerMember="0" transform="translate(79.7333,-101.768)">
				<title>Dynamic connector.72</title>
				<path d="M8.96 274.99 L8.96 288.49 L9.04 288.49 L9.04 317.96" class="st16"/>
			</g>
			<g id="shape12-76" v:mID="12" v:groupContext="shape" transform="translate(64.5,-101.768)">
				<title>Rectangle</title>
				<desc>switch_A_1</desc>
				<v:userDefs>
					<v:ud v:nameU="visVersion" v:val="VT0(15):26"/>
				</v:userDefs>
				<v:textBlock v:margins="rect(4,4,4,4)"/>
				<v:textRect cx="24.1952" cy="256.749" width="48.4" height="36.48"/>
				<rect x="0" y="238.509" width="48.3903" height="36.48" class="st17"/>
				<text x="5.39" y="259.15" class="st12" v:langID="1033"><v:paragraph v:horizAlign="1"/><v:tabList/>switch_A_1</text>			</g>
			<g id="shape13-80" v:mID="13" v:groupContext="shape" transform="translate(64.5,-22.3165)">
				<title>Rectangle.17</title>
				<desc>switch_A_2</desc>
				<v:userDefs>
					<v:ud v:nameU="visVersion" v:val="VT0(15):26"/>
				</v:userDefs>
				<v:textBlock v:margins="rect(4,4,4,4)"/>
				<v:textRect cx="24.2714" cy="256.749" width="48.55" height="36.48"/>
				<rect x="0" y="238.509" width="48.5427" height="36.48" class="st17"/>
				<text x="5.47" y="259.15" class="st12" v:langID="1033"><v:paragraph v:horizAlign="1"/><v:tabList/>switch_A_2</text>			</g>
		</g>
		<g id="shape1025-84" v:mID="1025" v:groupContext="shape" transform="translate(490.5,-90) scale(-1,1)">
			<title>Rectangle.1011</title>
			<v:userDefs>
				<v:ud v:nameU="visVersion" v:val="VT0(15):26"/>
			</v:userDefs>
			<rect x="0" y="120.647" width="121.125" height="154.342" class="st10"/>
		</g>
		<g id="shape1026-86" v:mID="1026" v:groupContext="shape" transform="translate(450,-246.582) scale(-1,1)">
			<title>Sheet.1026</title>
			<desc>cluster_B</desc>
			<v:textBlock v:margins="rect(4,4,4,4)"/>
			<v:textRect cx="20.0625" cy="270.16" width="40.13" height="9.65649"/>
			<rect x="0" y="265.332" width="40.125" height="9.65649" class="st11"/>
			<text x="-35.23" y="272.56" transform="scale(-1,1)" class="st12" v:langID="1033"><v:paragraph v:horizAlign="1"/><v:tabList/>cluster_B</text>		</g>
		<g id="shape1027-89" v:mID="1027" v:groupContext="shape" transform="translate(481.976,-191.122) scale(-1,1)">
			<title>Rectangle.6</title>
			<desc>node_B_1</desc>
			<v:userDefs>
				<v:ud v:nameU="visVersion" v:val="VT0(15):26"/>
			</v:userDefs>
			<v:textBlock v:margins="rect(4,4,4,4)"/>
			<v:textRect cx="21.6131" cy="258.114" width="43.23" height="33.75"/>
			<rect x="0" y="241.239" width="43.2262" height="33.75" class="st13"/>
			<text x="-38.1" y="260.51" transform="scale(-1,1)" class="st14" v:langID="1033"><v:paragraph v:horizAlign="1"/><v:tabList/>node_B_1</text>		</g>
		<g id="shape1028-93" v:mID="1028" v:groupContext="shape" transform="translate(481.976,-112.231) scale(-1,1)">
			<title>Rectangle.9</title>
			<desc>node_B_2</desc>
			<v:userDefs>
				<v:ud v:nameU="visVersion" v:val="VT0(15):26"/>
			</v:userDefs>
			<v:textBlock v:margins="rect(4,4,4,4)"/>
			<v:textRect cx="21.6131" cy="258.731" width="43.23" height="32.5157"/>
			<rect x="0" y="242.473" width="43.2262" height="32.5157" class="st13"/>
			<text x="-38.1" y="261.13" transform="scale(-1,1)" class="st14" v:langID="1033"><v:paragraph v:horizAlign="1"/><v:tabList/>node_B_2</text>		</g>
		<g id="shape1029-97" v:mID="1029" v:groupContext="shape" v:layerMember="0" transform="translate(439.598,-128.489)">
			<title>Dynamic connector.1029</title>
			<path d="M-0.85 274.99 L-10.97 274.99 L-10.97 195.48 L-17.15 195.48" class="st15"/>
		</g>
		<g id="shape1030-100" v:mID="1030" v:groupContext="shape" v:layerMember="0" transform="translate(439.636,-207.997)">
			<title>Dynamic connector.27</title>
			<path d="M-0.89 274.99 L-6.14 274.99 L-6.14 347.9 L-8.01 347.9 A3 3 -180 0 0 -14.01 347.9 L-17.11 347.9" class="st15"/>
		</g>
		<g id="shape1033-103" v:mID="1033" v:groupContext="shape" v:layerMember="0" transform="translate(389.25,-189.757)">
			<title>Dynamic connector.72</title>
			<path d="M9 274.99 L9 318.02" class="st16"/>
		</g>
		<g id="shape1034-106" v:mID="1034" v:groupContext="shape" transform="translate(422.445,-189.757) scale(-1,1)">
			<title>Rectangle</title>
			<desc>switch_B_1</desc>
			<v:userDefs>
				<v:ud v:nameU="visVersion" v:val="VT0(15):26"/>
			</v:userDefs>
			<v:textBlock v:margins="rect(4,4,4,4)"/>
			<v:textRect cx="24.1952" cy="256.749" width="48.4" height="36.48"/>
			<rect x="0" y="238.509" width="48.3903" height="36.48" class="st17"/>
			<text x="-42.86" y="259.15" transform="scale(-1,1)" class="st12" v:langID="1033"><v:paragraph v:horizAlign="1"/><v:tabList/>switch_B_1</text>		</g>
		<g id="shape1035-110" v:mID="1035" v:groupContext="shape" transform="translate(422.521,-110.249) scale(-1,1)">
			<title>Rectangle.17</title>
			<desc>switch_B_2</desc>
			<v:userDefs>
				<v:ud v:nameU="visVersion" v:val="VT0(15):26"/>
			</v:userDefs>
			<v:textBlock v:margins="rect(4,4,4,4)"/>
			<v:textRect cx="24.2714" cy="256.749" width="48.55" height="36.48"/>
			<rect x="0" y="238.509" width="48.5427" height="36.48" class="st17"/>
			<text x="-42.93" y="259.15" transform="scale(-1,1)" class="st12" v:langID="1033"><v:paragraph v:horizAlign="1"/><v:tabList/>switch_B_2</text>		</g>
		<g id="shape1036-114" v:mID="1036" v:groupContext="shape" transform="translate(382.5,-19.5)">
			<title>Cloud.1036</title>
			<desc>Host network</desc>
			<v:userDefs>
				<v:ud v:nameU="visVersion" v:prompt="" v:val="VT0(15):26"/>
			</v:userDefs>
			<v:textBlock v:margins="rect(4,4,4,4)"/>
			<v:textRect cx="45" cy="244.989" width="90" height="60"/>
			<path d="M4.43 250.43 A7.10743 7.97182 0 0 1 7.84 235.12 A14.4131 16.1659 0 0 1 28.76 222.19 A16.5502 18.563 0 0 1 46.67
						 219.32 A10.3784 11.6406 0 0 1 62.04 218.36 A11.8161 13.2531 0 0 1 80.82 223.15 A8.44881 9.47601 0 0 1 87.64
						 236.55 A10.4649 11.7373 0 0 1 79.11 255.7 A13.2024 14.8075 0 0 1 60.34 265.27 A15.5667 17.4593 0 0 1 34.73
						 269.1 A19.7328 22.1319 0 0 1 12.54 265.27 A7.785 8.73179 0 0 1 4.43 250.43 Z" class="st2"/>
			<path d="M4.43 250.43 A7.10743 7.97182 0 0 1 7.84 235.12 A14.4131 16.1659 0 0 1 28.76 222.19 A16.5502 18.563 0 0 1 46.67
						 219.32 A10.3784 11.6406 0 0 1 62.04 218.36 A11.8161 13.2531 0 0 1 80.82 223.15 A8.44881 9.47601 0 0 1 87.64
						 236.55 A10.4649 11.7373 0 0 1 79.11 255.7 A13.2024 14.8075 0 0 1 60.34 265.27 A15.5667 17.4593 0 0 1 34.73
						 269.1 A19.7328 22.1319 0 0 1 12.54 265.27 A7.785 8.73179 0 0 1 4.43 250.43" class="st3"/>
			<path d="M9.12 250.91 A7.08779 7.94979 0 0 1 4.43 250.43" class="st3"/>
			<path d="M33.44 266.71 A7.11864 7.98439 -180 0 0 34.73 269.1" class="st3"/>
			<path d="M60.98 262.4 A5.74648 6.44535 0 0 1 60.34 265.27" class="st3"/>
			<path d="M73.99 248.04 A6.02991 6.76326 0 0 1 79.11 255.7" class="st3"/>
			<path d="M85.09 239.43 A5.50504 6.17455 -180 0 0 87.64 236.55" class="st3"/>
			<path d="M31.31 224.11 A8.48928 9.5214 -180 0 0 28.76 222.19" class="st3"/>
			<text x="17.47" y="247.99" class="st4" v:langID="1033"><v:paragraph v:horizAlign="1"/><v:tabList/>Host network</text>		</g>
		<g id="shape1037-125" v:mID="1037" v:groupContext="shape" v:layerMember="0" transform="translate(123.016,-46.1558)">
			<title>Dynamic connector.1037</title>
			<path d="M0 274.99 L49.11 274.99 L49.11 216.65" class="st1"/>
		</g>
		<g id="shape1038-128" v:mID="1038" v:groupContext="shape" v:layerMember="0" transform="translate(385.371,-31.6786)">
			<title>Dynamic connector.1038</title>
			<path d="M0 274.99 L-64.37 274.99 L-64.37 203.17" class="st1"/>
		</g>
		<g id="shape1039-131" v:mID="1039" v:groupContext="shape" v:layerMember="0" transform="translate(345,-198.997)">
			<title>Dynamic connector.1039</title>
			<path d="M0 265.99 L29.05 265.99" class="st16"/>
		</g>
		<g id="shape1040-134" v:mID="1040" v:groupContext="shape" v:layerMember="0" transform="translate(345,-119.369)">
			<title>Dynamic connector.1040</title>
			<path d="M0 266.11 L9 266.11 L9 265.87 L13.84 265.87 A3 3 0 1 1 19.84 265.87 L28.98 265.87" class="st16"/>
		</g>
		<g id="shape55-137" v:mID="55" v:groupContext="shape" v:layerMember="0" transform="translate(131.64,-198.997)">
			<title>Dynamic connector</title>
			<path d="M0 265.99 L19.11 265.99" class="st16"/>
		</g>
		<g id="shape1022-140" v:mID="1022" v:groupContext="shape" v:layerMember="0" transform="translate(131.793,-119.735)">
			<title>Dynamic connector.1022</title>
			<path d="M0 266.18 L6.75 266.18 L6.75 265.8 L8.31 265.8 A3 3 0 1 1 14.31 265.8 L18.96 265.8" class="st16"/>
		</g>
		<g id="group1052-143" transform="translate(207,-110.036)" v:mID="1052" v:groupContext="group">
			<title>Sheet.1052</title>
			<g id="shape1050-144" v:mID="1050" v:groupContext="shape">
				<title>Cloud.1050</title>
				<desc>Private network</desc>
				<v:userDefs>
					<v:ud v:nameU="visVersion" v:prompt="" v:val="VT0(15):26"/>
				</v:userDefs>
				<v:textBlock v:margins="rect(4,4,4,4)"/>
				<v:textRect cx="36.5625" cy="256.536" width="73.13" height="36.9055"/>
				<path d="M3.6 259.88 A5.77479 4.9034 0 0 1 6.37 250.46 A11.7106 9.94354 0 0 1 23.36 242.52 A13.447 11.4179 0 0 1
							 37.92 240.75 A8.43248 7.16006 0 0 1 50.41 240.16 A9.60054 8.15187 0 0 1 65.67 243.1 A6.86466 5.82862
							 0 0 1 71.21 251.35 A8.50276 7.21949 0 0 1 64.28 263.12 A10.7269 9.10796 0 0 1 49.02 269.01 A12.648 10.7391
							 0 0 1 28.22 271.37 A16.0329 13.6132 0 0 1 10.19 269.01 A6.32531 5.37085 0 0 1 3.6 259.88 Z"
						class="st2"/>
				<path d="M3.6 259.88 A5.77479 4.9034 0 0 1 6.37 250.46 A11.7106 9.94354 0 0 1 23.36 242.52 A13.447 11.4179 0 0 1
							 37.92 240.75 A8.43248 7.16006 0 0 1 50.41 240.16 A9.60054 8.15187 0 0 1 65.67 243.1 A6.86466 5.82862
							 0 0 1 71.21 251.35 A8.50276 7.21949 0 0 1 64.28 263.12 A10.7269 9.10796 0 0 1 49.02 269.01 A12.648 10.7391
							 0 0 1 28.22 271.37 A16.0329 13.6132 0 0 1 10.19 269.01 A6.32531 5.37085 0 0 1 3.6 259.88" class="st18"/>
				<path d="M7.41 260.18 A5.75883 4.88985 0 0 1 3.6 259.88" class="st18"/>
				<path d="M27.17 269.9 A5.7839 4.91113 -180 0 0 28.22 271.37" class="st18"/>
				<path d="M49.54 267.25 A4.66901 3.96448 0 0 1 49.02 269.01" class="st18"/>
				<path d="M60.12 258.41 A4.89931 4.16002 0 0 1 64.28 263.12" class="st18"/>
				<path d="M69.13 253.11 A4.47284 3.79791 -180 0 0 71.21 251.35" class="st18"/>
				<path d="M25.44 243.69 A6.89754 5.85653 -180 0 0 23.36 242.52" class="st18"/>
				<text x="25.13" y="254.14" class="st19" v:langID="1033"><v:paragraph v:horizAlign="1"/><v:tabList/>Private <v:lf/><tspan
							x="22.95" dy="1.2em" class="st20">network</tspan></text>			</g>
			<g id="shape1051-156" v:mID="1051" v:groupContext="shape" transform="translate(7.99361E-14,-72.4603)">
				<title>Cloud.1051</title>
				<desc>Private network</desc>
				<v:userDefs>
					<v:ud v:nameU="visVersion" v:prompt="" v:val="VT0(15):26"/>
				</v:userDefs>
				<v:textBlock v:margins="rect(4,4,4,4)"/>
				<v:textRect cx="36.5625" cy="256.536" width="73.13" height="36.9055"/>
				<path d="M3.6 259.88 A5.77479 4.9034 0 0 1 6.37 250.46 A11.7106 9.94354 0 0 1 23.36 242.52 A13.447 11.4179 0 0 1
							 37.92 240.75 A8.43248 7.16006 0 0 1 50.41 240.16 A9.60054 8.15187 0 0 1 65.67 243.1 A6.86466 5.82862
							 0 0 1 71.21 251.35 A8.50276 7.21949 0 0 1 64.28 263.12 A10.7269 9.10796 0 0 1 49.02 269.01 A12.648 10.7391
							 0 0 1 28.22 271.37 A16.0329 13.6132 0 0 1 10.19 269.01 A6.32531 5.37085 0 0 1 3.6 259.88 Z"
						class="st2"/>
				<path d="M3.6 259.88 A5.77479 4.9034 0 0 1 6.37 250.46 A11.7106 9.94354 0 0 1 23.36 242.52 A13.447 11.4179 0 0 1
							 37.92 240.75 A8.43248 7.16006 0 0 1 50.41 240.16 A9.60054 8.15187 0 0 1 65.67 243.1 A6.86466 5.82862
							 0 0 1 71.21 251.35 A8.50276 7.21949 0 0 1 64.28 263.12 A10.7269 9.10796 0 0 1 49.02 269.01 A12.648 10.7391
							 0 0 1 28.22 271.37 A16.0329 13.6132 0 0 1 10.19 269.01 A6.32531 5.37085 0 0 1 3.6 259.88" class="st18"/>
				<path d="M7.41 260.18 A5.75883 4.88985 0 0 1 3.6 259.88" class="st18"/>
				<path d="M27.17 269.9 A5.7839 4.91113 -180 0 0 28.22 271.37" class="st18"/>
				<path d="M49.54 267.25 A4.66901 3.96448 0 0 1 49.02 269.01" class="st18"/>
				<path d="M60.12 258.41 A4.89931 4.16002 0 0 1 64.28 263.12" class="st18"/>
				<path d="M69.13 253.11 A4.47284 3.79791 -180 0 0 71.21 251.35" class="st18"/>
				<path d="M25.44 243.69 A6.89754 5.85653 -180 0 0 23.36 242.52" class="st18"/>
				<text x="25.13" y="254.14" class="st19" v:langID="1033"><v:paragraph v:horizAlign="1"/><v:tabList/>Private <v:lf/><tspan
							x="22.95" dy="1.2em" class="st20">network</tspan></text>			</g>
		</g>
		<g id="shape1054-168" v:mID="1054" v:groupContext="shape" v:layerMember="0" transform="translate(65.4881,-109.37)">
			<title>Dynamic connector.1054</title>
			<path d="M0.24 266.36 L17.76 265.62" class="st15"/>
		</g>
		<g id="shape1055-171" v:mID="1055" v:groupContext="shape" v:layerMember="0" transform="translate(65.4881,-212.497)">
			<title>Dynamic connector.1055</title>
			<path d="M0.24 265.99 L17.76 265.99" class="st15"/>
		</g>
		<g id="shape1056-174" v:mID="1056" v:groupContext="shape" v:layerMember="0" transform="translate(421.636,-111.247)">
			<title>Dynamic connector.1056</title>
			<path d="M0.89 265.99 L17.11 265.99" class="st15"/>
		</g>
		<g id="shape1061-177" v:mID="1061" v:groupContext="shape" v:layerMember="0" transform="translate(421.598,-226.688)">
			<title>Dynamic connector.1061</title>
			<path d="M0.85 283.43 L9 284.55 L17.15 284.55" class="st15"/>
		</g>
	</g>
</svg>
