<?xml version="1.0" encoding="UTF-8" standalone="no"?>
<!DOCTYPE svg PUBLIC "-//W3C//DTD SVG 1.1//EN" "http://www.w3.org/Graphics/SVG/1.1/DTD/svg11.dtd">
<!-- Generated by Microsoft Visio, SVG Export MCC-IP  Two MCCs using same shared network (supported).svg Page-1 -->
<svg xmlns="http://www.w3.org/2000/svg" xmlns:xlink="http://www.w3.org/1999/xlink" xmlns:ev="http://www.w3.org/2001/xml-events"
		xmlns:v="http://schemas.microsoft.com/visio/2003/SVGExtensions/" width="7.18873in" height="6.58886in"
		viewBox="0 0 517.588 474.398" xml:space="preserve" color-interpolation-filters="sRGB" class="st25">
	<v:documentProperties v:langID="1033" v:viewMarkup="false">
		<v:userDefs>
			<v:ud v:nameU="msvSubprocessMaster" v:prompt="" v:val="VT4(Rectangle)"/>
			<v:ud v:nameU="msvNoAutoConnect" v:val="VT0(1):26"/>
		</v:userDefs>
	</v:documentProperties>

	<style type="text/css">
	<![CDATA[
		.st1 {visibility:visible}
		.st2 {fill:#5b9bd5;fill-opacity:0.22;filter:url(#filter_2);stroke:#5b9bd5;stroke-opacity:0.22}
		.st3 {fill:#bdd7ee;stroke:#1e4e79;stroke-width:0.25}
		.st4 {fill:none;stroke:none;stroke-width:0.25}
		.st5 {fill:#5b9bd5;font-family:Calibri;font-size:0.833336em}
		.st6 {font-size:1em}
		.st7 {fill:#fbe5d5;stroke:#5b9bd5;stroke-width:0.75}
		.st8 {fill:none;stroke:none;stroke-width:0.75}
		.st9 {fill:#5b9bd5;font-family:Calibri;font-size:0.666664em}
		.st10 {stroke:#5b9bd5;stroke-linecap:round;stroke-linejoin:round;stroke-width:1.5}
		.st11 {fill:url(#grad0-23);stroke:#5b9bd5;stroke-width:0.75}
		.st12 {fill:#c9a4e3;stroke:#5b9bd5;stroke-width:0.75}
		.st13 {fill:#7030a0;font-family:Calibri;font-size:0.666664em}
		.st14 {stroke:#7030a0;stroke-linecap:round;stroke-linejoin:round;stroke-width:1.5}
		.st15 {fill:url(#grad0-23);stroke:#7030a0;stroke-width:0.75}
		.st16 {fill:url(#grad0-23)}
		.st17 {stroke:#375623;stroke-width:0.75}
		.st18 {fill:#538135;font-family:Calibri;font-size:0.833336em}
		.st19 {fill:#5b9bd5;stroke:#c7c8c8;stroke-width:0.25}
		.st20 {fill:#feffff;font-family:Calibri;font-size:0.833336em}
		.st21 {stroke:#5b9bd5;stroke-linecap:round;stroke-linejoin:round;stroke-width:0.75}
		.st22 {stroke:#92d050;stroke-linecap:round;stroke-linejoin:round;stroke-width:1.5}
		.st23 {stroke:#7030a0;stroke-dasharray:1.5,3;stroke-linecap:round;stroke-linejoin:round;stroke-width:1.5}
		.st24 {stroke:#7030a0;stroke-linecap:round;stroke-linejoin:round;stroke-width:0.75}
		.st25 {fill:none;fill-rule:evenodd;font-size:12px;overflow:visible;stroke-linecap:square;stroke-miterlimit:3}
	]]>
	</style>

	<defs id="Patterns_And_Gradients">
		<linearGradient id="grad0-23" x1="0" y1="0" x2="1" y2="0" gradientTransform="rotate(60 0.5 0.5)">
			<stop offset="0" stop-color="#e9eff7" stop-opacity="1"/>
			<stop offset="0.24" stop-color="#f4f7fb" stop-opacity="1"/>
			<stop offset="0.54" stop-color="#feffff" stop-opacity="1"/>
		</linearGradient>
	</defs>
	<defs id="Filters">
		<filter id="filter_2">
			<feGaussianBlur stdDeviation="2"/>
		</filter>
	</defs>
	<g v:mID="0" v:index="1" v:groupContext="foregroundPage">
		<v:userDefs>
			<v:ud v:nameU="msvThemeOrder" v:val="VT0(0):26"/>
		</v:userDefs>
		<title>Page-1</title>
		<v:pageProperties v:drawingScale="1" v:pageScale="1" v:drawingUnits="0" v:shadowOffsetX="9" v:shadowOffsetY="-9"/>
		<v:layer v:name="Connector" v:index="0"/>
		<v:layer v:name="Unsupported" v:index="1"/>
		<g id="shape1051-1" v:mID="1051" v:groupContext="shape" transform="translate(163.5,-234)">
			<title>Rectangle.1051</title>
			<v:userDefs>
				<v:ud v:nameU="visVersion" v:val="VT0(15):26"/>
			</v:userDefs>
			<g id="shadow1051-2" v:groupContext="shadow" v:shadowOffsetX="0.345598" v:shadowOffsetY="-1.97279" v:shadowType="1"
					transform="matrix(1,0,0,1,0.345598,1.97279)" class="st1">
				<rect x="0" y="253.152" width="180" height="221.246" class="st2"/>
			</g>
			<rect x="0" y="253.152" width="180" height="221.246" class="st3"/>
		</g>
		<g id="shape1052-6" v:mID="1052" v:groupContext="shape" transform="translate(181.5,-430.746)">
			<title>Sheet.1052</title>
			<desc>Intermediate switches (customer provided)</desc>
			<v:textBlock v:margins="rect(4,4,4,4)"/>
			<v:textRect cx="76" cy="464.398" width="152.01" height="20"/>
			<rect x="0" y="454.398" width="152" height="20" class="st4"/>
			<text x="30.73" y="461.4" class="st5" v:langID="1033"><v:paragraph v:horizAlign="1"/><v:tabList/>Intermediate switches<v:newlineChar/><tspan
						x="34.45" dy="1.2em" class="st6">(customer provided)</tspan></text>		</g>
		<g id="group1054-10" transform="translate(65.25,-297.25)" v:mID="1054" v:groupContext="group">
			<title>Sheet.1054</title>
			<g id="shape2-11" v:mID="2" v:groupContext="shape" transform="translate(-46.5,-18.2462)">
				<title>Rectangle.2</title>
				<v:userDefs>
					<v:ud v:nameU="visVersion" v:val="VT0(15):26"/>
				</v:userDefs>
				<rect x="0" y="335.644" width="120.993" height="138.754" class="st7"/>
			</g>
			<g id="shape3-13" v:mID="3" v:groupContext="shape" transform="translate(-24.375,-1.67182)">
				<title>Sheet.3</title>
				<desc>MetroCluster One IP switches, cluster_ A</desc>
				<v:textBlock v:margins="rect(4,4,4,4)"/>
				<v:textRect cx="40.875" cy="469.57" width="81.76" height="9.65649"/>
				<rect x="0" y="464.742" width="81.75" height="9.65649" class="st8"/>
				<text x="11.54" y="467.17" class="st9" v:langID="1033"><v:paragraph v:horizAlign="1"/><v:tabList/>MetroCluster One <v:newlineChar/><tspan
							x="4.75" dy="1.2em" class="st6">IP switches, cluster_ A</tspan></text>			</g>
			<g id="shape72-17" v:mID="72" v:groupContext="shape" v:layerMember="0" transform="translate(32.5517,-107.02)">
				<title>Dynamic connector.72</title>
				<path d="M9 474.4 L9 504.38" class="st10"/>
			</g>
			<g id="shape12-20" v:mID="12" v:groupContext="shape" transform="translate(18.75,-107.02)">
				<title>Rectangle.12</title>
				<desc>switch_A_1</desc>
				<v:userDefs>
					<v:ud v:nameU="visVersion" v:val="VT0(15):26"/>
				</v:userDefs>
				<v:textBlock v:margins="rect(4,4,4,4)"/>
				<v:textRect cx="22.8017" cy="456.158" width="45.61" height="36.48"/>
				<rect x="0" y="437.918" width="45.6034" height="36.48" class="st11"/>
				<text x="4" y="458.56" class="st9" v:langID="1033"><v:paragraph v:horizAlign="1"/><v:tabList/>switch_A_1</text>			</g>
			<g id="shape13-25" v:mID="13" v:groupContext="shape" transform="translate(18.6782,-40.5626)">
				<title>Rectangle.13</title>
				<desc>switch_A_2</desc>
				<v:userDefs>
					<v:ud v:nameU="visVersion" v:val="VT0(15):26"/>
				</v:userDefs>
				<v:textBlock v:margins="rect(4,4,4,4)"/>
				<v:textRect cx="22.8735" cy="456.158" width="45.75" height="36.48"/>
				<rect x="0" y="437.918" width="45.7471" height="36.48" class="st11"/>
				<text x="4.07" y="458.56" class="st9" v:langID="1033"><v:paragraph v:horizAlign="1"/><v:tabList/>switch_A_2</text>			</g>
		</g>
		<g id="group1055-29" transform="translate(69.75,-122.518)" v:mID="1055" v:groupContext="group">
			<title>Sheet.1055</title>
			<g id="shape1056-30" v:mID="1056" v:groupContext="shape" transform="translate(-51,-18.2462)">
				<title>Rectangle.2</title>
				<v:userDefs>
					<v:ud v:nameU="visVersion" v:val="VT0(15):26"/>
				</v:userDefs>
				<rect x="0" y="335.644" width="125.493" height="138.754" class="st12"/>
			</g>
			<g id="shape1057-32" v:mID="1057" v:groupContext="shape" transform="translate(-36.75,0.599825)">
				<title>Sheet.1057</title>
				<desc>MetroCluster Two IP switches, cluster_ A</desc>
				<v:textBlock v:margins="rect(4,4,4,4)"/>
				<v:textRect cx="43.125" cy="469.57" width="86.26" height="9.65649"/>
				<rect x="0" y="464.742" width="86.25" height="9.65649" class="st8"/>
				<text x="13.61" y="467.17" class="st13" v:langID="1033"><v:paragraph v:horizAlign="1"/><v:tabList/>MetroCluster Two <v:newlineChar/><tspan
							x="7" dy="1.2em" class="st6">IP switches, cluster_ A</tspan></text>			</g>
			<g id="shape1058-36" v:mID="1058" v:groupContext="shape" v:layerMember="0" transform="translate(32.5517,-107.02)">
				<title>Dynamic connector.72</title>
				<path d="M9 474.4 L9 504.38" class="st14"/>
			</g>
			<g id="shape1060-39" v:mID="1060" v:groupContext="shape" transform="translate(18.6782,-40.5626)">
				<title>Rectangle.13</title>
				<desc>switch_A_2</desc>
				<v:userDefs>
					<v:ud v:nameU="visVersion" v:val="VT0(15):26"/>
				</v:userDefs>
				<v:textBlock v:margins="rect(4,4,4,4)"/>
				<v:textRect cx="22.8735" cy="456.158" width="45.75" height="36.48"/>
				<rect x="0" y="437.918" width="45.7471" height="36.48" class="st15"/>
				<text x="4.07" y="458.56" class="st13" v:langID="1033"><v:paragraph v:horizAlign="1"/><v:tabList/>switch_A_2</text>			</g>
			<g id="shape1059-43" v:mID="1059" v:groupContext="shape" transform="translate(18.75,-107.02)">
				<title>Rectangle.12</title>
				<desc>switch_A_1</desc>
				<v:userDefs>
					<v:ud v:nameU="visVersion" v:val="VT0(15):26"/>
				</v:userDefs>
				<v:textBlock v:margins="rect(4,4,4,4)"/>
				<v:textRect cx="22.8017" cy="456.158" width="45.61" height="36.48"/>
				<rect x="0" y="437.918" width="45.6034" height="36.48" class="st15"/>
				<text x="4" y="458.56" class="st13" v:langID="1033"><v:paragraph v:horizAlign="1"/><v:tabList/>switch_A_1</text>			</g>
		</g>
		<g id="group1061-47" transform="translate(360.75,-119.25)" v:mID="1061" v:groupContext="group">
			<title>Sheet.1061</title>
			<g id="shape1062-48" v:mID="1062" v:groupContext="shape" transform="translate(132.75,-23.0744) scale(-1,1)">
				<title>Rectangle.1011</title>
				<v:userDefs>
					<v:ud v:nameU="visVersion" v:val="VT0(15):26"/>
				</v:userDefs>
				<rect x="0" y="340.144" width="128.002" height="134.254" class="st12"/>
			</g>
			<g id="shape1063-50" v:mID="1063" v:groupContext="shape" transform="translate(124.811,-4.5) scale(-1,1)">
				<title>Sheet.1063</title>
				<desc>MetroCluster Two IP switches, cluster_B</desc>
				<v:textBlock v:margins="rect(4,4,4,4)"/>
				<v:textRect cx="55.0614" cy="469.57" width="110.13" height="9.65649"/>
				<rect x="0" y="464.742" width="110.123" height="9.65649" class="st8"/>
				<text x="-84.58" y="467.17" transform="scale(-1,1)" class="st13" v:langID="1033"><v:paragraph v:horizAlign="1"/><v:tabList/>MetroCluster Two<v:newlineChar/><tspan
							x="-90.14" dy="1.2em" class="st6">IP switches, cluster_B</tspan></text>			</g>
			<g id="shape1064-54" v:mID="1064" v:groupContext="shape" v:layerMember="0" transform="translate(44.5953,-107.828)">
				<title>Dynamic connector.72</title>
				<path d="M-8.9 474.4 L-8.9 487.9 L-9.1 487.9 L-9.1 504.86" class="st14"/>
			</g>
			<g id="shape1065-57" v:mID="1065" v:groupContext="shape" transform="translate(59.888,-107.828) scale(-1,1)">
				<title>Rectangle</title>
				<desc>switch_B_1</desc>
				<v:userDefs>
					<v:ud v:nameU="visVersion" v:val="VT0(15):26"/>
				</v:userDefs>
				<v:textBlock v:margins="rect(4,4,4,4)"/>
				<v:textRect cx="24.1952" cy="456.158" width="48.4" height="36.48"/>
				<rect x="0" y="437.918" width="48.3903" height="36.48" class="st15"/>
				<text x="-42.86" y="458.56" transform="scale(-1,1)" class="st13" v:langID="1033"><v:paragraph v:horizAlign="1"/><v:tabList/>switch_B_1</text>			</g>
			<g id="shape1066-61" v:mID="1066" v:groupContext="shape" transform="translate(59.7691,-40.8909) scale(-1,1)">
				<title>Rectangle.17</title>
				<desc>switch_B_2</desc>
				<v:userDefs>
					<v:ud v:nameU="visVersion" v:val="VT0(15):26"/>
				</v:userDefs>
				<v:textBlock v:margins="rect(4,4,4,4)"/>
				<v:textRect cx="24.2714" cy="456.158" width="48.55" height="36.48"/>
				<rect x="0" y="437.918" width="48.5427" height="36.48" class="st15"/>
				<text x="-42.93" y="458.56" transform="scale(-1,1)" class="st13" v:langID="1033"><v:paragraph v:horizAlign="1"/><v:tabList/>switch_B_2</text>			</g>
		</g>
		<g id="shape1067-65" v:mID="1067" v:groupContext="shape" v:layerMember="0" transform="translate(134.103,-247.778)">
			<title>Dynamic connector.1067</title>
			<path d="M0 474.4 L19.46 474.4 L19.46 343.43 L36.15 343.43" class="st14"/>
		</g>
		<g id="shape1071-68" v:mID="1071" v:groupContext="shape" transform="translate(87,-18.746)">
			<title>Cloud.1006</title>
			<desc>Host network</desc>
			<v:userDefs>
				<v:ud v:nameU="visVersion" v:prompt="" v:val="VT0(15):26"/>
			</v:userDefs>
			<v:textBlock v:margins="rect(4,4,4,4)"/>
			<v:textRect cx="54" cy="438.398" width="108" height="72"/>
			<path d="M5.31 444.93 A8.52891 9.56618 0 0 1 9.41 426.55 A17.2957 19.3991 0 0 1 34.51 411.05 A19.8602 22.2756 0 0 1 56.01
						 407.6 A12.4541 13.9688 0 0 1 74.44 406.44 A14.1793 15.9037 0 0 1 96.98 412.19 A10.1386 11.3712 0 0 1 105.17
						 428.28 A12.5579 14.0847 0 0 1 94.93 451.25 A15.8428 17.769 0 0 1 72.4 462.73 A18.6801 20.9512 0 0 1 41.68
						 467.34 A23.6794 26.5583 0 0 1 15.04 462.73 A9.342 10.4782 0 0 1 5.31 444.93 Z" class="st16"/>
			<path d="M5.31 444.93 A8.52891 9.56618 0 0 1 9.41 426.55 A17.2957 19.3991 0 0 1 34.51 411.05 A19.8602 22.2756 0 0 1 56.01
						 407.6 A12.4541 13.9688 0 0 1 74.44 406.44 A14.1793 15.9037 0 0 1 96.98 412.19 A10.1386 11.3712 0 0 1 105.17
						 428.28 A12.5579 14.0847 0 0 1 94.93 451.25 A15.8428 17.769 0 0 1 72.4 462.73 A18.6801 20.9512 0 0 1 41.68
						 467.34 A23.6794 26.5583 0 0 1 15.04 462.73 A9.342 10.4782 0 0 1 5.31 444.93" class="st17"/>
			<path d="M10.94 445.5 A8.50534 9.53974 0 0 1 5.31 444.93" class="st17"/>
			<path d="M40.13 464.46 A8.54237 9.58127 -180 0 0 41.68 467.34" class="st17"/>
			<path d="M73.17 459.29 A6.89577 7.73442 0 0 1 72.4 462.73" class="st17"/>
			<path d="M88.79 442.06 A7.2359 8.11591 0 0 1 94.93 451.25" class="st17"/>
			<path d="M102.1 431.72 A6.60605 7.40946 -180 0 0 105.17 428.28" class="st17"/>
			<path d="M37.57 413.34 A10.1871 11.4257 -180 0 0 34.51 411.05" class="st17"/>
			<text x="26.47" y="441.4" class="st18" v:langID="1033"><v:paragraph v:horizAlign="1"/><v:tabList/>Host network</text>		</g>
		<g id="group1072-79" transform="translate(143.25,-342.746)" v:mID="1072" v:groupContext="group">
			<title>Sheet.1072</title>
			<g id="shape1074-80" v:mID="1074" v:groupContext="shape" transform="translate(27,-5.68434E-14)">
				<title>Rectangle.1001</title>
				<desc>Switch</desc>
				<v:userDefs>
					<v:ud v:nameU="visVersion" v:val="VT0(15):26"/>
				</v:userDefs>
				<v:textBlock v:margins="rect(4,4,4,4)"/>
				<v:textRect cx="31.5" cy="438.398" width="63" height="72"/>
				<g id="shadow1074-81" v:groupContext="shadow" v:shadowOffsetX="0.345598" v:shadowOffsetY="-1.97279"
						v:shadowType="1" transform="matrix(1,0,0,1,0.345598,1.97279)" class="st1">
					<rect x="0" y="402.398" width="63" height="72" class="st2"/>
				</g>
				<rect x="0" y="402.398" width="63" height="72" class="st19"/>
				<text x="18.06" y="441.4" class="st20" v:langID="1033"><v:paragraph v:horizAlign="1"/><v:tabList/>Switch</text>			</g>
			<g id="shape1075-86" v:mID="1075" v:groupContext="shape" transform="translate(132.75,1.71661E-06)">
				<title>Rectangle.1003</title>
				<desc>Switch</desc>
				<v:userDefs>
					<v:ud v:nameU="visVersion" v:val="VT0(15):26"/>
				</v:userDefs>
				<v:textBlock v:margins="rect(4,4,4,4)"/>
				<v:textRect cx="31.5" cy="438.398" width="63" height="72"/>
				<g id="shadow1075-87" v:groupContext="shadow" v:shadowOffsetX="0.345598" v:shadowOffsetY="-1.97279"
						v:shadowType="1" transform="matrix(1,0,0,1,0.345598,1.97279)" class="st1">
					<rect x="0" y="402.398" width="63" height="72" class="st2"/>
				</g>
				<rect x="0" y="402.398" width="63" height="72" class="st19"/>
				<text x="18.06" y="441.4" class="st20" v:langID="1033"><v:paragraph v:horizAlign="1"/><v:tabList/>Switch</text>			</g>
			<g id="shape1076-92" v:mID="1076" v:groupContext="shape" v:layerMember="0" transform="translate(90,-45)">
				<title>Dynamic connector.1007</title>
				<path d="M0 483.4 L42.75 483.4" class="st21"/>
			</g>
		</g>
		<g id="shape1089-95" v:mID="1089" v:groupContext="shape" v:layerMember="0" transform="translate(353.636,-82.3122)">
			<title>Dynamic connector.1089</title>
			<path d="M0 474.4 L-0 459.96 L-43.89 459.96 L-43.89 303.96" class="st22"/>
		</g>
		<g id="shape1082-98" v:mID="1082" v:groupContext="shape" transform="translate(334.5,-18.746)">
			<title>Cloud.1036</title>
			<desc>Host network</desc>
			<v:userDefs>
				<v:ud v:nameU="visVersion" v:prompt="" v:val="VT0(15):26"/>
			</v:userDefs>
			<v:textBlock v:margins="rect(4,4,4,4)"/>
			<v:textRect cx="54" cy="438.398" width="108" height="72"/>
			<path d="M5.31 444.93 A8.52891 9.56618 0 0 1 9.41 426.55 A17.2957 19.3991 0 0 1 34.51 411.05 A19.8602 22.2756 0 0 1 56.01
						 407.6 A12.4541 13.9688 0 0 1 74.44 406.44 A14.1793 15.9037 0 0 1 96.98 412.19 A10.1386 11.3712 0 0 1 105.17
						 428.28 A12.5579 14.0847 0 0 1 94.93 451.25 A15.8428 17.769 0 0 1 72.4 462.73 A18.6801 20.9512 0 0 1 41.68
						 467.34 A23.6794 26.5583 0 0 1 15.04 462.73 A9.342 10.4782 0 0 1 5.31 444.93 Z" class="st16"/>
			<path d="M5.31 444.93 A8.52891 9.56618 0 0 1 9.41 426.55 A17.2957 19.3991 0 0 1 34.51 411.05 A19.8602 22.2756 0 0 1 56.01
						 407.6 A12.4541 13.9688 0 0 1 74.44 406.44 A14.1793 15.9037 0 0 1 96.98 412.19 A10.1386 11.3712 0 0 1 105.17
						 428.28 A12.5579 14.0847 0 0 1 94.93 451.25 A15.8428 17.769 0 0 1 72.4 462.73 A18.6801 20.9512 0 0 1 41.68
						 467.34 A23.6794 26.5583 0 0 1 15.04 462.73 A9.342 10.4782 0 0 1 5.31 444.93" class="st17"/>
			<path d="M10.94 445.5 A8.50534 9.53974 0 0 1 5.31 444.93" class="st17"/>
			<path d="M40.13 464.46 A8.54237 9.58127 -180 0 0 41.68 467.34" class="st17"/>
			<path d="M73.17 459.29 A6.89577 7.73442 0 0 1 72.4 462.73" class="st17"/>
			<path d="M88.79 442.06 A7.2359 8.11591 0 0 1 94.93 451.25" class="st17"/>
			<path d="M102.1 431.72 A6.60605 7.40946 -180 0 0 105.17 428.28" class="st17"/>
			<path d="M37.57 413.34 A10.1871 11.4257 -180 0 0 34.51 411.05" class="st17"/>
			<text x="26.47" y="441.4" class="st18" v:langID="1033"><v:paragraph v:horizAlign="1"/><v:tabList/>Host network</text>		</g>
		<g id="shape55-109" v:mID="55" v:groupContext="shape" v:layerMember="0" transform="translate(129.603,-427.628)">
			<title>Dynamic connector</title>
			<path d="M0 479.52 L72.15 479.52 L72.15 487.28" class="st10"/>
		</g>
		<g id="shape1087-112" v:mID="1087" v:groupContext="shape" v:layerMember="0" transform="translate(152.729,-90.7315)">
			<title>Dynamic connector.1087</title>
			<path d="M0 474.4 L0 413.08 L7.58 413.08 L7.58 229.13 L49.02 229.13 L49.02 222.38" class="st22"/>
		</g>
		<g id="shape1088-115" v:mID="1088" v:groupContext="shape" v:layerMember="0" transform="translate(174.881,-90.1042)">
			<title>Dynamic connector.1088</title>
			<path d="M0 474.4 L0 460.26 L37.18 460.26 L37.18 311.38" class="st22"/>
		</g>
		<g id="shape1090-118" v:mID="1090" v:groupContext="shape" v:layerMember="0" transform="translate(379.445,-87.4331)">
			<title>Dynamic connector.1090</title>
			<path d="M0 474.4 L0 453.09 L-31.82 453.09 L-31.82 232.59 L-71.95 232.59 L-71.95 219.09" class="st22"/>
		</g>
		<g id="shape1084-121" v:mID="1084" v:groupContext="shape" v:layerMember="0" transform="translate(134.175,-181.32)">
			<title>Dynamic connector.1084</title>
			<path d="M0 474.4 L23.14 474.4 A3 3 0 1 1 29.14 474.4 L56.32 474.4 L56.32 402.97" class="st23"/>
		</g>
		<g id="shape1085-124" v:mID="1085" v:groupContext="shape" v:layerMember="0" transform="translate(129.675,-356.053)">
			<title>Dynamic connector.1085</title>
			<path d="M0 474.4 L18.82 474.4 L18.82 541.7 L20.89 541.7 A3 3 0 0 1 26.89 541.7 L27.64 541.7 A3 3 0 0 1 33.64 541.7 L40.57
						 541.7" class="st10"/>
		</g>
		<g id="group1077-127" transform="translate(170.25,-252.746)" v:mID="1077" v:groupContext="group">
			<title>Sheet.1077</title>
			<g id="shape1079-128" v:mID="1079" v:groupContext="shape">
				<title>Rectangle.1001</title>
				<desc>Switch</desc>
				<v:userDefs>
					<v:ud v:nameU="visVersion" v:val="VT0(15):26"/>
				</v:userDefs>
				<v:textBlock v:margins="rect(4,4,4,4)"/>
				<v:textRect cx="31.5" cy="438.398" width="63" height="72"/>
				<g id="shadow1079-129" v:groupContext="shadow" v:shadowOffsetX="0.345598" v:shadowOffsetY="-1.97279"
						v:shadowType="1" transform="matrix(1,0,0,1,0.345598,1.97279)" class="st1">
					<rect x="0" y="402.398" width="63" height="72" class="st2"/>
				</g>
				<rect x="0" y="402.398" width="63" height="72" class="st19"/>
				<text x="18.06" y="441.4" class="st20" v:langID="1033"><v:paragraph v:horizAlign="1"/><v:tabList/>Switch</text>			</g>
			<g id="shape1080-134" v:mID="1080" v:groupContext="shape" transform="translate(108,0)">
				<title>Rectangle.1003</title>
				<desc>Switch</desc>
				<v:userDefs>
					<v:ud v:nameU="visVersion" v:val="VT0(15):26"/>
				</v:userDefs>
				<v:textBlock v:margins="rect(4,4,4,4)"/>
				<v:textRect cx="31.5" cy="438.398" width="63" height="72"/>
				<g id="shadow1080-135" v:groupContext="shadow" v:shadowOffsetX="0.345598" v:shadowOffsetY="-1.97279"
						v:shadowType="1" transform="matrix(1,0,0,1,0.345598,1.97279)" class="st1">
					<rect x="0" y="402.398" width="63" height="72" class="st2"/>
				</g>
				<rect x="0" y="402.398" width="63" height="72" class="st19"/>
				<text x="18.06" y="441.4" class="st20" v:langID="1033"><v:paragraph v:horizAlign="1"/><v:tabList/>Switch</text>			</g>
			<g id="shape1081-140" v:mID="1081" v:groupContext="shape" v:layerMember="0" transform="translate(63,-45)">
				<title>Dynamic connector.1007</title>
				<path d="M0 483.4 L45 483.4" class="st21"/>
			</g>
		</g>
		<g id="shape1091-143" v:mID="1091" v:groupContext="shape" transform="translate(23.25,-406.813)">
			<title>Rectangle.6</title>
			<desc>node_A_1</desc>
			<v:userDefs>
				<v:ud v:nameU="visVersion" v:val="VT0(15):26"/>
			</v:userDefs>
			<v:textBlock v:margins="rect(4,4,4,4)"/>
			<v:textRect cx="21.6131" cy="457.086" width="43.23" height="34.6243"/>
			<rect x="0" y="439.774" width="43.2262" height="34.6243" class="st11"/>
			<text x="4.98" y="459.49" class="st9" v:langID="1033"><v:paragraph v:horizAlign="1"/><v:tabList/>node_A_1</text>		</g>
		<g id="shape1092-147" v:mID="1092" v:groupContext="shape" transform="translate(23.4353,-339.75)">
			<title>Rectangle.9</title>
			<desc>node_A_2</desc>
			<v:userDefs>
				<v:ud v:nameU="visVersion" v:val="VT0(15):26"/>
			</v:userDefs>
			<v:textBlock v:margins="rect(4,4,4,4)"/>
			<v:textRect cx="21.6131" cy="457.15" width="43.23" height="34.496"/>
			<rect x="0" y="439.902" width="43.2262" height="34.496" class="st11"/>
			<text x="4.98" y="459.55" class="st9" v:langID="1033"><v:paragraph v:horizAlign="1"/><v:tabList/>node_A_2</text>		</g>
		<g id="shape1093-151" v:mID="1093" v:groupContext="shape" v:layerMember="0" transform="translate(66.2381,-423)">
			<title>Dynamic connector.1093</title>
			<path d="M0.24 465.4 L17.76 465.4" class="st21"/>
		</g>
		<g id="shape1094-154" v:mID="1094" v:groupContext="shape" v:layerMember="0" transform="translate(66.2022,-414)">
			<title>Dynamic connector.1094</title>
			<path d="M0.27 474.4 L4.21 474.4 A3 3 0 0 1 10.21 474.4 L13.3 474.4 L13.3 517.86 L17.73 517.86 L17.73 532.35"
					class="st21"/>
		</g>
		<g id="shape1095-157" v:mID="1095" v:groupContext="shape" v:layerMember="0" transform="translate(66.2949,-337.5)">
			<title>Dynamic connector.1095</title>
			<path d="M0.37 465.4 L17.63 465.4" class="st21"/>
		</g>
		<g id="shape1096-160" v:mID="1096" v:groupContext="shape" v:layerMember="0" transform="translate(66.3308,-364.5)">
			<title>Dynamic connector.1096</title>
			<path d="M0.33 474.4 L7.08 474.4 L7.08 416.39 L17.67 416.39" class="st21"/>
		</g>
		<g id="shape1097-163" v:mID="1097" v:groupContext="shape" transform="translate(28.5442,-229.5)">
			<title>Rectangle.1097</title>
			<desc>node_A_1</desc>
			<v:userDefs>
				<v:ud v:nameU="visVersion" v:val="VT0(15):26"/>
			</v:userDefs>
			<v:textBlock v:margins="rect(4,4,4,4)"/>
			<v:textRect cx="21.6131" cy="456.398" width="43.23" height="36"/>
			<rect x="0" y="438.398" width="43.2262" height="36" class="st15"/>
			<text x="4.98" y="458.8" class="st13" v:langID="1033"><v:paragraph v:horizAlign="1"/><v:tabList/>node_A_1</text>		</g>
		<g id="shape1098-167" v:mID="1098" v:groupContext="shape" transform="translate(28.7296,-163.813)">
			<title>Rectangle.1098</title>
			<desc>node_A_2</desc>
			<v:userDefs>
				<v:ud v:nameU="visVersion" v:val="VT0(15):26"/>
			</v:userDefs>
			<v:textBlock v:margins="rect(4,4,4,4)"/>
			<v:textRect cx="21.6131" cy="457.15" width="43.23" height="34.496"/>
			<rect x="0" y="439.902" width="43.2262" height="34.496" class="st15"/>
			<text x="4.98" y="459.55" class="st13" v:langID="1033"><v:paragraph v:horizAlign="1"/><v:tabList/>node_A_2</text>		</g>
		<g id="shape1099-171" v:mID="1099" v:groupContext="shape" v:layerMember="0" transform="translate(71.5323,-247.063)">
			<title>Dynamic connector.1099</title>
			<path d="M0.24 465.4 L17.76 465.4" class="st24"/>
		</g>
		<g id="shape1100-174" v:mID="1100" v:groupContext="shape" v:layerMember="0" transform="translate(71.0993,-238.063)">
			<title>Dynamic connector.1100</title>
			<path d="M0.67 474.4 L4.61 474.4 A3 3 0 1 1 10.61 474.4 L11.78 474.4 L11.78 516.96 L17.33 516.96 L17.33 531.14"
					class="st24"/>
		</g>
		<g id="shape1101-177" v:mID="1101" v:groupContext="shape" v:layerMember="0" transform="translate(71.2279,-188.563)">
			<title>Dynamic connector.1101</title>
			<path d="M0.73 474.4 L7.48 474.4 L7.48 415.18 L17.27 415.18" class="st24"/>
		</g>
		<g id="shape1102-180" v:mID="1102" v:groupContext="shape" v:layerMember="0" transform="translate(71.5891,-161.563)">
			<title>Dynamic connector.1102</title>
			<path d="M0.37 465.4 L17.63 465.4" class="st24"/>
		</g>
		<g id="group1115-183" transform="translate(364.838,-297.5)" v:mID="1115" v:groupContext="group">
			<title>Sheet.1115</title>
			<g id="group1103-184" transform="translate(76.5,0) scale(-1,1)" v:mID="1103" v:groupContext="group">
				<title>Sheet.1103</title>
				<g id="shape1104-185" v:mID="1104" v:groupContext="shape" transform="translate(-49.9118,-18.2462)">
					<title>Rectangle.2</title>
					<v:userDefs>
						<v:ud v:nameU="visVersion" v:val="VT0(15):26"/>
					</v:userDefs>
					<rect x="0" y="335.644" width="124.405" height="138.754" class="st7"/>
				</g>
				<g id="shape1105-187" v:mID="1105" v:groupContext="shape" transform="translate(-24.375,-1.67182)">
					<title>Sheet.1105</title>
					<desc>MetroCluster One IP switches, cluster_B</desc>
					<v:textBlock v:margins="rect(4,4,4,4)"/>
					<v:textRect cx="40.875" cy="469.57" width="81.76" height="9.65649"/>
					<rect x="0" y="464.742" width="81.75" height="9.65649" class="st8"/>
					<text x="-70.21" y="467.17" transform="scale(-1,1)" class="st9" v:langID="1033"><v:paragraph v:horizAlign="1"/><v:tabList/>MetroCluster One <v:newlineChar/><tspan
								x="-75.95" dy="1.2em" class="st6">IP switches, cluster_B </tspan> </text>				</g>
				<g id="shape1106-191" v:mID="1106" v:groupContext="shape" v:layerMember="0" transform="translate(32.5517,-107.02)">
					<title>Dynamic connector.72</title>
					<path d="M9 474.4 L9 504.38" class="st10"/>
				</g>
				<g id="shape1107-194" v:mID="1107" v:groupContext="shape" transform="translate(18.75,-107.02)">
					<title>Rectangle.12</title>
					<desc>switch_B_1</desc>
					<v:userDefs>
						<v:ud v:nameU="visVersion" v:val="VT0(15):26"/>
					</v:userDefs>
					<v:textBlock v:margins="rect(4,4,4,4)"/>
					<v:textRect cx="22.8017" cy="456.158" width="45.61" height="36.48"/>
					<rect x="0" y="437.918" width="45.6034" height="36.48" class="st11"/>
					<text x="-41.46" y="458.56" transform="scale(-1,1)" class="st9" v:langID="1033"><v:paragraph v:horizAlign="1"/><v:tabList/>switch_B_1</text>				</g>
				<g id="shape1108-198" v:mID="1108" v:groupContext="shape" transform="translate(18.6782,-40.5626)">
					<title>Rectangle.13</title>
					<desc>switch_B_2</desc>
					<v:userDefs>
						<v:ud v:nameU="visVersion" v:val="VT0(15):26"/>
					</v:userDefs>
					<v:textBlock v:margins="rect(4,4,4,4)"/>
					<v:textRect cx="22.8735" cy="456.158" width="45.75" height="36.48"/>
					<rect x="0" y="437.918" width="45.7471" height="36.48" class="st11"/>
					<text x="-41.54" y="458.56" transform="scale(-1,1)" class="st9" v:langID="1033"><v:paragraph v:horizAlign="1"/><v:tabList/>switch_B_2</text>				</g>
			</g>
			<g id="shape1109-202" v:mID="1109" v:groupContext="shape" transform="translate(121.912,-111.173) scale(-1,1)">
				<title>Rectangle.1109</title>
				<desc>node_B_1</desc>
				<v:userDefs>
					<v:ud v:nameU="visVersion" v:val="VT0(15):26"/>
				</v:userDefs>
				<v:textBlock v:margins="rect(4,4,4,4)"/>
				<v:textRect cx="21.6131" cy="457.086" width="43.23" height="34.6243"/>
				<rect x="0" y="439.774" width="43.2262" height="34.6243" class="st11"/>
				<text x="-38.1" y="459.49" transform="scale(-1,1)" class="st9" v:langID="1033"><v:paragraph v:horizAlign="1"/><v:tabList/>node_B_1</text>			</g>
			<g id="shape1110-206" v:mID="1110" v:groupContext="shape" transform="translate(121.726,-44.1099) scale(-1,1)">
				<title>Rectangle.1110</title>
				<desc>node_B_2</desc>
				<v:userDefs>
					<v:ud v:nameU="visVersion" v:val="VT0(15):26"/>
				</v:userDefs>
				<v:textBlock v:margins="rect(4,4,4,4)"/>
				<v:textRect cx="21.6131" cy="457.15" width="43.23" height="34.496"/>
				<rect x="0" y="439.902" width="43.2262" height="34.496" class="st11"/>
				<text x="-38.1" y="459.55" transform="scale(-1,1)" class="st9" v:langID="1033"><v:paragraph v:horizAlign="1"/><v:tabList/>node_B_2</text>			</g>
			<g id="shape1111-210" v:mID="1111" v:groupContext="shape" v:layerMember="0" transform="translate(78.6855,-145.274)">
				<title>Dynamic connector.1111</title>
				<path d="M0 483.31 L-20.52 483.48" class="st21"/>
			</g>
			<g id="shape1112-213" v:mID="1112" v:groupContext="shape" v:layerMember="0" transform="translate(78.6855,-118.36)">
				<title>Dynamic connector.1112</title>
				<path d="M0 474.4 L-8.15 474.4 L-8.15 533.96 L-20.86 533.96" class="st21"/>
			</g>
			<g id="shape1113-216" v:mID="1113" v:groupContext="shape" v:layerMember="0" transform="translate(78.5002,-42.055)">
				<title>Dynamic connector.1113</title>
				<path d="M0 465.59 L-20.9 465.2" class="st21"/>
			</g>
			<g id="shape1114-219" v:mID="1114" v:groupContext="shape" v:layerMember="0" transform="translate(78.5002,-68.8599)">
				<title>Dynamic connector.1114</title>
				<path d="M0 474.4 L-4.96 474.4 A3 3 -180 0 0 -10.96 474.4 L-12.46 474.4 L-12.46 418 L-20.75 418" class="st21"/>
			</g>
		</g>
		<g id="shape1039-222" v:mID="1039" v:groupContext="shape" v:layerMember="0" transform="translate(307.5,-409.753)">
			<title>Dynamic connector.1039</title>
			<path d="M0 469.41 L0 461.39 L69.48 461.39" class="st10"/>
		</g>
		<g id="shape1116-225" v:mID="1116" v:groupContext="shape" v:layerMember="0" transform="translate(376.913,-356.303)">
			<title>Dynamic connector.1116</title>
			<path d="M0 474.4 L-16.35 474.4 L-16.35 541.95 L-20.66 541.95 A5.8125 5.8125 -180 0 0 -32.29 541.95 L-35.66 541.95"
					class="st10"/>
		</g>
		<g id="shape1117-228" v:mID="1117" v:groupContext="shape" transform="translate(438.838,-228.594)">
			<title>Rectangle.1117</title>
			<desc>node_B_1</desc>
			<v:userDefs>
				<v:ud v:nameU="visVersion" v:val="VT0(15):26"/>
			</v:userDefs>
			<v:textBlock v:margins="rect(4,4,4,4)"/>
			<v:textRect cx="21.6131" cy="456.398" width="43.23" height="36"/>
			<rect x="0" y="438.398" width="43.2262" height="36" class="st15"/>
			<text x="5.12" y="458.8" class="st13" v:langID="1033"><v:paragraph v:horizAlign="1"/><v:tabList/>node_B_1</text>		</g>
		<g id="shape1118-232" v:mID="1118" v:groupContext="shape" transform="translate(439.024,-162.906)">
			<title>Rectangle.1118</title>
			<desc>node_B_2</desc>
			<v:userDefs>
				<v:ud v:nameU="visVersion" v:val="VT0(15):26"/>
			</v:userDefs>
			<v:textBlock v:margins="rect(4,4,4,4)"/>
			<v:textRect cx="21.6131" cy="457.15" width="43.23" height="34.496"/>
			<rect x="0" y="439.902" width="43.2262" height="34.496" class="st15"/>
			<text x="5.12" y="459.55" class="st13" v:langID="1033"><v:paragraph v:horizAlign="1"/><v:tabList/>node_B_2</text>		</g>
		<g id="shape1119-236" v:mID="1119" v:groupContext="shape" v:layerMember="0" transform="translate(420.638,-259.422)">
			<title>Dynamic connector.1119</title>
			<path d="M0 479.57 L18.2 479.57 L18.2 487.23" class="st24"/>
		</g>
		<g id="shape1120-239" v:mID="1120" v:groupContext="shape" v:layerMember="0" transform="translate(420.638,-245.318)">
			<title>Dynamic connector.1120</title>
			<path d="M0 474.4 L9.3 474.4 L9.3 530.72 L18.39 530.72" class="st24"/>
		</g>
		<g id="shape1122-242" v:mID="1122" v:groupContext="shape" v:layerMember="0" transform="translate(420.519,-189)">
			<title>Dynamic connector.1122</title>
			<path d="M0 474.4 L3.79 474.4 L3.79 453.87 L6.42 453.87 A3 3 0 1 1 12.42 453.87 L13.36 453.87 L13.36 427.15 L18.32 427.15"
					class="st24"/>
		</g>
		<g id="shape1124-245" v:mID="1124" v:groupContext="shape" v:layerMember="0" transform="translate(439.024,-188.268)">
			<title>Dynamic connector.1124</title>
			<path d="M0 482.51 L-6.75 482.51 L-6.75 484.29 L-18.5 484.29" class="st24"/>
		</g>
		<g id="shape1125-248" v:mID="1125" v:groupContext="shape" v:layerMember="0" transform="translate(372.248,-245.318)">
			<title>Dynamic connector.1125</title>
			<path d="M0 474.4 L-19 474.4 L-19 340.97 L-33.25 340.97" class="st14"/>
		</g>
		<g id="shape1070-251" v:mID="1070" v:groupContext="shape" v:layerMember="0" transform="translate(371.976,-178.381)">
			<title>Dynamic connector.1070</title>
			<path d="M0 474.4 L-21.35 474.4 A3 3 -180 0 0 -27.35 474.4 L-46.85 474.4 L-46.85 400.22" class="st23"/>
		</g>
	</g>
</svg>
