<?xml version="1.0" encoding="UTF-8" standalone="no"?>
<!DOCTYPE svg PUBLIC "-//W3C//DTD SVG 1.1//EN" "http://www.w3.org/Graphics/SVG/1.1/DTD/svg11.dtd">
<!-- Generated by Microsoft Visio, SVG Export MCC  IP networks - shared ISLs.svg Page-1 -->
<svg xmlns="http://www.w3.org/2000/svg" xmlns:xlink="http://www.w3.org/1999/xlink" xmlns:ev="http://www.w3.org/2001/xml-events"
		xmlns:v="http://schemas.microsoft.com/visio/2003/SVGExtensions/" width="6.88542in" height="4.04503in"
		viewBox="0 0 495.75 291.242" xml:space="preserve" color-interpolation-filters="sRGB" class="st21">
	<v:documentProperties v:langID="1033" v:viewMarkup="false">
		<v:userDefs>
			<v:ud v:nameU="msvSubprocessMaster" v:prompt="" v:val="VT4(Rectangle)"/>
			<v:ud v:nameU="msvNoAutoConnect" v:val="VT0(1):26"/>
		</v:userDefs>
	</v:documentProperties>

	<style type="text/css">
	<![CDATA[
		.st1 {stroke:#a8d08d;stroke-linecap:round;stroke-linejoin:round;stroke-width:3}
		.st2 {fill:url(#grad0-10)}
		.st3 {stroke:#a8d08d;stroke-width:0.75}
		.st4 {fill:#538135;font-family:Calibri;font-size:0.833336em}
		.st5 {visibility:visible}
		.st6 {fill:#5b9bd5;fill-opacity:0.22;filter:url(#filter_2);stroke:#5b9bd5;stroke-opacity:0.22}
		.st7 {fill:#5b9bd5;stroke:#c7c8c8;stroke-width:0.25}
		.st8 {fill:#feffff;font-family:Calibri;font-size:0.833336em}
		.st9 {font-size:1em}
		.st10 {fill:none;stroke:none;stroke-width:0.25}
		.st11 {fill:#c55a11;font-family:Calibri;font-size:0.666664em}
		.st12 {stroke:#c55a11;stroke-dasharray:2.25,2.25;stroke-linecap:round;stroke-linejoin:round;stroke-width:0.75}
		.st13 {fill:#fbe5d5;stroke:#5b9bd5;stroke-width:0.75}
		.st14 {fill:none;stroke:none;stroke-width:0.75}
		.st15 {fill:#5b9bd5;font-family:Calibri;font-size:0.666664em}
		.st16 {fill:url(#grad0-10);stroke:#000000;stroke-width:0.75}
		.st17 {fill:#000000;font-family:Calibri;font-size:0.666664em}
		.st18 {stroke:#5b9bd5;stroke-linecap:round;stroke-linejoin:round;stroke-width:1}
		.st19 {stroke:#5b9bd5;stroke-linecap:round;stroke-linejoin:round;stroke-width:3}
		.st20 {fill:url(#grad0-10);stroke:#5b9bd5;stroke-width:0.75}
		.st21 {fill:none;fill-rule:evenodd;font-size:12px;overflow:visible;stroke-linecap:square;stroke-miterlimit:3}
	]]>
	</style>

	<defs id="Patterns_And_Gradients">
		<linearGradient id="grad0-10" x1="0" y1="0" x2="1" y2="0" gradientTransform="rotate(60 0.5 0.5)">
			<stop offset="0" stop-color="#e9eff7" stop-opacity="1"/>
			<stop offset="0.24" stop-color="#f4f7fb" stop-opacity="1"/>
			<stop offset="0.54" stop-color="#feffff" stop-opacity="1"/>
		</linearGradient>
	</defs>
	<defs id="Filters">
		<filter id="filter_2">
			<feGaussianBlur stdDeviation="2"/>
		</filter>
	</defs>
	<g v:mID="0" v:index="1" v:groupContext="foregroundPage">
		<v:userDefs>
			<v:ud v:nameU="msvThemeOrder" v:val="VT0(0):26"/>
		</v:userDefs>
		<title>Page-1</title>
		<v:pageProperties v:drawingScale="1" v:pageScale="1" v:drawingUnits="0" v:shadowOffsetX="9" v:shadowOffsetY="-9"/>
		<v:layer v:name="Connector" v:index="0"/>
		<g id="shape1048-1" v:mID="1048" v:groupContext="shape" v:layerMember="0" transform="translate(379.136,-82.3122)">
			<title>Dynamic connector.1048</title>
			<path d="M0 291.24 L-32.64 291.24 L-32.64 185.68 L-73.14 185.68 L-73.14 180.92" class="st1"/>
		</g>
		<g id="shape1047-4" v:mID="1047" v:groupContext="shape" v:layerMember="0" transform="translate(136.885,-78.3546)">
			<title>Dynamic connector.1047</title>
			<path d="M0 291.24 L16.77 291.24 L16.77 184.35 L56.61 184.35 L56.61 176.97" class="st1"/>
		</g>
		<g id="shape1006-7" v:mID="1006" v:groupContext="shape" transform="translate(31.5,-23.246)">
			<title>Cloud.1006</title>
			<desc>Host network</desc>
			<v:userDefs>
				<v:ud v:nameU="visVersion" v:prompt="" v:val="VT0(15):26"/>
			</v:userDefs>
			<v:textBlock v:margins="rect(4,4,4,4)"/>
			<v:textRect cx="54" cy="255.242" width="108" height="72"/>
			<path d="M5.31 261.77 A8.52891 9.56618 0 0 1 9.41 243.4 A17.2957 19.3991 0 0 1 34.51 227.89 A19.8602 22.2756 0 0 1 56.01
						 224.44 A12.4541 13.9688 0 0 1 74.44 223.29 A14.1793 15.9037 0 0 1 96.98 229.03 A10.1386 11.3712 0 0 1 105.17
						 245.12 A12.5579 14.0847 0 0 1 94.93 268.09 A15.8428 17.769 0 0 1 72.4 279.58 A18.6801 20.9512 0 0 1 41.68
						 284.18 A23.6794 26.5583 0 0 1 15.04 279.58 A9.342 10.4782 0 0 1 5.31 261.77 Z" class="st2"/>
			<path d="M5.31 261.77 A8.52891 9.56618 0 0 1 9.41 243.4 A17.2957 19.3991 0 0 1 34.51 227.89 A19.8602 22.2756 0 0 1 56.01
						 224.44 A12.4541 13.9688 0 0 1 74.44 223.29 A14.1793 15.9037 0 0 1 96.98 229.03 A10.1386 11.3712 0 0 1 105.17
						 245.12 A12.5579 14.0847 0 0 1 94.93 268.09 A15.8428 17.769 0 0 1 72.4 279.58 A18.6801 20.9512 0 0 1 41.68
						 284.18 A23.6794 26.5583 0 0 1 15.04 279.58 A9.342 10.4782 0 0 1 5.31 261.77" class="st3"/>
			<path d="M10.94 262.35 A8.50534 9.53974 0 0 1 5.31 261.77" class="st3"/>
			<path d="M40.13 281.31 A8.54237 9.58127 -180 0 0 41.68 284.18" class="st3"/>
			<path d="M73.17 276.14 A6.89577 7.73442 0 0 1 72.4 279.58" class="st3"/>
			<path d="M88.79 258.9 A7.2359 8.11591 0 0 1 94.93 268.09" class="st3"/>
			<path d="M102.1 248.57 A6.60605 7.40946 -180 0 0 105.17 245.12" class="st3"/>
			<path d="M37.57 230.19 A10.1871 11.4257 -180 0 0 34.51 227.89" class="st3"/>
			<text x="26.47" y="258.24" class="st4" v:langID="1033"><v:paragraph v:horizAlign="1"/><v:tabList/>Host network</text>		</g>
		<g id="group1010-19" transform="translate(162,-192.63)" v:mID="1010" v:groupContext="group">
			<title>Sheet.1010</title>
			<g id="shape1001-20" v:mID="1001" v:groupContext="shape">
				<title>Rectangle.1001</title>
				<desc>xWDM or switch</desc>
				<v:userDefs>
					<v:ud v:nameU="visVersion" v:val="VT0(15):26"/>
				</v:userDefs>
				<v:textBlock v:margins="rect(4,4,4,4)"/>
				<v:textRect cx="31.5" cy="255.242" width="63" height="72"/>
				<g id="shadow1001-21" v:groupContext="shadow" v:shadowOffsetX="0.345598" v:shadowOffsetY="-1.97279"
						v:shadowType="1" transform="matrix(1,0,0,1,0.345598,1.97279)" class="st5">
					<rect x="0" y="219.242" width="63" height="72" class="st6"/>
				</g>
				<rect x="0" y="219.242" width="63" height="72" class="st7"/>
				<text x="12.03" y="252.24" class="st8" v:langID="1033"><v:paragraph v:horizAlign="1"/><v:tabList/>xWDM or <tspan
							x="18.41" dy="1.2em" class="st9">switch</tspan></text>			</g>
			<g id="shape1003-27" v:mID="1003" v:groupContext="shape" transform="translate(112.5,0)">
				<title>Rectangle.1003</title>
				<desc>xWDM or switch</desc>
				<v:userDefs>
					<v:ud v:nameU="visVersion" v:val="VT0(15):26"/>
				</v:userDefs>
				<v:textBlock v:margins="rect(4,4,4,4)"/>
				<v:textRect cx="31.5" cy="255.242" width="63" height="72"/>
				<g id="shadow1003-28" v:groupContext="shadow" v:shadowOffsetX="0.345598" v:shadowOffsetY="-1.97279"
						v:shadowType="1" transform="matrix(1,0,0,1,0.345598,1.97279)" class="st5">
					<rect x="0" y="219.242" width="63" height="72" class="st6"/>
				</g>
				<rect x="0" y="219.242" width="63" height="72" class="st7"/>
				<text x="12.03" y="252.24" class="st8" v:langID="1033"><v:paragraph v:horizAlign="1"/><v:tabList/>xWDM or <tspan
							x="18.41" dy="1.2em" class="st9">switch</tspan></text>			</g>
			<g id="shape1005-34" v:mID="1005" v:groupContext="shape" transform="translate(11,-37.6157)">
				<title>Sheet.1005</title>
				<desc>Shared ISLs</desc>
				<v:textBlock v:margins="rect(4,4,4,4)"/>
				<v:textRect cx="76" cy="281.242" width="152" height="20"/>
				<rect x="0" y="271.242" width="152" height="20" class="st10"/>
				<text x="57.66" y="283.64" class="st11" v:langID="1033"><v:paragraph v:horizAlign="1"/><v:tabList/>Shared ISLs</text>			</g>
			<g id="shape1007-37" v:mID="1007" v:groupContext="shape" v:layerMember="0" transform="translate(63,-15.8617)">
				<title>Dynamic connector.1007</title>
				<path d="M0 282.24 L49.5 282.24" class="st12"/>
			</g>
			<g id="shape1008-40" v:mID="1008" v:groupContext="shape" v:layerMember="0" transform="translate(63,-33.2992)">
				<title>Dynamic connector.1008</title>
				<path d="M0 282.24 L49.5 282.24" class="st12"/>
			</g>
		</g>
		<g id="shape1011-43" v:mID="1011" v:groupContext="shape" v:layerMember="0" transform="translate(225,-217.211)">
			<title>Dynamic connector.1011</title>
			<path d="M0 282.24 L49.5 282.24" class="st12"/>
		</g>
		<g id="group1014-46" transform="translate(160.5,-109.492)" v:mID="1014" v:groupContext="group">
			<title>Sheet.1014</title>
			<g id="shape1016-47" v:mID="1016" v:groupContext="shape">
				<title>Rectangle.1001</title>
				<desc>xWDM or switch</desc>
				<v:userDefs>
					<v:ud v:nameU="visVersion" v:val="VT0(15):26"/>
				</v:userDefs>
				<v:textBlock v:margins="rect(4,4,4,4)"/>
				<v:textRect cx="31.5" cy="255.242" width="63" height="72"/>
				<g id="shadow1016-48" v:groupContext="shadow" v:shadowOffsetX="0.345598" v:shadowOffsetY="-1.97279"
						v:shadowType="1" transform="matrix(1,0,0,1,0.345598,1.97279)" class="st5">
					<rect x="0" y="219.242" width="63" height="72" class="st6"/>
				</g>
				<rect x="0" y="219.242" width="63" height="72" class="st7"/>
				<text x="12.03" y="252.24" class="st8" v:langID="1033"><v:paragraph v:horizAlign="1"/><v:tabList/>xWDM or <tspan
							x="18.41" dy="1.2em" class="st9">switch</tspan></text>			</g>
			<g id="shape1017-54" v:mID="1017" v:groupContext="shape" transform="translate(114,0)">
				<title>Rectangle.1003</title>
				<desc>xWDM or switch</desc>
				<v:userDefs>
					<v:ud v:nameU="visVersion" v:val="VT0(15):26"/>
				</v:userDefs>
				<v:textBlock v:margins="rect(4,4,4,4)"/>
				<v:textRect cx="31.5" cy="255.242" width="63" height="72"/>
				<g id="shadow1017-55" v:groupContext="shadow" v:shadowOffsetX="0.345598" v:shadowOffsetY="-1.97279"
						v:shadowType="1" transform="matrix(1,0,0,1,0.345598,1.97279)" class="st5">
					<rect x="0" y="219.242" width="63" height="72" class="st6"/>
				</g>
				<rect x="0" y="219.242" width="63" height="72" class="st7"/>
				<text x="12.03" y="252.24" class="st8" v:langID="1033"><v:paragraph v:horizAlign="1"/><v:tabList/>xWDM or <tspan
							x="18.41" dy="1.2em" class="st9">switch</tspan></text>			</g>
			<g id="shape1018-61" v:mID="1018" v:groupContext="shape" transform="translate(11,-37.754)">
				<title>Sheet.1018</title>
				<desc>Shared ISLs</desc>
				<v:textBlock v:margins="rect(4,4,4,4)"/>
				<v:textRect cx="76" cy="281.242" width="152" height="20"/>
				<rect x="0" y="271.242" width="152" height="20" class="st10"/>
				<text x="57.66" y="283.64" class="st11" v:langID="1033"><v:paragraph v:horizAlign="1"/><v:tabList/>Shared ISLs</text>			</g>
			<g id="shape1019-64" v:mID="1019" v:groupContext="shape" v:layerMember="0" transform="translate(63,-15.8617)">
				<title>Dynamic connector.1007</title>
				<path d="M0 282.24 L51 282.24" class="st12"/>
			</g>
			<g id="shape1020-67" v:mID="1020" v:groupContext="shape" v:layerMember="0" transform="translate(63,-33.2992)">
				<title>Dynamic connector.1008</title>
				<path d="M0 282.24 L51 282.24" class="st12"/>
			</g>
		</g>
		<g id="shape1021-70" v:mID="1021" v:groupContext="shape" v:layerMember="0" transform="translate(223.5,-134.073)">
			<title>Dynamic connector.1011</title>
			<path d="M0 282.24 L51 282.24" class="st12"/>
		</g>
		<g id="group1023-73" transform="translate(18.75,-104.992)" v:mID="1023" v:groupContext="group">
			<title>Sheet.1023</title>
			<g id="shape2-74" v:mID="2" v:groupContext="shape">
				<title>Rectangle.1011</title>
				<v:userDefs>
					<v:ud v:nameU="visVersion" v:val="VT0(15):26"/>
				</v:userDefs>
				<rect x="0" y="133.742" width="126" height="157.5" class="st13"/>
			</g>
			<g id="shape3-76" v:mID="3" v:groupContext="shape" transform="translate(11.4809,-156.754)">
				<title>Sheet.3</title>
				<desc>cluster_A</desc>
				<v:textBlock v:margins="rect(4,4,4,4)"/>
				<v:textRect cx="60.1441" cy="286.414" width="120.29" height="9.65649"/>
				<rect x="0" y="281.586" width="120.288" height="9.65649" class="st14"/>
				<text x="44.84" y="288.81" class="st15" v:langID="1033"><v:paragraph v:horizAlign="1"/><v:tabList/>cluster_A</text>			</g>
			<g id="shape6-79" v:mID="6" v:groupContext="shape" transform="translate(5.29421,-107.254)">
				<title>Rectangle.6</title>
				<desc>node_A_1</desc>
				<v:userDefs>
					<v:ud v:nameU="visVersion" v:val="VT0(15):26"/>
				</v:userDefs>
				<v:textBlock v:margins="rect(4,4,4,4)"/>
				<v:textRect cx="21.6131" cy="273.93" width="43.23" height="34.6243"/>
				<rect x="0" y="256.618" width="43.2262" height="34.6243" class="st16"/>
				<text x="4.98" y="276.33" class="st17" v:langID="1033"><v:paragraph v:horizAlign="1"/><v:tabList/>node_A_1</text>			</g>
			<g id="shape9-83" v:mID="9" v:groupContext="shape" transform="translate(5.47955,-24.004)">
				<title>Rectangle.9</title>
				<desc>node_A_2</desc>
				<v:userDefs>
					<v:ud v:nameU="visVersion" v:val="VT0(15):26"/>
				</v:userDefs>
				<v:textBlock v:margins="rect(4,4,4,4)"/>
				<v:textRect cx="21.6131" cy="273.994" width="43.23" height="34.496"/>
				<rect x="0" y="256.746" width="43.2262" height="34.496" class="st16"/>
				<text x="4.98" y="276.39" class="st17" v:langID="1033"><v:paragraph v:horizAlign="1"/><v:tabList/>node_A_2</text>			</g>
			<g id="shape20-87" v:mID="20" v:groupContext="shape" v:layerMember="0" transform="translate(48.7058,-41.252)">
				<title>Dynamic connector.1031</title>
				<path d="M0 291.24 L12.36 291.24 L12.36 208.93 L18.95 208.93" class="st18"/>
			</g>
			<g id="shape27-90" v:mID="27" v:groupContext="shape" v:layerMember="0" transform="translate(48.5205,-124.566)">
				<title>Dynamic connector.27</title>
				<path d="M0 291.24 L6.75 291.24 L6.75 368.65 L9.54 368.65 A3 3 0 0 1 15.54 368.65 L18.98 368.65" class="st18"/>
			</g>
			<g id="shape29-93" v:mID="29" v:groupContext="shape" v:layerMember="0" transform="translate(48.5205,-119.904)">
				<title>Dynamic connector.29</title>
				<path d="M0 282.52 L0 281.97 L19.13 281.97" class="st18"/>
			</g>
			<g id="shape72-96" v:mID="72" v:groupContext="shape" v:layerMember="0" transform="translate(100.809,-105.326)">
				<title>Dynamic connector.72</title>
				<path d="M-8.96 291.24 L-8.96 304.74 L-9.04 304.74 L-9.04 337.77" class="st19"/>
			</g>
			<g id="shape12-99" v:mID="12" v:groupContext="shape" transform="translate(67.6524,-105.326)">
				<title>Rectangle</title>
				<desc>switch_A_1</desc>
				<v:userDefs>
					<v:ud v:nameU="visVersion" v:val="VT0(15):26"/>
				</v:userDefs>
				<v:textBlock v:margins="rect(4,4,4,4)"/>
				<v:textRect cx="24.1952" cy="273.002" width="48.4" height="36.48"/>
				<rect x="0" y="254.762" width="48.3903" height="36.48" class="st20"/>
				<text x="5.39" y="275.4" class="st15" v:langID="1033"><v:paragraph v:horizAlign="1"/><v:tabList/>switch_A_1</text>			</g>
			<g id="shape13-103" v:mID="13" v:groupContext="shape" transform="translate(67.5,-22.3165)">
				<title>Rectangle.17</title>
				<desc>switch_A_2</desc>
				<v:userDefs>
					<v:ud v:nameU="visVersion" v:val="VT0(15):26"/>
				</v:userDefs>
				<v:textBlock v:margins="rect(4,4,4,4)"/>
				<v:textRect cx="24.2714" cy="273.002" width="48.55" height="36.48"/>
				<rect x="0" y="254.762" width="48.5427" height="36.48" class="st20"/>
				<text x="5.47" y="275.4" class="st15" v:langID="1033"><v:paragraph v:horizAlign="1"/><v:tabList/>switch_A_2</text>			</g>
		</g>
		<g id="shape1025-107" v:mID="1025" v:groupContext="shape" transform="translate(477,-109.492) scale(-1,1)">
			<title>Rectangle.1011</title>
			<v:userDefs>
				<v:ud v:nameU="visVersion" v:val="VT0(15):26"/>
			</v:userDefs>
			<rect x="0" y="139.389" width="121.125" height="151.853" class="st13"/>
		</g>
		<g id="shape1026-109" v:mID="1026" v:groupContext="shape" transform="translate(443.041,-261) scale(-1,1)">
			<title>Sheet.1026</title>
			<desc>cluster_B</desc>
			<v:textBlock v:margins="rect(4,4,4,4)"/>
			<v:textRect cx="24.5408" cy="286.414" width="49.09" height="9.65649"/>
			<rect x="0" y="281.586" width="49.0816" height="9.65649" class="st14"/>
			<text x="-39.71" y="288.81" transform="scale(-1,1)" class="st15" v:langID="1033"><v:paragraph v:horizAlign="1"/><v:tabList/>cluster_B</text>		</g>
		<g id="shape1028-112" v:mID="1028" v:groupContext="shape" transform="translate(470.351,-128.996) scale(-1,1)">
			<title>Rectangle.9</title>
			<desc>node_B_2</desc>
			<v:userDefs>
				<v:ud v:nameU="visVersion" v:val="VT0(15):26"/>
			</v:userDefs>
			<v:textBlock v:margins="rect(4,4,4,4)"/>
			<v:textRect cx="21.6131" cy="274.984" width="43.23" height="32.5157"/>
			<rect x="0" y="258.726" width="43.2262" height="32.5157" class="st16"/>
			<text x="-38.1" y="277.38" transform="scale(-1,1)" class="st17" v:langID="1033"><v:paragraph v:horizAlign="1"/><v:tabList/>node_B_2</text>		</g>
		<g id="shape1029-116" v:mID="1029" v:groupContext="shape" v:layerMember="0" transform="translate(409.934,-145.254)">
			<title>Dynamic connector.1029</title>
			<path d="M0.81 291.24 L12.81 291.24 L12.81 207.94 L17.19 207.94" class="st18"/>
		</g>
		<g id="shape1030-119" v:mID="1030" v:groupContext="shape" v:layerMember="0" transform="translate(410.103,-229.121)">
			<title>Dynamic connector.27</title>
			<path d="M0.79 291.24 L5.1 291.24 L5.1 368.22 L9.98 368.22 A3 3 0 1 1 15.98 368.22 L17.21 368.22" class="st18"/>
		</g>
		<g id="shape1033-122" v:mID="1033" v:groupContext="shape" v:layerMember="0" transform="translate(377.587,-210.319)">
			<title>Dynamic connector.72</title>
			<path d="M8.96 291.24 L8.96 304.74 L9.04 304.74 L9.04 337.77" class="st19"/>
		</g>
		<g id="shape1034-125" v:mID="1034" v:groupContext="shape" transform="translate(410.744,-210.319) scale(-1,1)">
			<title>Rectangle</title>
			<desc>switch_B_1</desc>
			<v:userDefs>
				<v:ud v:nameU="visVersion" v:val="VT0(15):26"/>
			</v:userDefs>
			<v:textBlock v:margins="rect(4,4,4,4)"/>
			<v:textRect cx="24.1952" cy="273.002" width="48.4" height="36.48"/>
			<rect x="0" y="254.762" width="48.3903" height="36.48" class="st20"/>
			<text x="-42.86" y="275.4" transform="scale(-1,1)" class="st15" v:langID="1033"><v:paragraph v:horizAlign="1"/><v:tabList/>switch_B_1</text>		</g>
		<g id="shape1035-129" v:mID="1035" v:groupContext="shape" transform="translate(410.896,-127.309) scale(-1,1)">
			<title>Rectangle.17</title>
			<desc>switch_B_2</desc>
			<v:userDefs>
				<v:ud v:nameU="visVersion" v:val="VT0(15):26"/>
			</v:userDefs>
			<v:textBlock v:margins="rect(4,4,4,4)"/>
			<v:textRect cx="24.2714" cy="273.002" width="48.55" height="36.48"/>
			<rect x="0" y="254.762" width="48.5427" height="36.48" class="st20"/>
			<text x="-42.93" y="275.4" transform="scale(-1,1)" class="st15" v:langID="1033"><v:paragraph v:horizAlign="1"/><v:tabList/>switch_B_2</text>		</g>
		<g id="shape1027-133" v:mID="1027" v:groupContext="shape" transform="translate(470.537,-212.246) scale(-1,1)">
			<title>Rectangle.6</title>
			<desc>node_B_1</desc>
			<v:userDefs>
				<v:ud v:nameU="visVersion" v:val="VT0(15):26"/>
			</v:userDefs>
			<v:textBlock v:margins="rect(4,4,4,4)"/>
			<v:textRect cx="21.6131" cy="274.367" width="43.23" height="33.75"/>
			<rect x="0" y="257.492" width="43.2262" height="33.75" class="st16"/>
			<text x="-38.1" y="276.77" transform="scale(-1,1)" class="st17" v:langID="1033"><v:paragraph v:horizAlign="1"/><v:tabList/>node_B_1</text>		</g>
		<g id="shape1036-137" v:mID="1036" v:groupContext="shape" transform="translate(360,-18.746)">
			<title>Cloud.1036</title>
			<desc>Host network</desc>
			<v:userDefs>
				<v:ud v:nameU="visVersion" v:prompt="" v:val="VT0(15):26"/>
			</v:userDefs>
			<v:textBlock v:margins="rect(4,4,4,4)"/>
			<v:textRect cx="54" cy="255.242" width="108" height="72"/>
			<path d="M5.31 261.77 A8.52891 9.56618 0 0 1 9.41 243.4 A17.2957 19.3991 0 0 1 34.51 227.89 A19.8602 22.2756 0 0 1 56.01
						 224.44 A12.4541 13.9688 0 0 1 74.44 223.29 A14.1793 15.9037 0 0 1 96.98 229.03 A10.1386 11.3712 0 0 1 105.17
						 245.12 A12.5579 14.0847 0 0 1 94.93 268.09 A15.8428 17.769 0 0 1 72.4 279.58 A18.6801 20.9512 0 0 1 41.68
						 284.18 A23.6794 26.5583 0 0 1 15.04 279.58 A9.342 10.4782 0 0 1 5.31 261.77 Z" class="st2"/>
			<path d="M5.31 261.77 A8.52891 9.56618 0 0 1 9.41 243.4 A17.2957 19.3991 0 0 1 34.51 227.89 A19.8602 22.2756 0 0 1 56.01
						 224.44 A12.4541 13.9688 0 0 1 74.44 223.29 A14.1793 15.9037 0 0 1 96.98 229.03 A10.1386 11.3712 0 0 1 105.17
						 245.12 A12.5579 14.0847 0 0 1 94.93 268.09 A15.8428 17.769 0 0 1 72.4 279.58 A18.6801 20.9512 0 0 1 41.68
						 284.18 A23.6794 26.5583 0 0 1 15.04 279.58 A9.342 10.4782 0 0 1 5.31 261.77" class="st3"/>
			<path d="M10.94 262.35 A8.50534 9.53974 0 0 1 5.31 261.77" class="st3"/>
			<path d="M40.13 281.31 A8.54237 9.58127 -180 0 0 41.68 284.18" class="st3"/>
			<path d="M73.17 276.14 A6.89577 7.73442 0 0 1 72.4 279.58" class="st3"/>
			<path d="M88.79 258.9 A7.2359 8.11591 0 0 1 94.93 268.09" class="st3"/>
			<path d="M102.1 248.57 A6.60605 7.40946 -180 0 0 105.17 245.12" class="st3"/>
			<path d="M37.57 230.19 A10.1871 11.4257 -180 0 0 34.51 227.89" class="st3"/>
			<text x="26.47" y="258.24" class="st4" v:langID="1033"><v:paragraph v:horizAlign="1"/><v:tabList/>Host network</text>		</g>
		<g id="shape1037-148" v:mID="1037" v:groupContext="shape" v:layerMember="0" transform="translate(138.243,-54.3243)">
			<title>Dynamic connector.1037</title>
			<path d="M0 291.24 L53.76 291.24 L53.76 236.07" class="st1"/>
		</g>
		<g id="shape1038-151" v:mID="1038" v:groupContext="shape" v:layerMember="0" transform="translate(360,-56.9937)">
			<title>Dynamic connector.1038</title>
			<path d="M0 291.24 L-54 291.24 L-54 238.74" class="st1"/>
		</g>
		<g id="shape1039-154" v:mID="1039" v:groupContext="shape" v:layerMember="0" transform="translate(337.5,-237.594)">
			<title>Dynamic connector.1039</title>
			<path d="M0 300.21 L13.5 300.21 L13.5 300.28 L24.85 300.28" class="st19"/>
		</g>
		<g id="shape1040-157" v:mID="1040" v:groupContext="shape" v:layerMember="0" transform="translate(337.5,-136.52)">
			<title>Dynamic connector.1040</title>
			<path d="M0 282.27 L6 282.27 A3 3 0 1 1 12 282.27 L13.5 282.27 L13.5 282.21 L24.85 282.21" class="st19"/>
		</g>
		<g id="shape55-160" v:mID="55" v:groupContext="shape" v:layerMember="0" transform="translate(134.793,-219.594)">
			<title>Dynamic connector</title>
			<path d="M0 282.28 L13.5 282.28 L13.5 282.21 L27.21 282.21" class="st19"/>
		</g>
		<g id="shape1022-163" v:mID="1022" v:groupContext="shape" v:layerMember="0" transform="translate(134.793,-154.52)">
			<title>Dynamic connector.1022</title>
			<path d="M0 300.21 L13.5 300.21 L13.5 300.27 L15.87 300.27 A3 3 0 1 1 21.87 300.27 L25.71 300.27" class="st19"/>
		</g>
		<g id="shape1043-166" v:mID="1043" v:groupContext="shape" v:layerMember="0" transform="translate(410.027,-225.746)">
			<title>Dynamic connector.1043</title>
			<path d="M0.72 282.24 L17.28 282.24" class="st18"/>
		</g>
		<g id="shape1044-169" v:mID="1044" v:groupContext="shape" v:layerMember="0" transform="translate(410.011,-148.965)">
			<title>Dynamic connector.1044</title>
			<path d="M0.89 299.96 L17.11 300.52" class="st18"/>
		</g>
		<g id="shape1046-172" v:mID="1046" v:groupContext="shape" v:layerMember="0" transform="translate(86.25,-128.996)">
			<title>Dynamic connector.1046</title>
			<path d="M0 282.24 L-18.79 282.24" class="st18"/>
		</g>
	</g>
</svg>
