<?xml version="1.0" encoding="utf-8"?>
<!-- Generator: Adobe Illustrator 19.1.0, SVG Export Plug-In . SVG Version: 6.00 Build 0)  -->
<svg version="1.1" xmlns="http://www.w3.org/2000/svg" xmlns:xlink="http://www.w3.org/1999/xlink" x="0px" y="0px" width="384.9px"
	 height="237.4px" viewBox="0 0 384.9 237.4" style="enable-background:new 0 0 384.9 237.4;" xml:space="preserve">
<style type="text/css">
	.st0{fill:none;stroke:#000000;stroke-width:0.5;stroke-linecap:round;stroke-linejoin:round;}
	.st1{fill:none;}
	.st2{fill:#231F20;}
	.st3{font-family:'Helvetica';}
	.st4{font-size:4.16px;}
	.st5{fill:#FFFFFF;stroke:#000000;stroke-width:0.5;stroke-linecap:round;stroke-linejoin:round;}
	.st6{font-size:7.5px;}
	.st7{font-size:8px;}
	.st8{font-size:8.3146px;}
	.st9{fill:none;stroke:#000000;stroke-width:2;stroke-linecap:round;stroke-linejoin:round;}
	.st10{fill:none;stroke:#FFFFFF;stroke-width:3;stroke-linecap:round;stroke-linejoin:round;}
</style>
<g id="lines">
</g>
<g id="stack_1">
	<rect x="0.5" y="113.9" class="st0" width="87.5" height="33"/>
	<g>
		<rect x="14.8" y="123.9" class="st0" width="27.1" height="15"/>
		<rect x="20.1" y="128" class="st0" width="5.6" height="5.6"/>
		<circle class="st0" cx="33.9" cy="130.9" r="2.8"/>
	</g>
	<g>
		<rect x="46.6" y="123.9" class="st0" width="27.1" height="15"/>
		<rect x="51.8" y="128" class="st0" width="5.6" height="5.6"/>
		<circle class="st0" cx="65.7" cy="130.9" r="2.8"/>
	</g>
	<rect x="0.2" y="72.4" class="st0" width="87.5" height="33"/>
	<g>
		<rect x="14.6" y="82.3" class="st0" width="27.1" height="15"/>
		<rect x="19.9" y="86.4" class="st0" width="5.6" height="5.6"/>
		<circle class="st0" cx="33.7" cy="89.4" r="2.8"/>
	</g>
	<g>
		<rect x="46.4" y="82.3" class="st0" width="27.1" height="15"/>
		<rect x="51.6" y="86.4" class="st0" width="5.6" height="5.6"/>
		<circle class="st0" cx="65.4" cy="89.4" r="2.8"/>
	</g>
	<rect x="23.3" y="76.9" class="st1" width="13.6" height="4.5"/>
	<text transform="matrix(1.0101 0 0 1 23.2988 79.8818)" class="st2 st3 st4">IOM A</text>
	<rect x="52.8" y="76.9" class="st1" width="13.6" height="4.5"/>
	<text transform="matrix(1.0101 0 0 1 52.7988 79.8818)" class="st2 st3 st4">IOM B</text>
</g>
<g id="stack_2">
	<g>
		<rect x="105.2" y="113.9" class="st0" width="87.5" height="33"/>
		<g>
			<rect x="119.6" y="123.9" class="st0" width="27.1" height="15"/>
			<rect x="124.8" y="128" class="st0" width="5.6" height="5.6"/>
			<circle class="st0" cx="138.6" cy="130.9" r="2.8"/>
		</g>
		<g>
			<rect x="151.3" y="123.9" class="st0" width="27.1" height="15"/>
			<rect x="156.6" y="128" class="st0" width="5.6" height="5.6"/>
			<circle class="st0" cx="170.4" cy="130.9" r="2.8"/>
		</g>
		<rect x="105" y="72.4" class="st0" width="87.5" height="33"/>
		<g>
			<rect x="119.3" y="82.3" class="st0" width="27.1" height="15"/>
			<rect x="124.6" y="86.4" class="st0" width="5.6" height="5.6"/>
			<circle class="st0" cx="138.4" cy="89.4" r="2.8"/>
		</g>
		<g>
			<rect x="151.1" y="82.3" class="st0" width="27.1" height="15"/>
			<rect x="156.3" y="86.4" class="st0" width="5.6" height="5.6"/>
			<circle class="st0" cx="170.2" cy="89.4" r="2.8"/>
		</g>
		<rect x="128" y="76.9" class="st1" width="13.6" height="4.5"/>
		<text transform="matrix(1.0101 0 0 1 128.019 79.8818)" class="st2 st3 st4">IOM A</text>
		<rect x="157.5" y="76.9" class="st1" width="13.6" height="4.5"/>
		<text transform="matrix(1.0101 0 0 1 157.519 79.8818)" class="st2 st3 st4">IOM B</text>
	</g>
</g>
<g id="stack_3">
	<rect x="201.2" y="113.9" class="st0" width="87.5" height="33"/>
	<g>
		<rect x="215.6" y="123.9" class="st0" width="27.1" height="15"/>
		<rect x="220.8" y="128" class="st0" width="5.6" height="5.6"/>
		<circle class="st0" cx="234.6" cy="130.9" r="2.8"/>
	</g>
	<g>
		<rect x="247.3" y="123.9" class="st0" width="27.1" height="15"/>
		<rect x="252.6" y="128" class="st0" width="5.6" height="5.6"/>
		<circle class="st0" cx="266.4" cy="130.9" r="2.8"/>
	</g>
	<rect x="201" y="72.4" class="st0" width="87.5" height="33"/>
	<g>
		<rect x="215.3" y="82.3" class="st0" width="27.1" height="15"/>
		<rect x="220.6" y="86.4" class="st0" width="5.6" height="5.6"/>
		<circle class="st0" cx="234.4" cy="89.4" r="2.8"/>
	</g>
	<g>
		<rect x="247.1" y="82.3" class="st0" width="27.1" height="15"/>
		<rect x="252.3" y="86.4" class="st0" width="5.6" height="5.6"/>
		<circle class="st0" cx="266.2" cy="89.4" r="2.8"/>
	</g>
	<rect x="224" y="76.9" class="st1" width="13.6" height="4.5"/>
	<text transform="matrix(1.0101 0 0 1 224.0195 79.8818)" class="st2 st3 st4">IOM A</text>
	<rect x="253.5" y="76.9" class="st1" width="13.6" height="4.5"/>
	<text transform="matrix(1.0101 0 0 1 253.5195 79.8818)" class="st2 st3 st4">IOM B</text>
</g>
<g id="stack_4">
	<rect x="297.2" y="113.9" class="st0" width="87.5" height="33"/>
	<g>
		<rect x="311.6" y="123.9" class="st0" width="27.1" height="15"/>
		<rect x="316.8" y="128" class="st0" width="5.6" height="5.6"/>
		<circle class="st0" cx="330.6" cy="130.9" r="2.8"/>
	</g>
	<g>
		<rect x="343.3" y="123.9" class="st0" width="27.1" height="15"/>
		<rect x="348.6" y="128" class="st0" width="5.6" height="5.6"/>
		<circle class="st0" cx="362.4" cy="130.9" r="2.8"/>
	</g>
	<rect x="297" y="72.4" class="st0" width="87.5" height="33"/>
	<g>
		<rect x="311.3" y="82.3" class="st0" width="27.1" height="15"/>
		<rect x="316.6" y="86.4" class="st0" width="5.6" height="5.6"/>
		<circle class="st0" cx="330.4" cy="89.4" r="2.8"/>
	</g>
	<g>
		<rect x="343.1" y="82.3" class="st0" width="27.1" height="15"/>
		<rect x="348.3" y="86.4" class="st0" width="5.6" height="5.6"/>
		<circle class="st0" cx="362.2" cy="89.4" r="2.8"/>
	</g>
	<rect x="320" y="76.9" class="st1" width="13.6" height="4.5"/>
	<text transform="matrix(1.0101 0 0 1 320.0195 79.8818)" class="st2 st3 st4">IOM A</text>
	<rect x="349.5" y="76.9" class="st1" width="13.6" height="4.5"/>
	<text transform="matrix(1.0101 0 0 1 349.5195 79.8818)" class="st2 st3 st4">IOM B</text>
</g>
<g id="_x37_500N_A_x5F_1b">
	<g>
		<rect x="138.5" y="182.5" class="st5" width="116.3" height="42"/>
		<rect x="182.7" y="211.6" class="st5" width="27.9" height="12.7"/>
		<rect x="141" y="182.7" class="st5" width="25.5" height="12.9"/>
		<rect x="143.1" y="185.6" class="st1" width="23.3" height="8.5"/>
		<text transform="matrix(1 0 0 1 143.0633 191.0205)" class="st3 st6">SAS A</text>
		<rect x="169.5" y="182.5" class="st5" width="25.5" height="12.7"/>
		<rect x="171.3" y="185.6" class="st1" width="24.3" height="8.5"/>
		<text transform="matrix(1 0 0 1 171.3135 191.0205)" class="st3 st6">SAS B</text>
		<rect x="198.1" y="182.5" class="st5" width="25.5" height="12.7"/>
		<rect x="199.6" y="185.6" class="st1" width="24.3" height="8.5"/>
		<text transform="matrix(1 0 0 1 199.5627 191.0205)" class="st3 st6">SAS C</text>
		<rect x="226.7" y="182.5" class="st5" width="25.5" height="12.7"/>
		<rect x="227.8" y="185.6" class="st1" width="24.3" height="8.5"/>
		<text transform="matrix(1 0 0 1 227.8133 191.0205)" class="st3 st6">SAS D</text>
		<rect x="218.4" y="211.8" class="st5" width="27.9" height="12.7"/>
		<rect x="182.7" y="211.6" class="st5" width="27.9" height="12.7"/>
		<rect x="224.4" y="213.6" class="st1" width="17.5" height="8.5"/>
		<text transform="matrix(1 0 0 1 224.3866 219.374)" class="st3 st7">FC2</text>
		<rect x="151.3" y="211.1" class="st5" width="15.1" height="13.2"/>
		<rect x="154.1" y="214.1" class="st1" width="17.5" height="8.8"/>
		<text transform="matrix(0.9622 0 0 1 154.1366 220.1001)" class="st3 st8">M1</text>
		<rect x="189.4" y="214.1" class="st1" width="17.5" height="8.5"/>
		<text transform="matrix(1 0 0 1 189.3866 219.874)" class="st3 st7">FC1</text>
	</g>
	<rect x="115.2" y="227.8" class="st1" width="162.1" height="7.8"/>
	<text transform="matrix(1 0 0 1 137.7732 233.5361)" class="st3 st7">ATTO 7500N bridge  bridge_A_2</text>
</g>
<g id="_x37_500N_A_x5F_1a">
	<rect x="138.5" y="11.6" class="st5" width="116.2" height="41.3"/>
	<rect x="182.7" y="11.6" class="st5" width="27.9" height="12.7"/>
	<rect x="182.7" y="11.6" class="st5" width="27.9" height="12.7"/>
	<rect x="217.7" y="11.5" class="st5" width="27.9" height="12.7"/>
	<g>
		<rect x="189.4" y="15.8" class="st1" width="17.5" height="8.5"/>
		<text transform="matrix(1 0 0 1 189.3882 21.5488)" class="st3 st7">FC1</text>
		<rect x="224.4" y="15.3" class="st1" width="17.5" height="8.5"/>
		<text transform="matrix(1 0 0 1 224.3882 21.0488)" class="st3 st7">FC2</text>
		<g>
			<rect x="151.3" y="12.1" class="st5" width="15.1" height="12.7"/>
			<rect x="154.1" y="16.3" class="st1" width="17.5" height="8.5"/>
			<text transform="matrix(1 0 0 1 154.1382 22.0488)" class="st3 st7">M1</text>
		</g>
	</g>
	<rect x="151.9" y="30.5" class="st1" width="70.1" height="7.8"/>
	<g>
		<g>
			<rect x="141" y="40.3" class="st5" width="25.5" height="12.7"/>
			<rect x="143.1" y="43.9" class="st1" width="23.3" height="8.5"/>
			<text transform="matrix(1 0 0 1 143.0649 49.2725)" class="st3 st6">SAS A</text>
		</g>
		<g>
			<rect x="169.5" y="40.3" class="st5" width="25.5" height="12.7"/>
			<rect x="171.6" y="43.9" class="st1" width="24.3" height="8.5"/>
			<text transform="matrix(1 0 0 1 171.6479 49.2725)" class="st3 st6">SAS B</text>
		</g>
		<g>
			<rect x="198.1" y="40.3" class="st5" width="25.5" height="12.7"/>
			<rect x="200.2" y="43.9" class="st1" width="24.3" height="8.5"/>
			<text transform="matrix(1 0 0 1 200.2309 49.2725)" class="st3 st6">SAS C</text>
		</g>
		<g>
			<rect x="226.7" y="40.3" class="st5" width="25.5" height="12.7"/>
			<rect x="228.8" y="43.9" class="st1" width="24.3" height="8.5"/>
			<text transform="matrix(1 0 0 1 228.8149 49.2725)" class="st3 st6">SAS D</text>
		</g>
	</g>
	<rect x="126.2" y="1.1" class="st1" width="139.7" height="7.8"/>
	<text transform="matrix(1 0 0 1 126.2309 6.8691)" class="st3 st7">ATTO 7500N bridge  bridge_A_1</text>
</g>
<g id="cables">
	<line class="st9" x1="34.3" y1="87.2" x2="21.6" y2="131.9"/>
	<path class="st9" d="M222.3,88.9"/>
	<path class="st9" d="M207.6,49.5"/>
	<g>
		<g>
			<polyline class="st10" points="22.6,89.5 23,62 157,62 157.3,53.5 157.3,51.9 			"/>
		</g>
		<g>
			<polyline class="st9" points="22.6,89.5 23,62 157,62 157,52.2 			"/>
		</g>
	</g>
	<path class="st9" d="M138,55.9"/>
	<line class="st9" x1="66" y1="87.2" x2="53.3" y2="131.9"/>
	<g>
		<g>
			<polyline class="st10" points="66.3,131.9 66.5,169.4 155.4,169.4 155.6,183 			"/>
		</g>
		<g>
			<polyline class="st9" points="66.3,131.9 66.5,169.4 155.4,169.4 155.4,182.7 			"/>
		</g>
	</g>
	<line class="st9" x1="139" y1="87.2" x2="126.3" y2="131.9"/>
	<line class="st9" x1="170.6" y1="87.2" x2="158" y2="131.9"/>
	<g>
		<g>
			<polyline class="st10" points="127,89.2 127.1,66.4 183.2,66.4 183.3,54.1 183.3,52.5 			"/>
		</g>
		<g>
			<polyline class="st9" points="127,89.2 127.1,66.4 183.2,66.4 183.2,52.9 			"/>
		</g>
	</g>
	<g>
		<g>
			<polyline class="st10" points="223.3,90.2 223.3,67.2 210.3,67.2 210.3,54.8 210.3,53.2 			"/>
		</g>
		<g>
			<polyline class="st9" points="223.3,90.2 223.3,67.2 210.3,67.2 210.3,53.6 			"/>
		</g>
	</g>
	<g>
		<g>
			<polyline class="st10" points="320.3,89.5 320.1,67.2 239.8,67.2 239.6,55.1 239.6,53.5 			"/>
		</g>
		<g>
			<polyline class="st9" points="320.3,89.5 320.1,67.2 239.8,67.2 239.8,53.9 			"/>
		</g>
	</g>
	<g>
		<g>
			<polyline class="st10" points="171,132.5 171,170.1 182.6,170.1 182.6,181.7 182.6,183.9 			"/>
		</g>
		<g>
			<polyline class="st9" points="171,132.5 171,170.1 182.6,170.1 182.6,183.4 			"/>
		</g>
	</g>
	<line class="st9" x1="235" y1="87.2" x2="222.3" y2="131.9"/>
	<line class="st9" x1="266.3" y1="87.2" x2="253.6" y2="131.9"/>
	<line class="st9" x1="330.6" y1="87.2" x2="318" y2="131.9"/>
	<line class="st9" x1="362" y1="87.2" x2="349.3" y2="131.9"/>
	<g>
		<g>
			<polyline class="st10" points="362.3,131.2 362.1,168.7 240.5,168.7 240.3,180.3 240.3,182.5 			"/>
		</g>
		<g>
			<polyline class="st9" points="362.3,131.2 362.1,168.7 240.5,168.7 240.5,182 			"/>
		</g>
	</g>
	<g>
		<g>
			<polyline class="st10" points="266.3,131.9 266.3,161.4 212,161.4 212,181 212,183.2 			"/>
		</g>
		<g>
			<polyline class="st9" points="266.3,131.9 266.3,161.1 212,161.1 212,182.7 			"/>
		</g>
	</g>
</g>
</svg>
