<?xml version="1.0" encoding="UTF-8"?><!-- Generator: Adobe Illustrator 16.0.3, SVG Export Plug-In . SVG Version: 6.00 Build 0)  --><!DOCTYPE svg PUBLIC "-//W3C//DTD SVG 1.1//EN" "http://www.w3.org/Graphics/SVG/1.1/DTD/svg11.dtd">
<svg xmlns="http://www.w3.org/2000/svg" xmlns:xlink="http://www.w3.org/1999/xlink" version="1.1" x="0px" y="0px" width="168px" height="214px" viewBox="0 0 168 214" enable-background="new 0 0 168 214" xml:space="preserve" preserveAspectRatio="xMidYMid meet" zoomAndPan="magnify" contentScriptType="application/ecmascript" contentStyleType="text/css">
<g id="lines">
</g>
<g id="boxes">
	
		<rect x="39.625" y="62.504" fill="none" stroke="#000000" stroke-width="0.5" stroke-linecap="round" stroke-linejoin="round" width="87.5" height="33"/>
	<g>
		
			<rect x="54" y="72.421" fill="none" stroke="#000000" stroke-width="0.5" stroke-linecap="round" stroke-linejoin="round" width="27.125" height="15"/>
		
			<rect x="59.25" y="76.546" fill="none" stroke="#000000" stroke-width="0.5" stroke-linecap="round" stroke-linejoin="round" width="5.625" height="5.625"/>
		
			<circle fill="none" stroke="#000000" stroke-width="0.5" stroke-linecap="round" stroke-linejoin="round" cx="73.063" cy="79.483" r="2.813"/>
	</g>
	<g>
		
			<rect x="85.75" y="72.421" fill="none" stroke="#000000" stroke-width="0.5" stroke-linecap="round" stroke-linejoin="round" width="27.125" height="15"/>
		
			<rect x="91" y="76.546" fill="none" stroke="#000000" stroke-width="0.5" stroke-linecap="round" stroke-linejoin="round" width="5.625" height="5.625"/>
		
			<circle fill="none" stroke="#000000" stroke-width="0.5" stroke-linecap="round" stroke-linejoin="round" cx="104.813" cy="79.483" r="2.813"/>
	</g>
	
		<rect x="39.625" y="98.129" fill="none" stroke="#000000" stroke-width="0.5" stroke-linecap="round" stroke-linejoin="round" width="87.5" height="33"/>
	<g>
		
			<rect x="54" y="108.046" fill="none" stroke="#000000" stroke-width="0.5" stroke-linecap="round" stroke-linejoin="round" width="27.125" height="15"/>
		
			<rect x="59.25" y="112.171" fill="none" stroke="#000000" stroke-width="0.5" stroke-linecap="round" stroke-linejoin="round" width="5.625" height="5.625"/>
		
			<circle fill="none" stroke="#000000" stroke-width="0.5" stroke-linecap="round" stroke-linejoin="round" cx="73.063" cy="115.108" r="2.813"/>
	</g>
	<g>
		
			<rect x="85.75" y="108.046" fill="none" stroke="#000000" stroke-width="0.5" stroke-linecap="round" stroke-linejoin="round" width="27.125" height="15"/>
		
			<rect x="91" y="112.171" fill="none" stroke="#000000" stroke-width="0.5" stroke-linecap="round" stroke-linejoin="round" width="5.625" height="5.625"/>
		
			<circle fill="none" stroke="#000000" stroke-width="0.5" stroke-linecap="round" stroke-linejoin="round" cx="104.813" cy="115.108" r="2.813"/>
	</g>
	
		<rect x="39.625" y="133.754" fill="none" stroke="#000000" stroke-width="0.5" stroke-linecap="round" stroke-linejoin="round" width="87.5" height="33"/>
	<g>
		
			<rect x="54" y="143.671" fill="none" stroke="#000000" stroke-width="0.5" stroke-linecap="round" stroke-linejoin="round" width="27.125" height="15"/>
		
			<rect x="59.25" y="147.796" fill="none" stroke="#000000" stroke-width="0.5" stroke-linecap="round" stroke-linejoin="round" width="5.625" height="5.625"/>
		
			<circle fill="none" stroke="#000000" stroke-width="0.5" stroke-linecap="round" stroke-linejoin="round" cx="73.063" cy="150.733" r="2.813"/>
	</g>
	<g>
		
			<rect x="85.75" y="143.671" fill="none" stroke="#000000" stroke-width="0.5" stroke-linecap="round" stroke-linejoin="round" width="27.125" height="15"/>
		
			<rect x="91" y="147.796" fill="none" stroke="#000000" stroke-width="0.5" stroke-linecap="round" stroke-linejoin="round" width="5.625" height="5.625"/>
		
			<circle fill="none" stroke="#000000" stroke-width="0.5" stroke-linecap="round" stroke-linejoin="round" cx="104.813" cy="150.733" r="2.813"/>
	</g>
	
		<rect x="39.625" y="133.774" fill="none" stroke="#000000" stroke-width="0.5" stroke-linecap="round" stroke-linejoin="round" width="87.5" height="33"/>
	<g>
		
			<rect x="54" y="143.691" fill="none" stroke="#000000" stroke-width="0.5" stroke-linecap="round" stroke-linejoin="round" width="27.125" height="15"/>
		
			<rect x="59.25" y="147.816" fill="none" stroke="#000000" stroke-width="0.5" stroke-linecap="round" stroke-linejoin="round" width="5.625" height="5.625"/>
		
			<circle fill="none" stroke="#000000" stroke-width="0.5" stroke-linecap="round" stroke-linejoin="round" cx="73.063" cy="150.754" r="2.813"/>
	</g>
	<g>
		
			<rect x="85.75" y="143.691" fill="none" stroke="#000000" stroke-width="0.5" stroke-linecap="round" stroke-linejoin="round" width="27.125" height="15"/>
		
			<rect x="91" y="147.816" fill="none" stroke="#000000" stroke-width="0.5" stroke-linecap="round" stroke-linejoin="round" width="5.625" height="5.625"/>
		
			<circle fill="none" stroke="#000000" stroke-width="0.5" stroke-linecap="round" stroke-linejoin="round" cx="104.813" cy="150.754" r="2.813"/>
	</g>
	
		<rect x="39.625" y="169.399" fill="none" stroke="#000000" stroke-width="0.5" stroke-linecap="round" stroke-linejoin="round" width="87.5" height="33"/>
	<g>
		
			<rect x="54" y="179.316" fill="none" stroke="#000000" stroke-width="0.5" stroke-linecap="round" stroke-linejoin="round" width="27.125" height="15"/>
		
			<rect x="59.25" y="183.441" fill="none" stroke="#000000" stroke-width="0.5" stroke-linecap="round" stroke-linejoin="round" width="5.625" height="5.625"/>
		
			<circle fill="none" stroke="#000000" stroke-width="0.5" stroke-linecap="round" stroke-linejoin="round" cx="73.063" cy="186.379" r="2.813"/>
	</g>
	<g>
		
			<rect x="85.75" y="179.316" fill="none" stroke="#000000" stroke-width="0.5" stroke-linecap="round" stroke-linejoin="round" width="27.125" height="15"/>
		
			<rect x="91" y="183.441" fill="none" stroke="#000000" stroke-width="0.5" stroke-linecap="round" stroke-linejoin="round" width="5.625" height="5.625"/>
		
			<circle fill="none" stroke="#000000" stroke-width="0.5" stroke-linecap="round" stroke-linejoin="round" cx="104.813" cy="186.379" r="2.813"/>
	</g>
	
		<rect x="3.5" y="3.5" fill="#FFFFFF" stroke="#000000" stroke-width="0.5" stroke-linecap="round" stroke-linejoin="round" width="76.75" height="41.296"/>
	
		<rect x="10.506" y="3.5" fill="#FFFFFF" stroke="#000000" stroke-width="0.5" stroke-linecap="round" stroke-linejoin="round" width="27.866" height="12.695"/>
	
		<rect x="45.219" y="3.5" fill="#FFFFFF" stroke="#000000" stroke-width="0.5" stroke-linecap="round" stroke-linejoin="round" width="27.866" height="12.695"/>
	
		<rect x="39.703" y="31.955" fill="#FFFFFF" stroke="#000000" stroke-width="0.5" stroke-linecap="round" stroke-linejoin="round" width="35.031" height="12.694"/>
	
		<rect x="8.061" y="31.955" fill="#FFFFFF" stroke="#000000" stroke-width="0.5" stroke-linecap="round" stroke-linejoin="round" width="15.074" height="12.694"/>
	
		<rect x="88" y="3.5" fill="#FFFFFF" stroke="#000000" stroke-width="0.5" stroke-linecap="round" stroke-linejoin="round" width="76.75" height="41.296"/>
	
		<rect x="95.006" y="3.5" fill="#FFFFFF" stroke="#000000" stroke-width="0.5" stroke-linecap="round" stroke-linejoin="round" width="27.865" height="12.695"/>
	
		<rect x="129.719" y="3.5" fill="#FFFFFF" stroke="#000000" stroke-width="0.5" stroke-linecap="round" stroke-linejoin="round" width="27.866" height="12.695"/>
	
		<rect x="124.203" y="31.955" fill="#FFFFFF" stroke="#000000" stroke-width="0.5" stroke-linecap="round" stroke-linejoin="round" width="35.031" height="12.694"/>
	
		<rect x="92.561" y="31.955" fill="#FFFFFF" stroke="#000000" stroke-width="0.5" stroke-linecap="round" stroke-linejoin="round" width="15.074" height="12.694"/>
</g>
<g id="text">
	<rect x="62.674" y="67.015" fill="none" width="13.59" height="4.549"/>
	<text transform="matrix(1.0101 0 0 1 62.6743 70)" fill="#231F20" font-family="'Helvetica'" font-size="4.16">IOM A</text>
	<rect x="92.174" y="67.015" fill="none" width="13.591" height="4.549"/>
	<text transform="matrix(1.0101 0 0 1 92.1738 70)" fill="#231F20" font-family="'Helvetica'" font-size="4.16">IOM B</text>
	<rect x="19.227" y="71.833" fill="none" width="15.728" height="13.924"/>
	<text transform="matrix(1.0101 0 0 1 19.2271 76.1406)"><tspan x="0" y="0" fill="#231F20" font-family="'Helvetica'" font-size="6">First </tspan><tspan x="0" y="7.2" fill="#231F20" font-family="'Helvetica'" font-size="6">shelf</tspan></text>
	<rect x="18.787" y="177.023" fill="none" width="20.501" height="13.987"/>
	<text transform="matrix(1 0 0 1 18.7871 181.3311)"><tspan x="0" y="0" fill="#231F20" font-family="'Helvetica'" font-size="6">Last </tspan><tspan x="0" y="7.2" fill="#231F20" font-family="'Helvetica'" font-size="6">shelf</tspan></text>
	<rect x="15.875" y="7.671" fill="none" width="17.5" height="8.5"/>
	<text transform="matrix(1 0 0 1 15.875 13.415)" font-family="'Helvetica'" font-size="8">FC1</text>
	<rect x="45.208" y="35.504" fill="none" width="34.833" height="8.5"/>
	<text transform="matrix(1 0 0 1 45.2085 41.248)" font-family="'Helvetica'" font-size="8">SAS A</text>
	<rect x="50.875" y="7.171" fill="none" width="17.5" height="8.5"/>
	<text transform="matrix(1 0 0 1 50.875 12.915)" font-family="'Helvetica'" font-size="8">FC2</text>
	<rect x="10.875" y="36.171" fill="none" width="17.5" height="8.5"/>
	<text transform="matrix(1 0 0 1 10.875 41.915)" font-family="'Helvetica'" font-size="8">M1</text>
	<rect x="2.792" y="19.792" fill="none" width="77.25" height="7.759"/>
	<text transform="matrix(1 0 0 1 7.4014 25.5361)" font-family="'Helvetica'" font-size="8">FC_bridge_x_1_06</text>
	<rect x="100.375" y="7.671" fill="none" width="17.5" height="8.5"/>
	<text transform="matrix(1 0 0 1 100.375 13.415)" font-family="'Helvetica'" font-size="8">FC1</text>
	<rect x="129.709" y="35.504" fill="none" width="34.833" height="8.5"/>
	<text transform="matrix(1 0 0 1 129.709 41.248)" font-family="'Helvetica'" font-size="8">SAS A</text>
	<rect x="135.375" y="7.171" fill="none" width="17.5" height="8.5"/>
	<text transform="matrix(1 0 0 1 135.375 12.915)" font-family="'Helvetica'" font-size="8">FC2</text>
	<rect x="95.375" y="36.171" fill="none" width="17.5" height="8.5"/>
	<text transform="matrix(1 0 0 1 95.375 41.915)" font-family="'Helvetica'" font-size="8">M1</text>
	<rect x="91.917" y="19.792" fill="none" width="70.083" height="7.759"/>
	<text transform="matrix(1 0 0 1 92.9434 25.5361)" font-family="'Helvetica'" font-size="8">FC_bridge_x_2_o6</text>
	<rect x="58.125" y="53.171" fill="none" width="76" height="6.5"/>
	<text transform="matrix(1 0 0 1 62.665 58.1973)" font-family="'Helvetica'" font-size="7">Stack of SAS shelves</text>
</g>
<g id="cables">
	
		<line fill="none" stroke="#FFFFFF" stroke-width="3" stroke-linecap="round" stroke-linejoin="round" x1="104.291" y1="81.337" x2="93.125" y2="112.171"/>
	
		<line fill="none" stroke="#000000" stroke-width="2" stroke-linecap="round" stroke-linejoin="round" x1="104.291" y1="81.337" x2="93.125" y2="112.171"/>
	
		<line fill="none" stroke="#FFFFFF" stroke-width="3" stroke-linecap="round" stroke-linejoin="round" x1="72.958" y1="81.337" x2="61.792" y2="112.171"/>
	
		<line fill="none" stroke="#000000" stroke-width="2" stroke-linecap="round" stroke-linejoin="round" x1="72.958" y1="81.337" x2="61.792" y2="112.171"/>
	
		<line fill="none" stroke="#FFFFFF" stroke-width="3" stroke-linecap="round" stroke-linejoin="round" x1="104.291" y1="116.671" x2="93.125" y2="147.505"/>
	
		<line fill="none" stroke="#000000" stroke-width="2" stroke-linecap="round" stroke-linejoin="round" x1="104.291" y1="116.671" x2="93.125" y2="147.505"/>
	
		<line fill="none" stroke="#FFFFFF" stroke-width="3" stroke-linecap="round" stroke-linejoin="round" x1="72.958" y1="116.671" x2="61.792" y2="147.505"/>
	
		<line fill="none" stroke="#000000" stroke-width="2" stroke-linecap="round" stroke-linejoin="round" x1="72.958" y1="116.671" x2="61.792" y2="147.505"/>
	
		<line fill="none" stroke="#FFFFFF" stroke-width="3" stroke-linecap="round" stroke-linejoin="round" x1="135.625" y1="67.837" x2="135.625" y2="45.004"/>
	
		<line fill="none" stroke="#FFFFFF" stroke-width="3" stroke-linecap="round" stroke-linejoin="round" x1="104.291" y1="116.982" x2="93.125" y2="147.816"/>
	
		<line fill="none" stroke="#000000" stroke-width="2" stroke-linecap="round" stroke-linejoin="round" x1="104.291" y1="116.982" x2="93.125" y2="147.816"/>
	
		<line fill="none" stroke="#FFFFFF" stroke-width="3" stroke-linecap="round" stroke-linejoin="round" x1="72.958" y1="116.982" x2="61.792" y2="147.816"/>
	
		<line fill="none" stroke="#000000" stroke-width="2" stroke-linecap="round" stroke-linejoin="round" x1="72.958" y1="116.982" x2="61.792" y2="147.816"/>
	
		<line fill="none" stroke="#FFFFFF" stroke-width="3" stroke-linecap="round" stroke-linejoin="round" x1="104.291" y1="152.316" x2="93.125" y2="183.15"/>
	
		<line fill="none" stroke="#000000" stroke-width="2" stroke-linecap="round" stroke-linejoin="round" x1="104.291" y1="152.316" x2="93.125" y2="183.15"/>
	
		<line fill="none" stroke="#FFFFFF" stroke-width="3" stroke-linecap="round" stroke-linejoin="round" x1="72.958" y1="152.316" x2="61.792" y2="183.15"/>
	
		<line fill="none" stroke="#000000" stroke-width="2" stroke-linecap="round" stroke-linejoin="round" x1="72.958" y1="152.316" x2="61.792" y2="183.15"/>
	
		<line fill="none" stroke="#FFFFFF" stroke-width="3" stroke-linecap="round" stroke-linejoin="round" x1="104.125" y1="210.316" x2="104.125" y2="187.483"/>
	<polyline fill="none" stroke="#000000" stroke-width="2" stroke-linecap="round" stroke-linejoin="round" points="135.625,45.671    135.625,210.316 104.625,210.316 104.625,187.483  "/>
	<g>
		<g>
			
				<line fill="none" stroke="#FFFFFF" stroke-width="3" stroke-linecap="round" stroke-linejoin="round" x1="62.125" y1="79.671" x2="53.125" y2="45.671"/>
		</g>
		<g>
			
				<line fill="none" stroke="#000000" stroke-width="2" stroke-linecap="round" stroke-linejoin="round" x1="62.125" y1="79.671" x2="53.125" y2="45.671"/>
		</g>
	</g>
</g>
</svg>