<?xml version="1.0" encoding="utf-8"?>
<!-- Generator: Adobe Illustrator 13.0.0, SVG Export Plug-In . SVG Version: 6.00 Build 14948)  -->
<!DOCTYPE svg PUBLIC "-//W3C//DTD SVG 1.1//EN" "http://www.w3.org/Graphics/SVG/1.1/DTD/svg11.dtd">
<svg version="1.1" xmlns="http://www.w3.org/2000/svg" xmlns:xlink="http://www.w3.org/1999/xlink" x="0px" y="0px"
	 width="214.832px" height="79.14px" viewBox="0 0 214.832 79.14" enable-background="new 0 0 214.832 79.14" xml:space="preserve">
<g id="boxes">
</g>
<g id="text">
</g>
<g id="cables">
	<g>
		
			<rect x="0.25" y="12.89" fill="none" stroke="#000000" stroke-width="0.5" stroke-linecap="round" stroke-linejoin="round" width="55.667" height="66"/>
		<g>
			
				<rect x="33.291" y="28.89" fill="none" stroke="#000000" stroke-width="0.5" stroke-linecap="round" stroke-linejoin="round" width="18.334" height="13.333"/>
			<rect x="33.208" y="21.223" fill="none" width="18.5" height="7.667"/>
			<text transform="matrix(1 0 0 1 33.208 26.1919)" font-family="'Helvetica'" font-size="7">fc-vi b</text>
		</g>
		<g>
			
				<rect x="33.291" y="55.89" fill="none" stroke="#000000" stroke-width="0.5" stroke-linecap="round" stroke-linejoin="round" width="18.334" height="13.333"/>
			<rect x="33.208" y="48.223" fill="none" width="18.5" height="7.667"/>
			<text transform="matrix(1 0 0 1 33.208 53.1929)" font-family="'Helvetica'" font-size="7">fc-vi a</text>
		</g>
	</g>
	<rect x="8.25" y="0.89" fill="none" width="46.667" height="7"/>
	<text transform="matrix(1 0 0 1 8.25 5.8589)" font-family="'Helvetica'" font-size="7">Controller A</text>
	<rect x="164.25" y="0.89" fill="none" width="46.666" height="7"/>
	<text transform="matrix(1 0 0 1 164.25 5.8589)" font-family="'Helvetica'" font-size="7">Controller B</text>
	<g>
		
			<rect x="158.916" y="12.89" fill="none" stroke="#000000" stroke-width="0.5" stroke-linecap="round" stroke-linejoin="round" width="55.666" height="65.999"/>
		<g>
			
				<rect x="165.957" y="28.89" fill="none" stroke="#000000" stroke-width="0.5" stroke-linecap="round" stroke-linejoin="round" width="18.334" height="13.333"/>
			<rect x="165.874" y="21.223" fill="none" width="18.499" height="7.666"/>
			<text transform="matrix(1 0 0 1 165.874 26.1919)" font-family="'Helvetica'" font-size="7">fc-vi b</text>
		</g>
		<g>
			
				<rect x="165.957" y="55.89" fill="none" stroke="#000000" stroke-width="0.5" stroke-linecap="round" stroke-linejoin="round" width="18.334" height="13.333"/>
			<rect x="165.874" y="48.223" fill="none" width="18.499" height="7.667"/>
			<text transform="matrix(1 0 0 1 165.874 53.1929)" font-family="'Helvetica'" font-size="7">fc-vi a</text>
		</g>
	</g>
	
		<line fill="none" stroke="#0000FF" stroke-linecap="round" stroke-linejoin="round" stroke-dasharray="1" x1="46.386" y1="35.225" x2="173.053" y2="35.225"/>
	
		<line fill="none" stroke="#0000FF" stroke-linecap="round" stroke-linejoin="round" stroke-dasharray="1" x1="46.386" y1="61.225" x2="173.053" y2="61.225"/>
</g>
</svg>
