<?xml version="1.0" encoding="utf-8"?>
<!-- Generator: Adobe Illustrator 19.1.0, SVG Export Plug-In . SVG Version: 6.00 Build 0)  -->
<svg version="1.1" xmlns="http://www.w3.org/2000/svg" xmlns:xlink="http://www.w3.org/1999/xlink" x="0px" y="0px" width="117.1px"
	 height="237.4px" viewBox="0 0 117.1 237.4" style="enable-background:new 0 0 117.1 237.4;" xml:space="preserve">
<style type="text/css">
	.st0{fill:none;stroke:#000000;stroke-width:0.5;stroke-linecap:round;stroke-linejoin:round;}
	.st1{fill:none;}
	.st2{fill:#231F20;}
	.st3{font-family:'Helvetica';}
	.st4{font-size:4.16px;}
	.st5{fill:#FFFFFF;stroke:#000000;stroke-width:0.5;stroke-linecap:round;stroke-linejoin:round;}
	.st6{font-size:7.5px;}
	.st7{font-size:8px;}
	.st8{font-size:8.3146px;}
	.st9{fill:none;stroke:#000000;stroke-width:2;stroke-linecap:round;stroke-linejoin:round;}
	.st10{fill:none;stroke:#FFFFFF;stroke-width:3;stroke-linecap:round;stroke-linejoin:round;}
</style>
<g id="lines">
</g>
<g id="stack_1">
	<rect x="14.8" y="119.9" class="st0" width="87.5" height="33"/>
	<g>
		<rect x="29.2" y="129.9" class="st0" width="27.1" height="15"/>
		<rect x="34.5" y="134" class="st0" width="5.6" height="5.6"/>
		<circle class="st0" cx="48.3" cy="136.9" r="2.8"/>
	</g>
	<g>
		<rect x="61" y="129.9" class="st0" width="27.1" height="15"/>
		<rect x="66.2" y="134" class="st0" width="5.6" height="5.6"/>
		<circle class="st0" cx="80" cy="136.9" r="2.8"/>
	</g>
	<rect x="14.6" y="78.4" class="st0" width="87.5" height="33"/>
	<g>
		<rect x="29" y="88.3" class="st0" width="27.1" height="15"/>
		<rect x="34.2" y="92.4" class="st0" width="5.6" height="5.6"/>
		<circle class="st0" cx="48.1" cy="95.4" r="2.8"/>
	</g>
	<g>
		<rect x="60.7" y="88.3" class="st0" width="27.1" height="15"/>
		<rect x="66" y="92.4" class="st0" width="5.6" height="5.6"/>
		<circle class="st0" cx="79.8" cy="95.4" r="2.8"/>
	</g>
	<rect x="37.7" y="82.9" class="st1" width="13.6" height="4.5"/>
	<text transform="matrix(1.0101 0 0 1 37.6619 85.8866)" class="st2 st3 st4">IOM A</text>
	<rect x="67.2" y="82.9" class="st1" width="13.6" height="4.5"/>
	<text transform="matrix(1.0101 0 0 1 67.1619 85.8866)" class="st2 st3 st4">IOM B</text>
</g>
<g id="stack_2">
</g>
<g id="stack_3">
</g>
<g id="stack_4">
</g>
<g id="_x37_500N_A_x5F_1b">
	<g>
		<rect x="0.5" y="182.5" class="st5" width="116.3" height="42"/>
		<rect x="44.7" y="211.6" class="st5" width="27.9" height="12.7"/>
		<rect x="3" y="182.7" class="st5" width="25.5" height="12.9"/>
		<rect x="5.1" y="185.6" class="st1" width="23.3" height="8.5"/>
		<text transform="matrix(1 0 0 1 5.0931 191.0205)" class="st3 st6">SAS A</text>
		<rect x="31.6" y="182.5" class="st5" width="25.5" height="12.7"/>
		<rect x="33.3" y="185.6" class="st1" width="24.3" height="8.5"/>
		<text transform="matrix(1 0 0 1 33.3433 191.0205)" class="st3 st6">SAS B</text>
		<rect x="60.2" y="182.5" class="st5" width="25.5" height="12.7"/>
		<rect x="61.6" y="185.6" class="st1" width="24.3" height="8.5"/>
		<text transform="matrix(1 0 0 1 61.5925 191.0205)" class="st3 st6">SAS C</text>
		<rect x="88.7" y="182.5" class="st5" width="25.5" height="12.7"/>
		<rect x="89.8" y="185.6" class="st1" width="24.3" height="8.5"/>
		<text transform="matrix(1 0 0 1 89.8431 191.0205)" class="st3 st6">SAS D</text>
		<rect x="80.5" y="211.8" class="st5" width="27.9" height="12.7"/>
		<rect x="44.7" y="211.6" class="st5" width="27.9" height="12.7"/>
		<rect x="86.4" y="213.6" class="st1" width="17.5" height="8.5"/>
		<text transform="matrix(1 0 0 1 86.4164 219.374)" class="st3 st7">FC2</text>
		<rect x="13.4" y="211.1" class="st5" width="15.1" height="13.2"/>
		<rect x="16.2" y="214.1" class="st1" width="17.5" height="8.8"/>
		<text transform="matrix(0.9622 0 0 1 16.1664 220.1001)" class="st3 st8">M1</text>
		<rect x="51.4" y="214.1" class="st1" width="17.5" height="8.5"/>
		<text transform="matrix(1 0 0 1 51.4164 219.874)" class="st3 st7">FC1</text>
	</g>
	<rect x="0.2" y="227.8" class="st1" width="116" height="7.8"/>
	<text transform="matrix(1 0 0 1 0.2496 233.5361)" class="st3 st7">ATTO 7500N bridge</text>
	<rect x="0.3" y="199.5" class="st1" width="116" height="7.8"/>
	<text transform="matrix(1 0 0 1 37.8206 205.2033)" class="st3 st7">bridge_A_2</text>
</g>
<g id="_x37_500N_A_x5F_1a">
	<rect x="0.5" y="11.6" class="st5" width="116.2" height="41.3"/>
	<rect x="44.7" y="11.6" class="st5" width="27.9" height="12.7"/>
	<rect x="44.7" y="11.6" class="st5" width="27.9" height="12.7"/>
	<rect x="79.7" y="11.5" class="st5" width="27.9" height="12.7"/>
	<g>
		<rect x="51.4" y="15.8" class="st1" width="17.5" height="8.5"/>
		<text transform="matrix(1 0 0 1 51.418 21.5488)" class="st3 st7">FC1</text>
		<rect x="86.4" y="15.3" class="st1" width="17.5" height="8.5"/>
		<text transform="matrix(1 0 0 1 86.418 21.0488)" class="st3 st7">FC2</text>
		<g>
			<rect x="13.4" y="12.1" class="st5" width="15.1" height="12.7"/>
			<rect x="16.2" y="16.3" class="st1" width="17.5" height="8.5"/>
			<text transform="matrix(1 0 0 1 16.168 22.0488)" class="st3 st7">M1</text>
		</g>
	</g>
	<rect x="13.9" y="30.5" class="st1" width="70.1" height="7.8"/>
	<g>
		<g>
			<rect x="3" y="40.3" class="st5" width="25.5" height="12.7"/>
			<rect x="5.1" y="43.9" class="st1" width="23.3" height="8.5"/>
			<text transform="matrix(1 0 0 1 5.0947 49.2725)" class="st3 st6">SAS A</text>
		</g>
		<g>
			<rect x="31.6" y="40.3" class="st5" width="25.5" height="12.7"/>
			<rect x="33.7" y="43.9" class="st1" width="24.3" height="8.5"/>
			<text transform="matrix(1 0 0 1 33.6777 49.2725)" class="st3 st6">SAS B</text>
		</g>
		<g>
			<rect x="60.2" y="40.3" class="st5" width="25.5" height="12.7"/>
			<rect x="62.3" y="43.9" class="st1" width="24.3" height="8.5"/>
			<text transform="matrix(1 0 0 1 62.2607 49.2725)" class="st3 st6">SAS C</text>
		</g>
		<g>
			<rect x="88.7" y="40.3" class="st5" width="25.5" height="12.7"/>
			<rect x="90.8" y="43.9" class="st1" width="24.3" height="8.5"/>
			<text transform="matrix(1 0 0 1 90.8447 49.2725)" class="st3 st6">SAS D</text>
		</g>
	</g>
	<rect x="0.3" y="1.1" class="st1" width="115.7" height="7.8"/>
	<text transform="matrix(1 0 0 1 0.2708 6.8691)" class="st3 st7">ATTO 7500N bridge</text>
	<rect x="0.3" y="29.1" class="st1" width="115.7" height="7.8"/>
	<text transform="matrix(1 0 0 1 37.6748 34.8691)" class="st3 st7">bridge_A_1</text>
</g>
<g id="cables">
	<line class="st9" x1="48.7" y1="93.2" x2="36" y2="137.9"/>
	<path class="st9" d="M69.6,49.5"/>
	<g>
		<g>
			<polyline class="st10" points="37,89.5 37.3,62 19,62 19.3,53.5 19.3,51.9 			"/>
		</g>
		<g>
			<polyline class="st9" points="37,94.5 37.3,62 19,62 19,52.2 			"/>
		</g>
	</g>
	<path class="st9" d="M0,55.9"/>
	<line class="st9" x1="80.3" y1="93.2" x2="67.7" y2="137.9"/>
	<g>
		<g>
			<polyline class="st10" points="80.3,136.2 80.6,169.7 17.4,169.4 17.7,183 			"/>
		</g>
		<g>
			<polyline class="st9" points="80.3,137.2 80.6,169.7 17.4,169.4 17.4,182.7 			"/>
		</g>
	</g>
</g>
</svg>
